<?xml version="1.0" encoding="utf-8"?>
<!-- Generator: Adobe Illustrator 26.0.2, SVG Export Plug-In . SVG Version: 6.00 Build 0)  -->
<svg version="1.1" id="Layer_1" xmlns="http://www.w3.org/2000/svg" xmlns:xlink="http://www.w3.org/1999/xlink" x="0px" y="0px"
	 viewBox="0 0 108 108" style="enable-background:new 0 0 108 108;" xml:space="preserve">
<style type="text/css">
	.st0{fill:#696157;}
	.st1{fill:#696157;stroke:#696157;stroke-width:0.8;stroke-linecap:round;}
	.st2{fill:#696157;stroke:#FFFFFF;stroke-width:0.8;stroke-linecap:round;}
	.st3{fill:#FFFFFF;stroke:#FFFFFF;stroke-width:0.8;stroke-linecap:round;}
</style>
<circle class="st0" cx="53.8" cy="53.8" r="53.8"/>
<path class="st1" d="M50.9,28.6c-0.4,1.1-0.9,1.4-0.4,2.6C50.4,31,50,31,49.8,30.8c-0.4-0.6-0.4-1.7-0.7-2.4
	c-0.3-0.8-0.8-1.5-1.1-2.3c-0.2-0.4-0.4-1.7-0.5-1.3c-0.1,0.3-0.1,0.6-0.1,0.8c-0.1,1.2-0.8,2.3-0.8,3.6c0,0.8-0.2,1.6-0.5,2.3
	c-0.1,0.3-0.4,1.8-0.7,1.9c-0.1,0-0.8-0.7-0.8-0.8c-0.5-0.7-3.5-4.2-3.8-3.7c-0.3,0.4,0.2,1.5,0.4,1.8c0.4,0.7,0.9,1.7,1.2,2.5
	c0.2,0.4,1.6,3.2,1.6,3.2c-0.2,0.1-1.2-0.6-1.4-0.6c-1.8-0.4-3.7-1-5.4-1.8c-0.1,0-2.5-1.3-2.4-0.6c0,0.5,0.3,0.6,0.5,1
	c0.5,1,1.5,2.1,2.3,2.9c0.9,0.8,1.9,1.6,2.8,2.3c0.5,0.4,1.1,0.9,1.6,1.1c0.2,0.1-0.1,0-0.2,0c-1.2,0.1-2.4,0.3-3.5,0
	c-1.5-0.3-3-0.7-4.5-0.9c-0.9-0.1-1.9-0.4-2.8-0.6c-1-0.2-1.8-0.8-2.8-0.9c-0.1,0,0.6,0.4,0.7,0.6c0.3,0.5,0.8,0.9,1.2,1.4
	c0.8,0.9,2.4,1.8,3.6,2c1.1,0.2,2.1,0.8,3.2,0.9c1,0.1,0,0-0.4-0.1c-1-0.2-2.1-0.6-3.2-0.7c-0.7-0.1-1.4-0.2-2.1-0.3
	c-0.8,0-1.7,0.1-2.4,0c-1.1-0.2-2.2-0.7-3.3-0.8c-1.6-0.2-0.7,0.8,0.2,1c0.7,0.2,2.4,0.9,2.5,1.6c0.1,0.7,0,1.4,0,2.1
	c0.1,1.2,0.2,2.2,0.6,3.3c0.1,0.4,0.3,1,0.3,1.5c0,0.3-0.3,0.5-0.4,0.7c-0.9,1.8-2.6,3.4-2.7,5.5c-0.1,1.1,0.4,2.2,0.5,3.3
	c0.1,1.2,0.5,2,1.1,3c0.6,1,1.8,1.9,2.2,3c0.3,0.8-0.5,1.7-0.4,2.5c0.1,1.1,0.5,2.2,0.8,3.2c0.4,1.1,1.2,1.9,1.8,2.8
	c0.5,0.7,1.8,1.2,1.9,2.1c0.1,0.7,0.4,1.4,0.7,2c0.4,0.7,0.5,1.5,1,2.2c0.4,0.7,1,1.2,1.4,1.9c0.7,0.9,2.1,1.6,2.7,2.7
	c0.4,0.7,1.9,1.3,2.7,1.6c0.8,0.3,1.7,0.5,2.6,0.4c0.8-0.1,1.5-0.2,2.3-0.2c0.8,0,1.7-0.4,2.5,0.1l0,0c1.5,1,2.5,1.6,4.4,1.5
	c1.9-0.2,3.8-0.6,5.1-2.2c0.5-0.6,0.3-0.7,1-0.6c0.2,0,0.6,0.3,0.8,0.4c0.6,0.3,1,0.5,1.6,0.7c1.6,0.6,2.8-0.6,4.1-1.3
	c0.4-0.2,0.6-0.6,0.9-0.9c0.4-0.2,0.8-0.6,1-1c0.3-0.8,0-1.6,1-1.7c1.8-0.2,3.1-2.3,3.7-3.8c0.4-1,1.7-1.7,1.7-2.8
	c0-0.7,0-1.3,0.5-1.9c0.4-0.5,1.2-0.9,1.5-1.6c0.3-0.8,0.6-1.5,0.7-2.4c0.1-1.8,0-3.5-0.2-5.4c-0.1-0.7,0.7-1.1,1-1.7
	c0.2-0.4,0.6-0.7,0.7-1.3c0.1-0.4,0.3-1,0.4-1.4c0.7-1.8,0.3-3.7,0.2-5.6c-0.1-0.7-0.4-1.4-0.5-2.1c-0.1-0.5,0.4-1.2,0.6-1.6
	c1.2-3.2,0.4-6.2-1.5-8.9c-0.3-0.4-1.4-1-1.9-1.2c-0.2-0.1-2.1-0.7-1.5-1.1c0.4-0.3,2.7-0.7,1.1-0.6l-2.2,0.2
	c-1.6,0.2-3.3,0-4.9,0.2c-1.2,0.1-0.5-0.1,0.3-0.2c0.7-0.1,1.3-0.3,2-0.5c1.1-0.3,2.2-1,3.3-1.1c1.6-0.2,3.3-0.7,4.7-1.6
	c0.7-0.4-1.2-0.3-1.5-0.2c-1,0.1-2.4,0.2-3.3,0.6c-0.7,0.3-1.6,0.2-2.3,0.3c-1.2,0.1-2.2,0.4-3.4,0.8c-0.4,0.1-2,0.6-1.8,0.5
	c0.4-0.1,0.8-0.3,1.1-0.5c1-0.6,1.7-1.5,2.7-2c0.6-0.3,1.1-0.8,1.6-1.2c0.5-0.4,1.1-0.6,1.6-0.9c1.1-0.9,2.6-1.2,3.7-2.1
	c0.1-0.1,1.8-1.6,1.7-1.6c-0.2-0.1-1,0.3-1.2,0.3c-0.7,0.3-2.1,0.4-2.9,0.5c-1,0.1-1.9,0.7-2.9,1.1c-0.9,0.4-1.9,0.7-2.8,1.1
	c-1.1,0.5-2.2,0.8-3.2,1.4c-0.7,0.4-1.4,0.7-2,1.1c-0.6,0.4-0.4,0-0.1-0.2c0.8-0.6,1.7-1.7,2.2-2.6c0.4-0.7,0.9-1.3,1.2-2
	c0.2-0.4-0.3-0.1-0.5,0c-1.6,1-3.3,2.3-5.2,2.8c-1.1,0.3-2,1-3.1,1.1c-0.8,0.1,0-1.1,0.1-1.4c0.1-0.3,1.2-2.3,1.1-2.3
	c-0.5-0.1-1.4,0.7-1.8,1c-0.6,0.6-1.5,1.5-2.3,1.8c-0.8,0.4-1.3,1.2-2,1.6c-0.4,0.2-0.6-1.2-0.6-1.6c-0.1-0.6-0.3-1.3-0.3-1.9
	L53,29.8c-0.1-0.9,0.3-1.7,0.5-2.5c0.2-0.9,0.7-1.5,1.1-2.3c0.3-0.7,1-1.3,1.2-2c0.5-1.5,2.5-2.7,3.7-3.6c0.9-0.7,1.8-1.3,2.8-1.9
	c0.9-0.6,1.8-1,2.7-1.5c1-0.6,3.5-0.8,3.3-2.4c-0.1-0.9-3.2,0.2-3.5,0.5c-1.2,0.9-2.9,1.8-4.3,2.3c-0.8,0.3-1.5,0.8-2.2,1.2
	c-0.8,0.5-1.3,1.1-2,1.6c-1,0.7-2.5,2.3-3,3.4c-0.3,0.6-0.8,1.3-1,1.9c-0.1,0.6-0.3,1.8-0.6,2.3C51.3,27.3,51.1,28,50.9,28.6z"/>
<path class="st2" d="M31,42.7c-1.5,1.3-1.8,2.3-1.6,4.4c0.1,0.7,0.1,1.4,0.2,2.1c0.1,0.7,0.4,1.2,0.6,1.9c0.2,1.1,1.6,2.7,2.5,3.2
	c0.6,0.3,1,0.9,1.6,1.1c0.3,0.1,1,0.7,1,0.7"/>
<path class="st2" d="M30.1,52.3c-1.9,1-2.3,3.1-2.8,5c-0.2,0.8,0,1.7,0,2.5c0.1,1,0.5,1.7,0.7,2.6c0.2,0.8,0.7,1.5,1.2,2.1
	c0.5,0.7,1.3,0.8,1.8,1.3c0.6,0.7,2.6,0,3.1,0.8"/>
<path class="st2" d="M39.3,45.4c-1.6-0.3-3.3-0.2-4.7-0.7c-0.9-0.3-2-0.7-2.9-0.8c-1-0.2-2.2-0.7-3.1-1.1c-0.7-0.3-2.9-0.8-2.1-0.9
	c1.7-0.2,3.7,0.4,5.3,0.8c1.9,0.5,3.9,0.7,5.8,1c0.2,0,0.4,0.1,0.6,0.1c-0.4-0.2-0.8-0.3-0.9-0.4c-2.2-1-4.8-1.9-6.7-3.3
	c-0.5-0.3-0.7-0.9-1-1.5c-0.3-0.8-0.2-0.3,0.4,0.1c1.2,0.8,2.7,1.1,4.2,1.4c2,0.4,4.1,0.8,6.2,1.1c0.8,0.1,1.6,0.4,2.3,0.4
	c0.3,0-1-1.4-1.2-1.6c-1.5-1.8-3.5-3.3-4.9-5.1c-0.3-0.4-0.4-0.8-0.6-1.2c0,0,2,1.3,2.3,1.5c1,0.7,2.3,1.7,3.6,1.9
	c0.6,0.1,1.1,0.3,1.6,0.6c0.6,0.4-0.6-1.7-0.7-1.8c-0.6-1.1-1.1-2.3-1.3-3.5c-0.2-1-0.3-2-0.3-3c0-0.8,0.9,1.3,1.4,1.9
	c0.3,0.5,0.7,0.9,1.1,1.3c-0.1-0.2,0.1,0,0.3,0.4c0,0,0,0,0,0c0.7,0.7,2,1.5,2,1.3c0.1-1.6,0.4-3.1,0.6-4.7c0.2-1.3,0.8-2.6,0.8-3.9
	c0-0.1-0.1-1.1,0-0.8c0.4,1,0.6,2.2,1,3.3c0.6,1.6,1.5,5,1.5,5s0-1.2,0.2-1.8c0.5-1.4,1.1-2.7,1.9-4c0.6-0.9,1-1.8,1.2-2.9
	c0.1-0.3,0.3-1.3,0.4-1c0.2,2.5-0.3,5-0.2,7.6c0,1.3,0.2,2.5,0,3.8c0,0.2-0.5,1.5,0.1,1c2.1-1.8,4.3-3.8,6.8-5
	c0.8-0.4,0.1,0.3-0.2,0.8c-0.6,1-1.2,1.9-1.8,2.8C58.4,35,58.2,35,58.7,35c1.7-0.2,3.4-1.4,4.9-2.2c1.3-0.7,2.7-1.4,4.1-2
	c0.9-0.4-0.7,1.1-1,1.4c-0.8,1.1-1.6,2.5-2.6,3.4c-0.1,0.1-1.1,0.9-0.6,0.6c2-1.2,4-2.2,6.2-3c2.6-1,5.4-2.2,8.2-2.5
	c0.4,0,1.1-0.3,0.5,0c-0.9,0.4-1.7,1.2-2.5,1.8c-2.8,2.3-6.5,3.2-9.5,5.3c-0.1,0.1-0.9,0.5-0.3,0.5c2.1,0,4.4-0.4,6.5-0.7
	c1.7-0.2,3.5-0.4,5.1-0.8c0.6-0.2-1.5,0.5-1.7,0.6c-3.3,1.2-6.6,2-10,2.2c1.7,0,3.4,0.3,5,0.3c1.4,0.1,2.9,0.1,4.3-0.1
	c1.1-0.1,0.7,0.1-0.1,0.2c-3.6,0.4-7,1.7-10.6,2c-0.1,0-0.7,0-1.2,0c0.9,0.3,2.5,1.2,2.7,1.3c1.8,0.8,3.5,1.6,5.3,2.2
	c0,0,2.2,0.8,1.8,1c-0.9,0.5-2.9-0.1-3.8-0.2c-2.2-0.4-4.2-1.2-6.3-1.8c-0.9-0.3-2.4-1.2-3.4-1.1c-0.3,0,1.1,1.8,1.3,2
	c1.2,1.3,2.6,2.4,4,3.5c0.2,0.2,1.9,1.5,1.9,1.8c-0.1,0.4-3.3-1.3-3.5-1.4c-2.1-1.1-4-2.3-6-3.5c-0.3-0.2-1.8-1.5-2.1-1.4
	c-0.1,0,0.4,0.7,0.4,0.7c0.5,0.7,1,1.5,1.6,2.2c1.2,1.6,2.7,2.7,4.5,3.7c0.4,0.2,1.2,0.8,0.3,0.7c-1.6-0.2-3.3-1.7-4.7-2.5
	c-1.8-1-3.7-1.7-5.2-3c-0.3-0.3-1.2-1.2-1.6-1.3c-0.8-0.1-0.5,1.7-0.5,2.1c0,2.5-0.5,4.8-0.9,7.3c-0.3,2.4-0.3-4.9-1.1-7.2
	c-0.6-1.9-1.4,3.2-1.6,3.7c-0.5,1.3-1,2.7-2.2,3.6c-0.6,0.5,0.2-2.1,0.3-2.2c0.5-1.8,1.1-3.5,1.5-5.3c0.2-1.1-0.6,0.2-0.8,0.5
	c-1.8,2.7-4.4,4.4-7.3,5.7c-0.7,0.3-0.5,0-0.1-0.5c1.3-1.8,3.1-3.2,4.6-4.9c1.1-1.2-1-0.1-1.4,0.2c-1.6,0.9-3,2-4.8,2.4
	c-0.7,0.2-1.4,0.2-2.2,0.3c-0.9,0.1-0.1-0.2,0.4-0.5c1.7-0.8,4.8-1.4,5.9-3.1c0.1-0.2,0.5-0.4,0.1-0.3c-0.7,0.1-1.5,0.1-2.2,0.3
	c-1.5,0.3-3,0.9-4.4,1.4c-0.3,0.1-2.6,0.9-1.7,0.3c2-1.4,4.5-1.7,6.5-2.8C38.9,45.8,39.1,45.6,39.3,45.4z"/>
<path class="st2" d="M31.5,66.3c-0.9,1.9-0.3,2.8-0.2,4.7c0.1,1.5,1.3,2.4,2,3.6c1,1.7,4.6,2.2,6.4,2"/>
<path class="st2" d="M38.6,71.5c-0.2,2,0,3.7,1.4,5.1c0.7,0.7,1.6,1.9,2.6,2.1c1.2,0.3,2.2,0.2,3.4,0.1c0.5,0,2.3,0,1.8-0.6"/>
<path class="st2" d="M34.6,56.9c-0.9,2.2-1.2,4-1,6.4c0.1,0.9,0,1.7,0.6,2.5c0.6,0.8,1.4,1.3,2,2c1.3,1.5,3,1.7,4.6,2.4
	c0.6,0.3,1.3,0.1,1.9,0c0.2,0,1.6-0.2,0.8-0.1"/>
<path class="st2" d="M36.6,50.6c-1.2,3.3-0.8,8.4,2.8,9.4c1.1,0.3,2.3,0.7,3.5,0.8c0.8,0,3.2-0.1,2.4,0"/>
<path class="st2" d="M44.2,53.9c0.2,1.7,0.1,3.5,1,5c0.6,1.1,1.2,2.6,2.4,3.1c2.6,1.1,5,0.3,7.1-1.4c1.6-1.2,3-3.4,2.8-5.4
	c-0.1-0.7-0.1-4.3-1-4.3"/>
<path class="st2" d="M57.1,59.8c2.9,0.8,7.8,2,9.6-1.4c1.2-2.3,1.4-4.2,1.2-6.7"/>
<path class="st2" d="M68,57.1c2.5,0.1,6.2,0.1,7.5-2.4c0.5-0.9,0.2-2.2,0.4-3.2c0.2-1-0.1-3-0.6-3.8c-0.4-0.6-0.5-1.3-1-1.9
	c-0.6-0.7-1.3-1.3-2-1.8c-0.5-0.3-2.3-0.9-3-0.8c-0.6,0-0.8-0.3-3.3,0.3"/>
<path class="st2" d="M75.2,53.8c1.5-1.1,3.4-2.2,3.7-4.2c0.3-1.7,0.4-3.9-0.6-5.4c-1.2-1.9-3.4-3.2-5.6-3.7"/>
<path class="st2" d="M78.4,51.5c0.3,2.3,1.6,6.1,0.5,8.2c-0.4,0.8-1.2,2-2,2.4c-0.6,0.3-2.4,0.7-2.6,1.3"/>
<path class="st2" d="M76.5,63.4c0.4,1.9,0.8,3.9,0.3,5.9c-0.3,1.3-0.7,1.8-1.6,2.7c-0.8,0.8-2.1,1.2-3.2,1.6c-0.5,0.2-3,0.7-2.8,0.5
	"/>
<path class="st2" d="M73.6,56.6c0.4,1.6,0.8,2.8,0.4,4.4c-0.2,0.9-0.4,1.9-0.5,2.9c-0.2,1.5-1,2.5-2.3,3.3c-1,0.6-5,1.5-5.9,0.2"/>
<path class="st2" d="M62.7,61.1c0.8,1.5,1.8,4.2,1.3,6c-0.2,0.8-0.2,2-0.9,2.6c-1.4,1.2-4.6,3.7-6.4,2.2c-1.7-1.4-4.2-2.2-4.6-4.8
	c-0.1-0.9-0.2-1.8-0.3-2.8c0-0.5-0.1-2.9,0.1-1.4"/>
<path class="st2" d="M54.8,71.1c-1.7,0.4-3.8,1.4-5.6,0.8c-1.7-0.6-2.7-1.1-4.1-2.3c-1.1-0.9-1.9-2.6-2.5-4
	c-0.3-0.8-0.4-1.5-0.5-2.4c-0.1-0.7-0.7-2.1,0.1-0.8"/>
<path class="st2" d="M46.7,71.7c-0.2,1.9-0.2,4.6,1.3,6c1.2,1.2,3.2,2.2,5,2.1c2.4-0.2,4-0.8,5.8-2.3c1.4-1.2,1.3-3,1.2-4.7"/>
<path class="st2" d="M58.2,77.7c2.7,1.3,7.9,1.8,9.5-1.4c0.7-1.4,1.1-2.7,1.4-4.2c0.3-1.2,0.8-2.5,0.7-3.8"/>
<path class="st2" d="M66,81c2.2,0.4,5.1,0.7,6.3-1.7c0.6-1.1,0.9-2.2,1.4-3.3c0.2-0.5,0.9-2.4,0.7-2.3"/>
<path class="st2" d="M53.6,80.3c3.2,2.1,6.2,4.5,9.9,2.2c1-0.6,1.8-1.3,2.4-2.3c0.3-0.6,0.5-1.2,0.7-1.8c0.4-0.9,0.3-1-0.1,0.1"/>
<path class="st2" d="M59.1,84.3c2.3,1.1,4,1.5,6.6,1.2c1.2-0.2,3-2.8,3.3-4"/>
<path class="st2" d="M43.5,80.1c0.2,2.2,0.5,3.7,2.3,5c1.2,0.9,2.5,0.8,3.9,0.7c1.3-0.1,2.8-0.4,3.7-1.5c0.3-0.4,2.7-2.6,2.5-2.8"/>
<path class="st2" d="M49.8,86.6c3,1.4,8.5,2,10.4-1.6"/>
<path class="st2" d="M35.6,77.8c0.6,2,1.4,4,3.5,4.8c1.9,0.7,3.7,0.3,5.7,0.2"/>
<path class="st2" d="M39.4,83.7c1,1.1,1.4,2.1,2.7,2.8c0.6,0.3,1.4,0.4,2.1,0.6c0.8,0.2,3.2,0,3.5-0.9"/>
<path class="st2" d="M42.2,85.3c-0.1,1.7-0.7,3.2-1.6,4.6"/>
<path class="st2" d="M37.9,82.5c-0.5,0.6-0.9,1.4-1.7,1.8"/>
<path class="st2" d="M31.3,76.8c1.5-0.5,3-1,4.5-1.6"/>
<path class="st2" d="M34.7,72.7c1-1.8,2.4-3.4,3.1-5.4"/>
<path class="st2" d="M47.7,67.4c1.6-2.5,2.5-5,3.5-7.6"/>
<path class="st2" d="M58.5,70c1.3,1.5,2.7,3.1,4.8,3.2"/>
<path class="st2" d="M60.9,59.4c0.2,1.4,1.2,4.5,3,4.4"/>
<path class="st2" d="M72,54.3c1.7,1.3,3.5,1.9,5.6,1.9"/>
<path class="st2" d="M77.5,48.1c1.4-0.1,3.1,0.2,4.4-0.4"/>
<path class="st2" d="M77.2,60.7c1.7,0.7,3.2,1.9,4.7,2.8"/>
<path class="st2" d="M70.5,66c0.6,1.5,2.1,3.8,3.8,4.1"/>
<path class="st2" d="M72.7,74.1c0.2,2,1.4,3.6,3.1,4.6"/>
<path class="st2" d="M66,84.8c0.6,1.2,1.3,2.4,2,3.7"/>
<path class="st2" d="M52.6,77.8c0,2.3-0.3,4.5-0.6,6.7"/>
<path class="st2" d="M54.2,85.8c-0.1,1.6-0.3,3.1-0.6,4.7"/>
<path class="st2" d="M23.8,60.7c1.4-0.3,3.8-0.2,4.5-1.6"/>
<path class="st2" d="M30.3,60.1c0.6-1.9,1.4-4.1,2.5-5.7"/>
<path class="st2" d="M27.7,50.1c1.9-0.2,4.2-0.2,5.8-1.2"/>
<path class="st2" d="M36.3,62.2c1.7-1.7,3.7-3.2,5.4-5"/>
<path class="st2" d="M40.2,81.2c0.4-2.1,1.9-3.4,2.7-5.3"/>
<path class="st2" d="M60.5,81.9c1,1.2,2,2.7,3.7,2.9"/>
<path class="st3" d="M49.6,33.3c-0.8,3.5-0.7,7.1-4.3,8.9c2.5-0.2,5-0.5,7.5-0.8c0.7-0.1,1.3-0.2,1.9-0.3c0.1,0,0.4-0.1,0.4-0.2
	c-1.3-0.3-2.6-2.4-2.7-3.7c-0.3-3.1,1.1-5.8,1.4-8.8c0.2-2.8,1.8-4.9,3.6-6.9c1.8-2,5-2.9,7.3-4.3c1.2-0.7,2.3-1,3.2-2.1
	c0.6-0.8,0.3-1.2-0.6-1.2c-1.7,0.2-3.3,1.4-4.9,2.1c-2.5,1-4.8,2.3-6.8,4.1C52,23.2,50.6,28.7,49.6,33.3z"/>
<path class="st2" d="M45.3,42.1c3.6-1.7,3.5-5.3,4.3-8.8c1-4.5,2.4-10,6-13.2c2.1-1.8,4.3-3.1,6.8-4.1c1.6-0.6,3.2-1.9,4.9-2.1
	c0.9-0.1,1.3,0.4,0.6,1.2c-0.9,1.1-2,1.4-3.2,2.1c-2.3,1.4-5.4,2.3-7.3,4.3c-1.8,2-3.4,4.1-3.6,6.9c-0.2,3-1.7,5.7-1.4,8.8
	c0.1,1.2,1.4,3.4,2.7,3.7"/>
</svg>
