<?xml version="1.0" encoding="utf-8"?>
<!-- Generator: Adobe Illustrator 26.0.2, SVG Export Plug-In . SVG Version: 6.00 Build 0)  -->
<svg version="1.1" id="Layer_1" xmlns="http://www.w3.org/2000/svg" xmlns:xlink="http://www.w3.org/1999/xlink" x="0px" y="0px"
	 viewBox="0 0 108 108" style="enable-background:new 0 0 108 108;" xml:space="preserve">
<style type="text/css">
	.st0{fill:#696157;}
	.st1{fill:#696157;stroke:#696157;stroke-width:0.5;stroke-linecap:round;}
	.st2{fill:none;stroke:#FFFFFF;stroke-miterlimit:10;}
	.st3{fill:#FFFCFC;stroke:#FFFFFD;}
	.st4{fill:none;stroke:#FFFFFA;stroke-linecap:round;}
	.st5{fill:none;stroke:#696157;stroke-width:0.5;stroke-linecap:round;}
</style>
<circle class="st0" cx="53.5" cy="53.5" r="53.5"/>
<path class="st1" d="M67.6,71.9c-0.9,0.4-1.2,1.1-2.2,1.3c-0.4-0.5-2.4-0.4-3-0.4c-0.9,0-1.6,0.2-2.5,0.2c-0.8,0-0.9-0.6-1.5-0.7
	c-1.3-0.4-2.7,0-4-0.8c-0.8-0.5-0.8-1.5-2-1.5c-0.6,0-1.6-0.2-2.1,0.1c-0.4,0.2-1.7,0.3-2.1,0.3c-0.9,0-1.8,0.2-2.7,0.2
	c-1.5,0-3.8,0.4-5.1-0.2c-0.9-0.4-1.8-0.5-2.7-0.9c-0.7-0.3-1.3-0.8-2.1-1.1c-1.5-0.7-2.8-2-4-3.2l0,0c-2.7-2.8-4.8-6.2-7.6-9
	c-1.4-1.4-3-2.2-4.5-3.3c-1.5-1.1-2.4-2.7-3.9-3.9c-1.4-1.1-2.4-2.4-4.1-3.1c-0.7-0.3-1.3-0.7-2-1c-0.8-0.4-0.8-1.2,0.2-1.3
	c1.7-0.1,2.8-1.1,4.3-1.8c1.3-0.6,3.4-0.9,4.8-0.9c3.4,0,6.5,0.8,9.8,1.5c0.8,0.2,1.5,0.3,2.3,0.5c1.1,0.3,1.6,0.8,2.5,1.5
	c1.4,1,2,2.8,3.2,4c1.6,1.6,3.2,3.1,4.6,4.9c0.5,0.6,1.3,1.3,1.8,1.8c0.4,0.5,0.7,1.1,1.1,1.5c0.8,0.9,0.6,2.9,1.4,3.6
	c0.5,0.4,1,1.5,1.4,2.1c0.3,0.6,0.7,1.3,1,1.9c0.7,1.3,1.9,2.4,2.4,3.7c0.3,0.7,1.2,1.4,1.9,1.4c0.9,0,0.6-0.8,0.5-1.4
	c-0.3-1.4-1.7-2.5-1.7-4.1c0-2.5,0.7-4.8,0.7-7.3c0-4.4,0.1-9,1.3-13.3c0.5-1.8,1.8-2.8,2.5-4.5c0.2-0.5,0.7-0.9,0.9-1.4
	c0.2-0.5,0.5-1,0.8-1.4c0.6-0.7,1.2-1.5,1.7-2.3c1.7-2.7,3.6-5.5,5.9-7.8c1.4-1.5,5.8-4.8,7.7-2.9c1,1,1.5,2.4,2.2,3.6
	c0.4,0.7,0.5,1.3,1.4,1.5c0.7,0.2,1.4,0.2,2.1,0.4c0.7,0.2,1.7-0.3,1.8,0.8c0,0.9-0.2,1.6-0.2,2.5c0,1.6-0.7,3.1-0.7,4.7
	c0,0.9-0.3,2-0.5,2.8c-0.3,0.9-0.2,1.9-0.5,2.8c-0.6,1.6-1,3.4-1.7,4.9c-0.4,0.9-0.9,1.8-1.3,2.7c-0.3,0.7-0.4,1.6-0.9,2.3
	c-0.9,1.5-1.2,3.3-1.7,5c-0.4,1.1-1.1,1.3-1.8,2l-1.8,1.8c-1.1,1.1-2.8,2.1-3.5,3.5c-0.8,1.4-2.6,2.1-3.6,3.1
	c-0.5,0.5-1.6,1.2-2,1.8c-0.4,0.6-1.7,1.2-1.9,1.9c-0.2,1,0.9,0.7,1.3,0.3c0.4-0.4,1.6-0.2,2.1-0.5c1.5-0.9,3.1-1.3,4.4-2.6
	c1.4-1.4,3.4-2.2,5.1-3.1c0.9-0.5,1.8-0.9,2.7-1.4c0.8-0.5,1.6-0.6,2.5-1c0.9-0.4,2-0.9,3-1.1c0.9-0.2,1.7-1.2,2.6-1.5
	c0.8-0.3,1.8,0.1,2.6,0.1c0.8,0,1.6,0.2,2.4,0.2c1.1,0,3.6-2,4.7-1.1c1.3,1,2.9,0,4.2,0.3c1.1,0.2-0.1,4-0.3,4.6
	c-0.4,1.9-1.9,2.4-3.5,3c-1.1,0.4-2,1.1-3.1,1.5c-0.6,0.2-1.4,0.2-1.9,0.5c-1.2,0.7-3-0.4-4.2,0.1c-1.2,0.6-3,0.3-4.4,0.3
	c-1.2,0-2.6,0.4-3.8,0.4c-1.5,0-3.2,0.8-4.6,1.3C69.1,71.6,68.3,71.6,67.6,71.9z"/>
<path class="st2" d="M52.9,69.5c-1.3-4.6-0.6-10.1-0.6-15c0-3.2,0.2-6.6,1.1-9.6c1-3.2,2.9-5.1,4.7-7.7c3.1-4.3,6.5-11.8,11.8-13.3
	c2.6-0.7,2.7-0.2,3.4,2.3c0.3,0.9,0.5,3.3,1.7,3.4c1.4,0.1,3-0.3,4.3,0c0.7,0.2,0,5.2-0.1,5.7c-0.8,7.3-3.5,13.5-6.6,19.9
	c-2.3,4.9-6.6,7.5-10.2,11c-0.7,0.7-1.4,1.2-1.9,2c-0.7,1-2.5,1.4-3,2.5c-0.1,0.2,4.2-0.2,4.6-0.4c2.8-0.9,4.9-2.5,7.4-4
	c4-2.3,7.8-4.3,12.1-5.7c1.6-0.5,3.7,0,5.3-0.1c1.3-0.1,3.6-1.9,4.9-1c0.8,0.6,2,0.1,2.9,0.3c0.6,0.1,0.3,1.9,0.3,2.5
	c0,3-3.6,4.9-5.7,5.9c-1.5,0.7-3.5-0.1-5.1,0.4c-2.6,0.8-5,1.2-7.8,1.2c-2.8,0-5.3,0.5-8.1,1.2c-2,0.6-4.4,1.6-6.5,1.6
	c-1.3,0-2.8,0.6-4,0.3c-0.4-0.1-1-1.1-1.4-1.4"/>
<path class="st2" d="M56.8,71.6c-2.9,0-4.2-1.2-6.2-3.5c-1.2-1.4-3.9-3.2-4-5.4c-0.1-1.2-1.2-2.8-1.7-3.6c-2.1-3.2-4.4-6.3-6.9-9.2
	c-1.5-1.7-2.4-3.6-4.2-4.7c-1.9-1.2-4.7-1.4-6.9-2.1c-1.8-0.5-3-1.1-5-1.1c-1.8,0-3.9-0.4-5.6,0c-1.1,0.3-2.3,1.3-3.4,1.4
	c-0.4,0-4.3,0.4-2.8,1.2c3.3,1.8,5.5,3.8,8.3,6.5c2.9,2.8,5.6,5.7,8.5,8.5c2.7,2.6,5,5.8,8.2,7.7c2.4,1.4,4.9,2.8,7.7,2.8
	c1.9,0,3.8-0.4,5.7-0.4c1.7,0,6.9,0,5.2,0"/>
<path class="st2" d="M53.2,69.8c5.8-7.6,10.7-16.2,14.1-25.4c1.1-2.9,2.1-5.6,3.7-8.2c0.6-1.1,1.4-2,1.8-3.3c0.2-0.6,0.6-1.8,1-2"/>
<path class="st2" d="M69.7,29.9c0,2.7,0.3,5.2,0.3,7.8"/>
<path class="st2" d="M67,28.6c0,4.8-1.3,10.3,0.8,15"/>
<path class="st2" d="M62.2,36.1c0,3,0.5,5,1.9,7.5c0.5,1,1.6,2.1,1.9,3.1"/>
<path class="st2" d="M58.7,40.6c0,2.6,1.6,6,3,8c0.6,0.8,1.3,2.6,2.1,3"/>
<path class="st2" d="M54.7,46.1c0.9,3,2,4.8,4.1,7c0.8,0.8,2.3,2.1,2.8,3"/>
<path class="st2" d="M53.5,53.1c0.6,2,1.6,3.5,2.9,5c0.6,0.7,1.9,1.7,2.2,2.5"/>
<path class="st2" d="M52.3,60.2c1.7,0.4,2.5,1.4,4,2.1c0.7,0.3,1,1.1,1.8,1.1"/>
<path class="st3" d="M55.1,75.5c-0.5,1-1.8,1.3-2.7,0.8c-1-0.5-1.3-1.8-0.8-2.7c0.5-1,1.8-1.3,2.7-0.8
	C55.3,73.3,55.7,74.6,55.1,75.5z"/>
<circle class="st3" cx="59" cy="79.9" r="2.6"/>
<circle class="st3" cx="64.4" cy="73.3" r="2.3"/>
<circle class="st3" cx="69" cy="80.5" r="2.6"/>
<path class="st3" d="M64.2,87.5c0,1.4-1,2.5-2.2,2.5c-1.2,0-2.2-1.1-2.2-2.5c0-1.4,1-2.5,2.2-2.5C63.2,85,64.2,86.1,64.2,87.5z"/>
<circle class="st3" cx="44" cy="75.5" r="2.6"/>
<path class="st3" d="M53.5,81.5c0,1.2-1.1,2.3-2.6,2.3c-1.5,0-2.6-1.1-2.6-2.3c0-1.2,1.1-2.3,2.6-2.3C52.4,79.2,53.5,80.3,53.5,81.5
	z"/>
<path class="st4" d="M64,71.7c-2,0-4.1-0.1-6,0.9c-0.6,0.3-1.9,1.1-2.6,1.1"/>
<path class="st4" d="M67.8,79.2c-1.9,0-6.2,0.6-7-1.7c-0.5-1.5-1.7-2.5-2.3-3.8"/>
<path class="st4" d="M62.5,85c0-1.9,0.2-3.8,0.2-5.7"/>
<path class="st4" d="M58.2,77.2c0-1.2,0-2.4,0-3.6c0-0.6-0.4-1.1-0.4-1.6"/>
<path class="st4" d="M54,75.5l-1.9,3.6"/>
<path class="st4" d="M46.3,74.7c1.2,0,2.3-0.2,3.4-0.2c0.5,0,0.9-0.2,1.3-0.2"/>
<path class="st2" d="M10.1,44.8c5.7,0,9.4,5.3,14.2,8c2.8,1.6,6,2.3,8.8,4c1.6,0.9,3,2.1,4.3,3.5c1.4,1.5,3.3,2.3,4.9,3.4
	c1.1,0.8,2.5,1.7,3.8,2.2c1.2,0.5,2.7,1,3.7,1.7c0.6,0.4,1.2,1,1.9,1.2"/>
<path class="st2" d="M64.7,69.9c1.8,0,3.2-0.9,5-0.9c1.6-0.6,3.2-1.3,4.7-1.3c2.8-0.9,6-1.3,8.1-2.8c2-1.4,4.1-2.3,6.3-3.1
	c1.3-0.4,2.8-0.5,4-1.3"/>
<path class="st2" d="M15.2,43c0.9,1.8,2.1,3.4,3.1,5"/>
<path class="st2" d="M19.6,42.4c0.5,3.2,1.3,5.9,2.5,8.8"/>
<path class="st2" d="M23.8,43.5c0,1.8-0.4,4.5,0.5,6.1c0.6,1.1,1.2,2.3,1.7,3.4"/>
<path class="st2" d="M27.9,44.3c0,1.9-0.3,4.4,0.2,6.2c0.3,1.3,0.6,2.5,1,3.8"/>
<path class="st2" d="M31.7,45.5c0,3-0.8,8,1.1,10.6"/>
<path class="st2" d="M35.3,48.6c0,3.8,1.3,7.6,2.5,11.3"/>
<path class="st2" d="M39.5,53.5c0,2.3-0.3,4.6,0.5,6.7c0.3,0.8,0.8,1.8,0.8,2.8"/>
<path class="st2" d="M17.7,49.8h1.3"/>
<path class="st2" d="M20.9,53.6h3.4"/>
<path class="st2" d="M25.2,56.1l5-0.6"/>
<path class="st2" d="M26.7,59.2h9"/>
<path class="st2" d="M30.9,63.6l9.8,0.1"/>
<path class="st2" d="M40.9,66.8l5-0.6"/>
<path class="st2" d="M70.3,38l5,0.3"/>
<path class="st2" d="M69,41.1l8.8,0.6"/>
<path class="st2" d="M67.6,45.5H76"/>
<path class="st2" d="M65.3,49.9c2.6,0,5.2,0,7.8,0c0.6,0,1.1,0,1.6,0"/>
<path class="st2" d="M63.1,55.5h8.7"/>
<path class="st2" d="M60.9,59.2h5.6"/>
<path class="st2" d="M57.5,63.7l7.8-0.7"/>
<path class="st2" d="M71.5,67.9c0.4-1.2,1.3-1.9,1.6-3"/>
<path class="st2" d="M75.6,67.1c0.6-2.4,0.9-1.6,1.9-3.9"/>
<path class="st2" d="M80.3,65.5c0-1.6,0-3.8,1.9-4.4"/>
<path class="st2" d="M84,64.1c2.5,0,5,0.3,7.5,0.3c0.8,0,1.7-0.3,2.5-0.3"/>
<path class="st2" d="M78.3,66.5c2,0,4-0.1,5.9,0.3c1.1,0.2,2.2,0.4,3.3,0.4"/>
<path class="st2" d="M73.5,68.3c1.5,0,2.7,0.5,4.1,0.8c0.3,0.1,0.7,0,1,0"/>
<path class="st5" d="M41.5,75c0.2-1,0.9-1.6,1.9-1.9"/>
<path class="st5" d="M51.4,74.8c0.2-0.9,0.6-1.6,1.4-2"/>
<path class="st5" d="M62.6,74.9c-0.6-0.5-0.7-1.1-0.5-1.9"/>
<path class="st5" d="M67.5,81.9c-0.7-0.5-0.5-1.1-0.2-1.9"/>
<path class="st5" d="M56.4,80.3c0-1.2,0.7-1.9,1.8-2.5"/>
<path class="st5" d="M48.3,81.2c-0.1,0.8-0.1,1.4,0.8,1.6"/>
<path class="st5" d="M60,88.2c0.1,0.5,0.2,0.8,0.7,0.9"/>
</svg>
