<?xml version="1.0" encoding="utf-8"?>
<!-- Generator: Adobe Illustrator 26.0.2, SVG Export Plug-In . SVG Version: 6.00 Build 0)  -->
<svg version="1.1" id="Layer_1" xmlns="http://www.w3.org/2000/svg" xmlns:xlink="http://www.w3.org/1999/xlink" x="0px" y="0px"
	 viewBox="0 0 108 108" style="enable-background:new 0 0 108 108;" xml:space="preserve">
<style type="text/css">
	.st0{fill:#696157;stroke:#696157;}
	.st1{fill:#696157;}
	.st2{fill:#FFFFFF;}
	.st3{fill:none;stroke:#FFFFFF;stroke-linecap:round;}
</style>
<circle class="st0" cx="53.7" cy="53.7" r="53.2"/>
<path class="st1" d="M88.8,60.7c0-0.1,0.1-0.2,0.2-0.4c0.1-0.5,0.1-1.4,0.2-1.7c0.1-0.7,0-0.9,0-1.6c0-0.8-0.8-1.6-0.9-2.5
	c-1.1-1.2-2.2-1-3.3-1.2c-0.9-0.2-1.8-0.5-2.6-1c-0.5-0.4-1.3-0.5-1.9-0.6c-0.1,0-1.2-0.3-1.1-0.1c0.3,0.7,1.1,1.1,1.3,1.8
	c0.4,1.1,0.5,2.3,1,3.4c0.2,0.4,0.4,0.8,0.6,1.3c0,0.1,0.1,0.3,0.1,0.2c-0.4-0.2-0.9-0.6-1.4-0.5c-0.4,0.1-0.3,0.5-0.3,0.8
	c0.1,0.7,0.1,1.4,0.1,2.1c0,0.5,0.1,1-0.5,0.6c-0.1-0.1-0.9-1-1-0.9c-0.2,0.1,0.1,1,0,1.2c-0.1,0.4-0.3,0.8-0.3,1.2
	c0,1.2-0.3,2.1-0.1,3.3c0.1,1.1,0.4,2.3,0.6,3.4c0.2,0.9,0.8,2,1.2,2.8c0.8,1.2,1.7,1.7,2.7,2.7c0,0,2.7,0.4,3,1
	c0,0.2-1.9,0.6-2,0.6c-1.2,0.3-2.5,0.6-3.8,0.4c-1-0.1-2.2,0.1-3.1-0.5c0.2,0.3,0.4,0.6,0.4,0.9c0,0.4,0,0.5-0.4,0.4
	c-0.5-0.2-1.1-0.4-1.7-0.5c-0.3-0.1,0.4,1.3,0.5,1.5c0.1,0.7,0.2,1.3,0.4,1.9c0.2,0.6,0,1.1,0,1.7c0,0.4,0.1,2.8-0.4,2.7
	c-0.2,0-0.8-0.2-0.9-0.3c-0.3-0.5-0.2-1-0.5-1.5c-0.4-0.6-0.9-1.8-1.3-2.4c-0.3-0.5-0.4-1-0.7-1.5c-0.2-0.4-0.2,0.8-0.3,1.3
	c-0.1,0.7-0.3,1.5-0.3,2.2c0,0.5,0.2,2,0,1.5c-0.1-0.2-0.3-0.4-0.4-0.6c-0.2-0.3-1.1-1.8-1.5-1.3c-0.6,0.8-1.1,2.1-1.5,3
	c-0.5,1.1-0.8,2.1-1.1,3.2c-0.1,0.3-0.2,0.6-0.2,0.1c0-1-0.3-1.9-0.6-2.9c-0.3-0.8-0.5-1.6-0.8-2.4c0-0.1-0.3-1-0.3-0.9
	c-0.9,2.3-2.6,4.1-3.6,6.3c-0.4,0.8-0.1,1.8-0.1,2.7c0,0.2-0.2-0.1-0.3-0.1c-0.3-0.4-0.6-0.9-0.8-1.3c-0.4-0.8-1.1-1.4-1.5-2.2
	c-0.5-1-0.9-2.2-1.6-3c-0.5-0.6-1.4-1.5-2.2-1.8c-0.1,0-0.3,0.5-0.3,0.6c-0.2,0.6,0,1.2,0,1.8c-0.1,1.1-0.8,2.1-0.9,3.2
	c0,0.9,0,2.8,0.1,3.8c0,0.1,0,0.2,0,0.3c0,0.5,0,0.3,0-0.3c-0.1-0.5-0.4-1.1-0.6-1.5c-0.4-1.1-1-2.1-1.7-3c-0.8-0.9-1.6-1.9-2.3-2.9
	c-0.3-0.4-0.6-0.9-0.9-1.3c-0.1-0.1-0.6,0.7-0.6,0.8c-0.6,1.1-1.1,2.3-1.7,3.4c-0.3,0.6-0.8,1.1-1.1,1.7c-0.5,0.9-0.4,2-0.6,2.9
	c0,0.4-0.2-0.8-0.3-1.2c-0.1-0.6-0.4-1.2-0.6-1.7c-0.7-1.3-1.3-2.7-1.9-4c-0.1-0.1-0.6-1.3-0.6-1.2c-0.1,0.3-0.1,0.5-0.1,0.8
	c-0.1,0.5-0.1,1.1-0.1,1.6c-0.1,1-0.5,1.9-0.8,2.9c-0.1,0.4-0.4,2.3-0.7,1.1c-0.2-0.7-0.3-1.4-0.5-2.2c-0.6-1.8-1.5-3.5-1.9-5.3
	c-0.1-0.2-0.3-1.4-0.6-0.8c-0.3,0.6-0.4,1.3-0.7,1.9c-0.1,0.3-0.5,1.9-0.5,0.9c0-0.5-0.1-1.1-0.2-1.6c-0.1-0.5-0.2-0.9-0.3-1.4
	c-0.1-0.4-0.3-0.7-0.4-1.1c-0.1-0.7,0.3-2-0.3-2.6c0,0-1.2,1-1.3,1.1c-0.6,0.5-1,1.2-1.4,1.9c-0.3,0.5-0.8,1.4-1.3,1.7
	c-0.2,0.4-0.8,0.3-0.9,0.7c-0.1,0.3-0.5,0.8-0.8,1.1c-0.3,0.4-0.6,1-1,1.3c-0.4,0.3-1-2.2-1.1-2.3c-0.7-2.1-0.8-4.5-1.6-6.6
	c-0.4-1-1.1-0.2-1.5,0.4c-0.3,0.7-0.4,1.4-0.6,2.2C23,80.5,23,80,23,79.9c-0.2-1-0.3-2.1-0.6-3.1c-0.5-1.3-0.9,0.4-1.1,0.9
	c-0.2,0.9-0.1-0.3-0.1-0.6c0-0.5,0-1-0.1-1.6c-0.1-0.3-0.4-2.8-0.7-2.8c-0.4,0-1,2.1-1.2,2.1c-0.2,0,0.2-1.1,0.2-1.2
	c0.1-0.8,0-1.6,0.2-2.4c0.2-0.7,0.4-1.5,0.4-2.3c0-0.2,0.1-2.8,0-2.8c-0.2,0-0.7,0.7-0.8,0.8c-0.5,0.6-0.9,1.1-1.3,1.8
	c-0.4,0.6-0.3,0.4-0.2-0.1c0.2-0.8,0.4-1.6,0.5-2.3c0.1-1.2,0.2-2.5,0.2-3.7c0-0.2,0.1-2-0.4-1.3c-0.1,0.1-0.4,0.8-0.4,0.6
	c0.1-0.3,0.2-0.6,0.3-0.8c0-0.2,0-1.6-0.2-1.5c-0.6,0.5-2,2.6-1.6,1.8c0.3-0.6,0.3-1.3,0.5-1.9c0.3-0.9,0.6-1.7,0.9-2.5
	c0.3-1.2-0.7-0.1-1,0.3c-0.4,0.4-1.1,1.1-0.7,0.1c0.3-0.8,0.7-1.6,1-2.4c0.3-0.7-0.1-1-0.1-1.6c0-0.4,0.2-0.9,0.4-1.3
	c0.7-1.2,1.3-2.5,2.1-3.6c0.3-0.4,1.5-1.9,1.2-2.5C20.3,45.8,19,47,18.9,47c-0.4,0.4-1,1-1.5,1.3c-0.1,0-0.5,0.2-0.5,0
	c0.2-0.7,0.8-1.4,1.2-2c0.6-0.7,1.3-1.3,1.8-2c0.4-0.6,1.1-0.9,1.6-1.4c0.7-0.7,1-2.4,0.6-3.2c-0.4-0.7,0.4-1.4,0.5-2.1
	c0.2-0.8,0.8-0.5,1.4-1.1c0.4-0.4,0.7-0.8,1.2-1.1c0.6-0.4,1.6-0.7,2-1.4c0.5-0.9-1.5-0.6-1.8-0.5c-0.2,0.1-2.6,0.8-2.5,0.5
	c0.1-0.4,0.8-1,1.2-1.2c0.4-0.2,0.8-0.5,1.2-0.7c0.4-0.2,1.1-0.4,1.4-0.8c0.2-0.4,0.6-0.7,0.8-1.1c0.3-0.5,1.1-0.4,1.6-0.9
	c0.3-0.3-0.3-0.3,0-0.6c0.3-0.4,0.8-0.9,1.2-1.2c0.3-0.2,1-0.5,1-0.9c0-0.2-0.2-0.4,0.1-0.5c1.2-0.5,2.4-0.3,3.7-0.5
	c0.6-0.1,1.2-0.3,1.7-0.6c0.1-0.1,0.4-0.2,0.1-0.2c-0.6,0-1.3,0.1-1.9-0.3c-0.8-0.5,1-0.6,1.3-0.7c0.4-0.1,0.9,0,1.3,0
	c0.4,0,0.6-0.1,1-0.3l0,0c0.1-0.1,1.2-0.4,0.6-0.4c-0.7,0-1.8-0.9-1.3-1.7c0.2-0.3,1.9,0.2,2,0.7c0.1,0.3,1.1,0.3,1.3,0.3
	c0.5,0,0.9-0.1,1.3-0.1c0.4,0,1.5-0.2,0.8-0.6c-0.4-0.2-0.3-0.5,0.1-0.5c0.6-0.1,1.1-0.4,1.6-0.5c0.7-0.1,1.5,0,2.2,0
	c0.4,0,0.7,0,1.1-0.1c0.2-0.1,0.4-0.4,0.6-0.4c0.2-0.1,0.6,0,0.8,0.1c0.2,0.1,0.7,0.3,0.3,0c-0.2-0.2-0.7-0.5-0.7-0.8
	c0-0.3,1.3,0,1.5,0c0.5,0.1,1.1,0.3,1.6,0.5c0.1,0,0.8,0.3,0.8,0.3c0,0-0.3-0.2-0.1-0.2c0.2-0.1,0.5,0,0.7,0
	c0.7,0.1,1.6,0.5,2.3,0.3c0.7-0.2,1.4-0.4,2.1-0.4c0.3,0,0.5-0.1,0.7-0.2c0.3-0.2,0.7-0.1,1.1,0l0,0c0.7,0.2,1.5,0.4,2.2,0.5
	c0.1,0,0.7,0.1,0.8,0.2c0.1,0.1,0.6,0.1,0.6,0c0.1-0.1-0.1-0.2-0.1-0.3c0.1-0.1,0.4,0,0.5,0c0.7,0,1.3,0.1,2,0.4
	c0.5,0.2,1.2,0.2,1.8,0.4c1.5,0.4,3,0.7,4.6,0.7c0.3,0,0.5,0.2,0.8,0.3c0.4,0.2,0-0.1,0.3-0.2c0.4-0.1,0.9,0,1.2,0.2
	c0.1,0.1,0.2,0.5,0.3,0.4c0.1-0.1,0.1-0.6,0.2-0.7c0.1-0.5,0.6,0.8,0.7,0.9c0.3,0.4,0.5,0.9,0.8,1.4c0.3,0.6,1,1.2,1.2,1.8
	c0.3,1,0.6-0.2,0.7-0.5c0.1-0.3,0.1-0.4,0.4-0.1c0.1,0.1,0.3,0.3,0.3,0.5c0.1,0.5,0.5,0.9,0.5,1.4c0,0.3,0.5,1.2,0.7,1.5
	c0.4,0.8,0.7-0.4,0.8-0.1c0.2,0.3,0.2,1,0.2,1.3c0,0.1,0.2,0.6,0.2,0.7c0.1,0.1,0.3-0.2,0.5-0.2c0.5,0,0.9,0.1,1.1,0.5
	c0.3,0.4,0.6,0.9,0.7,1.3c0.1,0.4,0.2,1.1,0.4,1.5c0.6,1-0.3,1.8-0.1,2.8c0.2,1.1,1.3,1,1.9,1.7c0.6,0.7,1.7,1.1,2.2,2
	c0.5,0.9,1.6,1.6,2,2.5c0.5,1.1,0.7,2.2,1.2,3.3c0.3,0.7,1,1.7,1,2.6c0.1,2.1-1.3,3.9-1.3,5.9c0,1-1.7,4.4-2.4,5.8
	C88.9,60.5,88.8,60.6,88.8,60.7z"/>
<path class="st1" d="M78.5,41.2c0.7-0.9,2-1.9,2-1c-0.4,1.4-1.3,2.8-2.1,2.8C77.6,43,78.1,41.7,78.5,41.2z"/>
<path class="st2" d="M62.4,37.6c0.3,0.3,0.3,0.3,0.4,0.8c0.1,0.3,0.1,0.9-0.1,1.2c-0.1,0.3-0.3,0.5-0.5,0.7
	c-0.4,0.6-1.2,0.8-1.9,0.8c-0.7,0-1.2-0.3-1.8-0.5c-0.4-0.1-1.4-0.8-1.4-1.4c0-0.6,0.2-1.8,0.7-2.1c0.4-0.5,1-1,1.7-1
	c0.3,0,0.9,0,1.4,0.3c0.6,0.4,0.4,0.3,0.7,0.5C61.9,37.1,62.1,37.4,62.4,37.6z"/>
<path class="st1" d="M59.6,37.7c0.8-0.6,1.6-0.3,2,0.6c0,0.4-0.1,1.6-0.8,1.6c-0.5,0-1.2-0.2-1.5-0.7C59,38.7,59.1,38,59.6,37.7z"/>
<path class="st2" d="M48.2,21.6c0,0,0.1,0,0.1,0c-0.4-0.2-1-0.4-0.8-0.2C47.8,21.4,48,21.5,48.2,21.6z"/>
<path class="st2" d="M16.5,62c-0.1,0.3-0.3,0.6-0.2,0.5C16.3,62.3,16.4,62.2,16.5,62c0.5-0.7,1.4-1.5,2-2c0.9-0.8,1.9-1.5,2.7-2.4
	c0.1-0.2,0.4-0.4,0.2,0c-0.5,0.9-1.3,1.7-1.9,2.5c-1,1.4-1.6,3.1-2.3,4.7c-0.1,0.2-0.2,0.5-0.3,0.7c-0.1,0.3-0.3,0.6-0.5,0.9
	c0,0.1,0.2-0.6,0.3-0.8c0.2-0.3,0.3-0.5,0.5-0.8c0.6-1.6,1.3-3.3,2.3-4.7c0.6-0.9,1.4-1.6,1.9-2.5c0.2-0.4-0.1-0.1-0.2,0
	c-0.7,0.9-1.8,1.6-2.7,2.4C18,60.5,17,61.3,16.5,62z"/>
<path class="st2" d="M76.2,76.5C76,76.2,76.1,76.3,76.2,76.5L76.2,76.5z"/>
<path class="st2" d="M80.5,40.2l0.5,0.1l0-0.1v-0.1H80.5z M78.5,41.2l0.4,0.3l0,0L78.5,41.2z M79.1,35.6c-0.3,0-0.5,0.2-0.5,0.5
	c0,0.3,0.2,0.5,0.5,0.5V35.6z M86.1,39.2l0.2-0.4L86.1,39.2z M89.3,41.8L89,42.1L89.3,41.8z M91.5,46.2l0.4-0.2L91.5,46.2z
	 M92.2,50.6l-0.5-0.2l0,0L92.2,50.6z M90.9,55.2l0.5,0.1L90.9,55.2z M89.3,59.3l0.4,0.2L89.3,59.3z M88.4,60.6l-0.3-0.4l0,0
	L88.4,60.6z M88.6,59.1l0.5,0.1L88.6,59.1z M88.4,54.8l-0.3,0.4L88.4,54.8z M88.1,53.8l-0.5,0.1l0,0L88.1,53.8z M87.5,52.9l-0.5,0.2
	L87.5,52.9z M86.7,51.4l-0.4,0.3L86.7,51.4z M84.9,50.5L85,50L84.9,50.5z M82.9,49.7l-0.2,0.5L82.9,49.7z M80.7,49.1l0,0.5
	L80.7,49.1z M79.4,48.9l0-0.5L79.4,48.9z M78,48.7l0.2-0.5L78,48.7z M75.3,48.3l0.2-0.5L75.3,48.3z M73.7,48.1l-0.1,0.5L73.7,48.1z
	 M72.5,47.7l0.1-0.5L72.5,47.7z M59.7,47.3l0.1,0.5L59.7,47.3z M58.8,47.6l-0.2-0.4L58.8,47.6z M58.1,48.3c0.1,0.3,0.4,0.4,0.6,0.3
	s0.4-0.4,0.3-0.6L58.1,48.3z M65.4,52.9c-0.3,0-0.5,0.2-0.5,0.5c0,0.3,0.2,0.5,0.5,0.5V52.9z M71.6,51.9l0.1,0.5L71.6,51.9z
	 M79.4,51.4l0.2-0.5L79.4,51.4z M84.1,52.7l0.2-0.5L84.1,52.7z M85.3,53l0,0.5L85.3,53z M86.2,53.2l0.3-0.4L86.2,53.2z M88,54.2
	c0.3,0,0.5-0.2,0.5-0.5c0-0.3-0.2-0.5-0.5-0.5V54.2z M58.4,49.1c-0.3,0-0.5,0.3-0.4,0.6c0,0.3,0.3,0.5,0.6,0.4L58.4,49.1z
	 M69.5,49.4l-0.1,0.5L69.5,49.4z M68.7,50.9l-0.3-0.4L68.7,50.9z M66.2,51.9L66,51.5L66.2,51.9z M63.8,52.9l-0.2-0.4L63.8,52.9z
	 M61.8,53.7c0,0.3,0.2,0.5,0.5,0.5c0.3,0,0.5-0.2,0.5-0.5H61.8z M62.8,38.4l-0.5,0.2l0,0L62.8,38.4z M62.4,37.6L62,38L62.4,37.6z
	 M61.7,36.9l0.4-0.3l0,0l0,0L61.7,36.9z M61,36.4l0.3-0.4l0,0l0,0L61,36.4z M57.9,37.1l0.3,0.4l0.1,0l0-0.1L57.9,37.1z M58.6,40.7
	l0.2-0.5L58.6,40.7z M62.3,40.3l0.4,0.3L62.3,40.3z M62.8,39.6l0.4,0.2l0,0L62.8,39.6z M61.6,38.2h0.5v-0.1L62.1,38L61.6,38.2z
	 M59.6,37.7l0.3,0.4L59.6,37.7z M59.3,39.2l0.4-0.2L59.3,39.2z M66.4,39.1c0.2,0.1,0.5,0.1,0.7-0.2c0.1-0.2,0.1-0.5-0.2-0.7
	L66.4,39.1z M64.3,37.5L64.2,38L64.3,37.5z M63,36.2l-0.4,0.3L63,36.2z M61.1,35.2l0.1-0.5L61.1,35.2z M59.3,35.1l-0.2,0.5
	L59.3,35.1z M57.4,35l0.1,0.5L57.4,35z M54.3,36.1l0.1,0.5L54.3,36.1z M49.9,36.7c0.1,0.2,0.4,0.4,0.7,0.2c0.2-0.1,0.4-0.4,0.2-0.7
	L49.9,36.7z M64.2,41.7c0.3,0,0.5-0.3,0.4-0.6c0-0.3-0.3-0.5-0.6-0.4L64.2,41.7z M57.7,41.1l0.3-0.4L57.7,41.1z M55.9,39.8l-0.2,0.4
	l0,0L55.9,39.8z M53.6,38.8c0,0.3,0.2,0.5,0.5,0.5s0.5-0.2,0.5-0.5H53.6z M83.6,37.4c0,0.3,0.2,0.5,0.5,0.5c0.3,0,0.5-0.2,0.5-0.5
	H83.6z M84,34l0.5,0.2h0L84,34z M83.8,33.3l-0.5,0.2l0,0L83.8,33.3z M83.8,32.2l-0.4,0.4l0,0L83.8,32.2z M82,31.3l0.2,0.5L82,31.3z
	 M80.6,29.9l0.4,0.4l0,0L80.6,29.9z M80.4,28.8l0.5-0.2l0,0L80.4,28.8z M79.2,26L79,26.4l0,0L79.2,26z M79.2,26l0.2-0.4l0,0L79.2,26
	z M78.4,26.3l-0.5-0.2l0,0L78.4,26.3z M77.9,27.3l-0.4-0.2l0,0L77.9,27.3z M77.3,26l0.5-0.2l0,0L77.3,26z M76.6,24.3l0.5-0.2l0,0
	L76.6,24.3z M75.9,23.1l-0.5,0.2l0,0L75.9,23.1z M75.3,23.1l0.5,0.2l0,0L75.3,23.1z M74.8,23.3l0.4-0.3l0,0L74.8,23.3z M74.3,22.2
	l-0.4,0.2l0,0L74.3,22.2z M73.6,23.1l0.5,0l0,0L73.6,23.1z M73.3,23.3l-0.5,0.2l0,0L73.3,23.3z M73.3,23.3l0.5-0.2l0,0L73.3,23.3z
	 M72.3,21.9l-0.2,0.4L72.3,21.9z M71.7,22.4l-0.5,0.1L71.7,22.4z M71.4,23.1l0.3-0.4l0,0L71.4,23.1z M70.7,23.1l-0.5,0l0,0
	L70.7,23.1z M70.7,23.3l0.4-0.3l0,0L70.7,23.3z M70,22.3l0.4-0.4l0,0L70,22.3z M68.8,21.6l0-0.5L68.8,21.6z M68.6,22.3l-0.4,0.3l0,0
	L68.6,22.3z M68,22.3l0.3-0.4l0,0L68,22.3z M66.7,21.7l-0.1,0.5L66.7,21.7z M66.9,22.4l-0.4,0.3l0,0L66.9,22.4z M66.2,22.2l0.3-0.4
	l0,0L66.2,22.2z M63.7,20.9l-0.1,0.5l0,0L63.7,20.9z M64.1,22.2l-0.1,0.5L64.1,22.2z M60.8,21l-0.3,0.4l0,0L60.8,21z M60.1,21.5
	L59.9,22l0,0L60.1,21.5z M58.6,21.2l0.5,0.1l0,0L58.6,21.2z M58.3,21.7L58,22.2l0,0L58.3,21.7z M56.2,20.8l-0.1,0.5L56.2,20.8z
	 M56.2,21.8l-0.3,0.4L56.2,21.8z M52.4,20.4l0.2-0.5l0,0L52.4,20.4z M51.8,20l0.2-0.4l0,0L51.8,20z M51.1,19.8l0.3-0.4l0,0
	L51.1,19.8z M51.4,20.8l0.4-0.3l0,0L51.4,20.8z M51.8,21.7l0.2-0.4L51.8,21.7z M50.7,20.9l0.3-0.4l0,0L50.7,20.9z M48.2,21.6
	l-0.1,0.5L48.2,21.6z M47.6,21.3l0.2-0.4l0,0L47.6,21.3z M48.5,21.7l-0.2,0.4L48.5,21.7z M48.3,21.9l0.2-0.5L48.3,21.9z M45.1,21.8
	l-0.2-0.5L45.1,21.8z M44.7,22.3l0.3-0.4l0,0L44.7,22.3z M46.2,23.4l-0.5-0.1L46.2,23.4z M43.5,23.1l0,0.5L43.5,23.1z M42.2,22.9
	l-0.4,0.3L42.2,22.9z M42.5,23.9c0,0.3,0.2,0.5,0.5,0.5c0.3,0,0.5-0.2,0.5-0.5H42.5z M42.4,24.2c0.2,0.2,0.5,0.2,0.7,0
	c0.2-0.2,0.2-0.5,0-0.7L42.4,24.2z M39.7,22.5l-0.2,0.5L39.7,22.5z M38.7,22.9l0.4-0.3L38.7,22.9z M39.8,23.9l-0.2,0.4l0,0
	L39.8,23.9z M40.6,24.3L41,24l0,0L40.6,24.3z M38.8,24.6l0-0.5L38.8,24.6z M36.5,25.2l-0.4,0.3L36.5,25.2z M38.1,26L38,26.5L38.1,26
	z M36.3,26.2l0.1,0.5L36.3,26.2z M33.6,27l-0.1-0.5L33.6,27z M32.3,27.1l0,0.5L32.3,27.1z M34.6,27.6l-0.1-0.5L34.6,27.6z
	 M29.5,29.1l0.2,0.5L29.5,29.1z M32.2,29.5l0.1,0.5L32.2,29.5z M29.1,30.6l0.2,0.5l0,0L29.1,30.6z M29.1,30.6l0.2,0.5h0L29.1,30.6z
	 M27.9,31.5l0.4,0.2L27.9,31.5z M29,31.5L28.9,31L29,31.5z M30.2,31.4l0.2,0.4L30.2,31.4z M27.1,32.9l0.2,0.5L27.1,32.9z M24.8,33.9
	l0.3,0.4L24.8,33.9z M23.9,34.9l0-0.5L23.9,34.9z M28.7,34l0-0.5l0,0L28.7,34z M28.8,34.4l0.3,0.4l0,0L28.8,34.4z M24.5,37.6
	l0.3,0.4l0,0L24.5,37.6z M23.3,38.2l0-0.5L23.3,38.2z M25.9,37.1l0.2,0.5L25.9,37.1z M29.5,35.4l0.2,0.4L29.5,35.4z M30.1,35.3
	l0.2,0.5L30.1,35.3z M28.4,36.5L28.1,36l0,0L28.4,36.5z M25.3,38.5l0.3,0.4L25.3,38.5z M23.4,39.9l-0.2-0.4l0,0L23.4,39.9z
	 M21.3,41.5l-0.4-0.3l0,0L21.3,41.5z M21.2,42.1l-0.3,0.4l0,0L21.2,42.1z M23.5,40.8l-0.3-0.4l0,0L23.5,40.8z M25.8,39.4L25.5,39
	L25.8,39.4z M25.6,40l0.4,0.3l0,0L25.6,40z M25.5,40.1l0.4,0.3l0,0L25.5,40.1z M23.5,42.3L23.1,42L23.5,42.3z M23.1,43.2l-0.3-0.4
	l0,0L23.1,43.2z M24.3,42.3L24,41.9l0,0L24.3,42.3z M25.7,41.4L25.5,41l0,0L25.7,41.4z M24.5,42.7l0.3,0.4l0,0L24.5,42.7z
	 M21.9,44.4L21.6,44L21.9,44.4z M18.1,48l-0.5-0.2L18.1,48z M18.2,48.5l0.1,0.5l0,0L18.2,48.5z M21.3,46.6l0.3,0.4L21.3,46.6z
	 M23.5,45.2l0.2,0.4l0,0L23.5,45.2z M23,46.1l0.4,0.3l0,0L23,46.1z M19.1,51.3l0.4,0.3L19.1,51.3z M17.5,53.5l-0.4-0.3l0,0
	L17.5,53.5z M17,54.4l0.3,0.4l0,0L17,54.4z M19.5,52.2l-0.3-0.4l0,0L19.5,52.2z M19.8,52.5l-0.4-0.3l0,0L19.8,52.5z M16.1,58.1
	l-0.4-0.2l0,0L16.1,58.1z M15.9,58.7l-0.3-0.4l0,0L15.9,58.7z M17.9,56.7l-0.3-0.4l0,0L17.9,56.7z M19.6,55.5l-0.3-0.4h0L19.6,55.5z
	 M19.6,56l-0.4-0.3v0L19.6,56z M16.8,61.4l-0.5-0.2l0,0L16.8,61.4z M16.3,62.5l0.5,0.1l0,0L16.3,62.5z M18.5,60l0.3,0.4l0,0L18.5,60
	z M21.2,57.6l-0.4-0.3l0,0L21.2,57.6z M21.4,57.6l0.4,0.2L21.4,57.6z M19.5,60.1l0.4,0.3L19.5,60.1z M17,65.5l-0.5-0.2l0,0L17,65.5z
	 M16.6,66.4l0.5,0.2l0,0L16.6,66.4z M16.8,65.6l0.4,0.2l0,0L16.8,65.6z M21.2,59.5l0.4,0.3l0,0L21.2,59.5z M21.2,59.5l0.4,0.3l0,0
	L21.2,59.5z M21.7,59.1l-0.5-0.2L21.7,59.1z M20.9,61.1l0.5,0.1L20.9,61.1z M19.1,66.8l-0.5-0.2l0,0L19.1,66.8z M19,67.1l-0.5-0.2
	l0,0L19,67.1z M18.9,68.6l-0.5-0.1L18.9,68.6z M18.4,70.5L18,70.4L18.4,70.5z M18.8,70.3l0.4,0.3l0,0L18.8,70.3z M21.6,66.8l0.4,0.3
	l0,0L21.6,66.8z M22.5,65.8l0.4-0.2l0,0L22.5,65.8z M22,67.8l-0.5-0.2L22,67.8z M20.4,73.3l-0.5,0L20.4,73.3z M20.4,75L20,74.7l0,0
	L20.4,75z M21.4,73.6l0.4,0.3l0,0L21.4,73.6z M22.5,72.4L22,72.3L22.5,72.4z M22.2,77.8l-0.5,0.1L22.2,77.8z M23,76l0.5,0.2l0,0
	L23,76z M23.5,75.2l0.5-0.1L23.5,75.2z M23.9,78l0.5,0L23.9,78z M24.2,79.8l-0.5-0.1L24.2,79.8z M25.4,77.2l-0.4-0.3L25.4,77.2z
	 M25.4,78.7l-0.5,0L25.4,78.7z M27.4,77c0.1-0.2,0.1-0.5-0.2-0.7c-0.2-0.1-0.5-0.1-0.7,0.2L27.4,77z M27.6,76.7
	c0-0.3-0.3-0.5-0.6-0.4c-0.3,0-0.5,0.3-0.4,0.6L27.6,76.7z M28.8,85.6l-0.5,0.2L28.8,85.6z M29.1,87l0.3-0.4l0,0L29.1,87z M30,85.7
	l-0.4-0.3l0,0L30,85.7z M31.3,84.1l0.3,0.4L31.3,84.1z M35.7,78.5l0.5,0.2L35.7,78.5z M37.2,74.8l0.5,0.2L37.2,74.8z M38.3,73.2
	c0-0.3-0.2-0.5-0.5-0.5c-0.3,0-0.5,0.2-0.5,0.5H38.3z M36.5,77.7c0-0.3-0.2-0.5-0.5-0.5c-0.3,0-0.5,0.2-0.5,0.5H36.5z M36.9,85.2
	l0.5-0.1L36.9,85.2z M37.4,85.5l0.4,0.4L37.4,85.5z M38,83.7l0.4,0.3l0.1-0.1l0-0.1L38,83.7z M39,80.7l-0.5-0.2L39,80.7z M41,74.7
	c0-0.3-0.2-0.5-0.5-0.5c-0.3,0-0.5,0.2-0.5,0.5H41z M45.4,68.3c0-0.3-0.2-0.5-0.4-0.5c-0.3,0-0.5,0.2-0.5,0.4L45.4,68.3z M45.7,76.6
	l0.3,0.4L45.7,76.6z M49.5,72.4l0.4,0.3L49.5,72.4z M52.1,67.6c0.1-0.3-0.1-0.5-0.4-0.6c-0.3-0.1-0.5,0.1-0.6,0.4L52.1,67.6z
	 M56.5,67.4c0-0.3-0.3-0.5-0.6-0.4c-0.3,0-0.5,0.3-0.4,0.6L56.5,67.4z M57,72.4l0.5-0.2l0,0L57,72.4z M57.6,73l-0.5-0.2L57.6,73z
	 M59.5,69.6l0.5,0.2L59.5,69.6z M60.2,67.7c0.1-0.3,0-0.5-0.3-0.6c-0.3-0.1-0.5,0-0.6,0.3L60.2,67.7z M60.2,69.3
	c0-0.3-0.3-0.5-0.6-0.4c-0.3,0-0.5,0.3-0.4,0.6L60.2,69.3z M61.7,74.7l-0.5,0.2L61.7,74.7z M62.5,76.9l0.4-0.3L62.5,76.9z M63,75.8
	l0.5,0.1L63,75.8z M63.5,71.9l0.5,0L63.5,71.9z M64,68.6c0-0.3-0.2-0.5-0.5-0.5c-0.3,0-0.5,0.2-0.5,0.5H64z M69.5,78.1
	c-0.1-0.3-0.3-0.4-0.6-0.4c-0.3,0.1-0.4,0.3-0.4,0.6L69.5,78.1z M71,81.7l0.5-0.1l0-0.1l-0.1-0.1L71,81.7z M72.1,83.8l-0.5,0.1
	L72.1,83.8z M72.5,79.8l0.5,0L72.5,79.8z M72.7,78.6l0.3,0.4L72.7,78.6z M73.4,79.6L73,79.9L73.4,79.6z M75.3,83.7l-0.4,0.3
	L75.3,83.7z M76.5,85.1l-0.3-0.4l0,0L76.5,85.1z M76.8,83.6l-0.5-0.1L76.8,83.6z M77,80.6l-0.5,0L77,80.6z M76.7,77.9l0.5-0.1
	L76.7,77.9z M76.3,76.7l0.5-0.1l0,0L76.3,76.7z M76.2,76.5l0.3-0.4l0,0L76.2,76.5z M77.8,77.3l-0.2,0.5L77.8,77.3z M78.4,77.3
	L78,77.5L78.4,77.3z M77.2,75.7l0.4-0.3L77.2,75.7z M80.5,76.3l0.2-0.5l0,0L80.5,76.3z M86.1,76.2l-0.2,0.4l0,0L86.1,76.2z
	 M83.6,75.1l-0.3,0.4L83.6,75.1z M81.7,73.9l0.3-0.4L81.7,73.9z M80.9,72.4l-0.5,0L80.9,72.4z M80.2,70.1l0.5-0.1L80.2,70.1z
	 M79.5,67.6L79,67.7L79.5,67.6z M79,63.8l-0.5-0.1L79,63.8z M79.6,60.1l0.4-0.3L79.6,60.1z M80.6,61.2l-0.3,0.4L80.6,61.2z
	 M81.8,58.7l-0.3,0.4L81.8,58.7z M82.2,58.8l0.4-0.2L82.2,58.8z M81.1,56.8l0.4-0.2L81.1,56.8z M81.6,56.3l-0.4,0.3L81.6,56.3z
	 M80.3,54.4l-0.3,0.4L80.3,54.4z M80,51.7c0-0.3-0.3-0.5-0.5-0.5c-0.3,0-0.5,0.3-0.5,0.5L80,51.7z M60.6,31.9c0.2,0.2,0.5,0.2,0.7,0
	c0.2-0.2,0.2-0.5,0-0.7L60.6,31.9z M56,29.5l0.1-0.5L56,29.5z M55.3,29.3l0.2-0.5L55.3,29.3z M57,30.6l-0.4,0.3L57,30.6z M57.8,31.8
	L57.4,32l0,0L57.8,31.8z M56.8,31.7l-0.3,0.4L56.8,31.7z M54.1,30.8l0.1-0.5L54.1,30.8z M52.1,30.8l-0.2-0.5L52.1,30.8z M52.9,31
	l-0.1,0.5L52.9,31z M54.9,32l-0.3,0.4L54.9,32z M51.4,32.3l-0.1,0.5L51.4,32.3z M49.4,32.5l0.3,0.4L49.4,32.5z M53.1,34.1
	c0.3,0.1,0.5,0,0.7-0.3s0-0.5-0.3-0.7L53.1,34.1z M43.1,39.8c0.3,0,0.5-0.2,0.5-0.5c0-0.3-0.2-0.5-0.5-0.5V39.8z M36.9,39.6
	l-0.2-0.5L36.9,39.6z M35.3,40.6l0.3,0.4L35.3,40.6z M35.7,40.4l0.2,0.5L35.7,40.4z M37.1,40.1l0,0.5L37.1,40.1z M40.9,40.3l0.1-0.5
	L40.9,40.3z M41.9,40.4l0.3,0.4L41.9,40.4z M39.6,41.4l-0.2-0.5L39.6,41.4z M37.2,42.8l-0.4-0.3L37.2,42.8z M38.8,42.5L38.7,42
	L38.8,42.5z M40.8,42.1l0.1,0.5h0L40.8,42.1z M41.8,42l-0.5-0.2l0,0L41.8,42z M39.9,43.1l-0.2-0.4L39.9,43.1z M36.6,45.1l0.2,0.4
	L36.6,45.1z M36.2,45.5l0-0.5L36.2,45.5z M39.3,44.4l-0.2-0.5L39.3,44.4z M42.7,43.5c-0.2,0.2-0.2,0.5,0,0.7c0.2,0.2,0.5,0.2,0.7,0
	L42.7,43.5z M33.4,50.4c0.2-0.1,0.3-0.5,0.2-0.7c-0.1-0.2-0.5-0.3-0.7-0.2L33.4,50.4z M28.4,53.1l-0.3-0.4l0,0L28.4,53.1z
	 M28.4,54.1l0.2,0.5l0,0L28.4,54.1z M31.4,53.1l-0.1-0.5L31.4,53.1z M37.4,51.6l0.1,0.5l0,0L37.4,51.6z M37.4,51.6l-0.1-0.5h0
	L37.4,51.6z M38,51.9l-0.2-0.4L38,51.9z M33.5,55l0.3,0.4L33.5,55z M29.8,58.1l0.4,0.3L29.8,58.1z M31.3,57.8l0.2,0.4L31.3,57.8z
	 M36,55.9l-0.2-0.5L36,55.9z M35.5,56.6l-0.4-0.3L35.5,56.6z M34,59.7l0.5,0.2L34,59.7z M33.7,60.6l-0.3-0.4l0,0L33.7,60.6z
	 M37.8,56.5l-0.3-0.4L37.8,56.5z M42.3,53.8c0.3-0.1,0.4-0.4,0.3-0.6c-0.1-0.3-0.4-0.4-0.6-0.3L42.3,53.8z M48.3,56
	c0.2-0.1,0.3-0.4,0.2-0.7c-0.1-0.2-0.4-0.3-0.7-0.2L48.3,56z M44.1,60.8l0.4,0.2L44.1,60.8z M43.6,62l0.3,0.4L43.6,62z M46.8,59.4
	l0.3,0.4L46.8,59.4z M49,58.1l-0.4-0.3L49,58.1z M47.9,61l-0.5-0.1L47.9,61z M48.6,61.9l0.4,0.3L48.6,61.9z M50.8,58.7l0.4,0.3
	L50.8,58.7z M51.1,58.9l-0.5-0.2L51.1,58.9z M50.6,60.7l-0.5-0.1L50.6,60.7z M51.3,61l-0.4-0.3L51.3,61z M55.3,56.9L55,56.5
	L55.3,56.9z M56.2,55.8c-0.2-0.1-0.5,0-0.7,0.2s0,0.5,0.2,0.7L56.2,55.8z M76.4,35.2c0.2-0.2,0.2-0.5,0-0.7c-0.2-0.2-0.5-0.2-0.7,0
	L76.4,35.2z M75.1,37.5l-0.5-0.1L75.1,37.5z M74.6,38.1l-0.5,0.2L74.6,38.1z M73.2,35.6l0.4,0.3L73.2,35.6z M73.5,37.5l-0.4,0.2
	L73.5,37.5z M73.5,38.3l-0.2,0.5L73.5,38.3z M71.3,37.2l-0.2,0.4L71.3,37.2z M70.2,36.6l0.5-0.1L70.2,36.6z M71.5,38.2l-0.4,0.3
	L71.5,38.2z M71.5,38.5L71.3,39L71.5,38.5z M66.1,38.1c0,0.3,0.2,0.5,0.5,0.5c0.3,0,0.5-0.2,0.5-0.5H66.1z M75.9,40.5
	c0-0.3-0.2-0.5-0.5-0.5c-0.3,0-0.5,0.2-0.5,0.5L75.9,40.5z M75.8,41.9l0.5,0L75.8,41.9z M75.7,42.8l0.5-0.1l0,0L75.7,42.8z M76,43.7
	l0.4,0.3l0,0L76,43.7z M75.4,44.1l0.4-0.2L75.4,44.1z M72,45.1l0.1-0.5L72,45.1z M67.9,44.8l-0.3-0.4L67.9,44.8z M64.9,45.5l0.2,0.5
	L64.9,45.5z M61.2,47c0.1,0.3,0.4,0.4,0.7,0.2c0.3-0.1,0.4-0.4,0.2-0.7L61.2,47z M39.2,81.7c-0.1-0.3-0.4-0.4-0.6-0.3
	c-0.3,0.1-0.4,0.4-0.3,0.6L39.2,81.7z M39.9,85.5l-0.5,0.1L39.9,85.5z M40.5,88.9L40,89L40.5,88.9z M41.1,90.8l0.5-0.1L41.1,90.8z
	 M41.7,89.7l-0.5-0.2L41.7,89.7z M43.2,84.9l0.5,0.1L43.2,84.9z M44.1,81.7l-0.5-0.2L44.1,81.7z M44.4,80.5l0.5,0L44.4,80.5z
	 M44,80.1c0,0.3,0.2,0.5,0.5,0.5c0.3,0,0.5-0.2,0.5-0.5H44z M43.9,83.1c-0.1-0.3-0.3-0.4-0.6-0.4s-0.4,0.3-0.4,0.6L43.9,83.1z
	 M45.2,91.6l0.4,0.3l0,0L45.2,91.6z M47.1,88.4l0.4,0.3L47.1,88.4z M51.5,81.7l-0.4-0.2L51.5,81.7z M51.6,80.6
	c-0.1,0.3,0,0.5,0.3,0.7c0.3,0.1,0.5,0,0.7-0.3L51.6,80.6z M50.7,83.7c-0.2-0.2-0.5-0.2-0.7,0c-0.2,0.2-0.2,0.5,0,0.7L50.7,83.7z
	 M54.1,91l-0.5,0.1L54.1,91z M54.3,92.4l0.5-0.1L54.3,92.4z M54.5,92.7l-0.5,0L54.5,92.7z M55.8,85.1l0.5,0.1L55.8,85.1z M57.1,82
	l0.2-0.4L57.1,82z M58,83.6l-0.4,0.3L58,83.6z M60.3,87l0.4-0.3L60.3,87z M62,91l-0.5,0L62,91z M62.7,89.2l0.5,0.1L62.7,89.2z
	 M64,85.5l0.4,0.2L64,85.5z M65,83.8l-0.4-0.2L65,83.8z M65.8,83l-0.5,0.1L65.8,83z M66.9,87.3l0.5-0.1l0,0L66.9,87.3z M67.4,88.7
	l0.5,0.2L67.4,88.7z M69,85.4l0.4,0.3L69,85.4z M70.5,83.2l0.4,0.2L70.5,83.2z M71.5,82.4c0.2-0.2,0.2-0.5,0-0.7
	c-0.2-0.2-0.5-0.2-0.7,0L71.5,82.4z M81,40.2c0-0.2,0-0.3-0.1-0.5c-0.1-0.2-0.3-0.3-0.5-0.3c-0.2,0-0.3,0-0.5,0.1
	c-0.1,0-0.3,0.1-0.4,0.2c-0.5,0.3-1,0.8-1.4,1.3l0.8,0.6c0.4-0.4,0.8-0.9,1.2-1.1c0.1-0.1,0.1-0.1,0.2-0.1c0,0,0,0,0,0
	c-0.1,0-0.2,0-0.2-0.1c0-0.1,0-0.1,0,0H81z M78.1,40.9c-0.2,0.3-0.5,0.8-0.6,1.3c0,0.2-0.1,0.5,0,0.8c0.1,0.1,0.1,0.3,0.3,0.4
	c0.2,0.1,0.3,0.1,0.5,0.1v-1c0,0,0,0,0.1,0c0,0,0.1,0.1,0.1,0.1c0,0,0-0.1,0-0.2c0.1-0.3,0.3-0.7,0.4-0.8L78.1,40.9z M78.3,43.5
	c0.4,0,0.7-0.1,0.9-0.3c0.3-0.2,0.5-0.5,0.7-0.7c0.4-0.6,0.8-1.3,1-2.1l-1-0.3c-0.2,0.6-0.5,1.3-0.8,1.8c-0.2,0.2-0.3,0.4-0.5,0.5
	c-0.2,0.1-0.3,0.1-0.3,0.1V43.5z M79.1,36.6c1.3,0,2.4,0.4,3.5,1c0.5,0.3,1.1,0.6,1.6,1c0.5,0.3,1.1,0.7,1.7,1l0.5-0.9
	c-0.6-0.3-1.1-0.6-1.6-1c-0.5-0.3-1.1-0.7-1.7-1c-1.2-0.6-2.4-1.1-3.9-1.1V36.6z M85.9,39.6c1.1,0.6,2.3,1.5,3.1,2.5l0.8-0.6
	c-0.9-1.1-2.1-2.1-3.4-2.7L85.9,39.6z M89,42.1c0.5,0.6,0.8,1.2,1.1,2c0.3,0.7,0.6,1.6,1,2.3l0.9-0.5c-0.4-0.7-0.6-1.4-1-2.2
	c-0.3-0.8-0.7-1.6-1.3-2.3L89,42.1z M91.1,46.4c0.7,1.2,1,2.8,0.6,4l1,0.3c0.5-1.6,0.1-3.4-0.7-4.8L91.1,46.4z M91.7,50.4
	c-0.5,1.5-1,3.1-1.3,4.7l1,0.2c0.3-1.5,0.8-3.1,1.3-4.6L91.7,50.4z M90.4,55.1c-0.2,1.3-0.9,2.7-1.5,4l0.9,0.5
	c0.6-1.2,1.3-2.8,1.6-4.2L90.4,55.1z M88.9,59.1c-0.2,0.4-0.5,0.9-0.8,1.1l0.7,0.7c0.4-0.4,0.7-1,1-1.4L88.9,59.1z M88.1,60.2
	c0,0,0.1-0.1,0.3-0.1c0.3,0,0.4,0.2,0.4,0.2c0,0,0,0.1,0,0.1c0,0,0,0,0,0c0,0,0,0,0,0c0-0.1,0-0.2,0-0.4c0-0.2,0.1-0.4,0.1-0.5
	c0-0.2,0.1-0.3,0.1-0.4l-1-0.1c0,0,0,0.2-0.1,0.3c0,0.2-0.1,0.4-0.1,0.6c0,0.2-0.1,0.4-0.1,0.6c0,0,0,0.1,0,0.1c0,0,0,0.1,0.1,0.2
	c0.1,0.1,0.2,0.3,0.5,0.3c0.2,0,0.3-0.1,0.4-0.2L88.1,60.2z M89.1,59.1c0-0.3,0.1-0.6,0.2-1c0.1-0.4,0.2-0.8,0.2-1.2
	c0.1-0.8,0-1.7-0.7-2.4l-0.7,0.7c0.4,0.4,0.5,0.9,0.4,1.6c0,0.4-0.1,0.7-0.2,1.1c-0.1,0.4-0.2,0.7-0.2,1.1L89.1,59.1z M88.8,54.4
	C88.8,54.5,88.8,54.4,88.8,54.4c-0.1-0.1-0.1-0.2-0.1-0.3c0-0.1,0-0.2-0.1-0.3c0-0.1,0-0.2-0.1-0.3l-1,0.2c0,0.1,0.1,0.4,0.1,0.6
	c0.1,0.2,0.1,0.5,0.4,0.7L88.8,54.4z M88.5,53.7c-0.1-0.3-0.2-0.5-0.3-0.6c-0.1-0.2-0.2-0.3-0.2-0.4l-0.9,0.4
	c0.1,0.2,0.2,0.4,0.3,0.5c0.1,0.2,0.2,0.2,0.2,0.3L88.5,53.7z M88,52.7c-0.1-0.2-0.2-0.5-0.4-0.8c-0.1-0.3-0.3-0.6-0.5-0.8l-0.7,0.7
	c0.1,0.1,0.2,0.3,0.4,0.6c0.1,0.3,0.3,0.5,0.4,0.7L88,52.7z M87.1,51.1c-0.6-0.6-1.4-0.8-2-1L84.7,51c0.7,0.2,1.3,0.4,1.6,0.8
	L87.1,51.1z M85,50c-0.3-0.1-0.6-0.2-0.9-0.4c-0.3-0.1-0.7-0.3-1-0.4l-0.3,0.9c0.3,0.1,0.6,0.2,0.9,0.4c0.3,0.1,0.7,0.3,1,0.4L85,50
	z M83.1,49.2c-0.7-0.2-1.6-0.5-2.3-0.6l-0.1,1c0.6,0,1.4,0.3,2.1,0.5L83.1,49.2z M80.8,48.6c-0.2,0-0.3-0.1-0.6-0.1
	c-0.2-0.1-0.5-0.1-0.8-0.1l0,1c0.2,0,0.3,0,0.6,0.1c0.2,0.1,0.5,0.1,0.8,0.2L80.8,48.6z M79.4,48.4c-0.5,0-0.9,0-1.2-0.2l-0.4,0.9
	c0.5,0.2,1.1,0.2,1.6,0.2L79.4,48.4z M78.1,48.2c-0.5-0.2-1-0.2-1.5-0.2c-0.5,0-0.9,0-1.2-0.2l-0.3,1c0.5,0.2,1,0.2,1.5,0.2
	c0.5,0,0.8,0.1,1.2,0.2L78.1,48.2z M75.4,47.8c-0.3-0.1-0.6-0.1-0.9-0.2c-0.3,0-0.5,0-0.8-0.1l-0.1,1c0.3,0,0.6,0.1,0.8,0.1
	c0.3,0,0.5,0.1,0.7,0.1L75.4,47.8z M73.8,47.6c-0.1,0-0.3-0.1-0.5-0.2c-0.2-0.1-0.4-0.2-0.7-0.2l-0.2,1c0.1,0,0.3,0.1,0.5,0.2
	c0.2,0.1,0.4,0.2,0.7,0.2L73.8,47.6z M72.6,47.2c-1.8-0.3-3.6-0.5-5.4-0.5v1c1.8,0,3.5,0.2,5.2,0.5L72.6,47.2z M67.1,46.7h-5.5v1
	h5.5V46.7z M61.6,46.7c-0.6,0-1.3,0-2,0.1l0.2,1c0.5-0.1,1.2-0.1,1.8-0.1V46.7z M59.6,46.8c-0.3,0.1-0.7,0.2-1.1,0.4l0.5,0.9
	c0.2-0.1,0.5-0.2,0.8-0.3L59.6,46.8z M58.6,47.2c-0.1,0.1-0.2,0.1-0.2,0.1c0,0-0.1,0-0.1,0.1c0,0-0.2,0.1-0.2,0.3
	c-0.1,0.2,0,0.3,0,0.4c0,0,0,0.1,0,0.1c0,0,0,0.1,0.1,0.1l0.9-0.3c0-0.1-0.1-0.2-0.1-0.3c0,0,0,0,0,0c0,0,0,0,0,0c0,0,0,0,0,0.1
	c0,0.1,0,0.1,0,0.2c0,0.1-0.1,0.1-0.1,0.2c0,0-0.1,0.1-0.1,0.1c0,0,0,0,0,0c0,0,0,0,0,0c0,0,0.1-0.1,0.3-0.1L58.6,47.2z M65.4,53.9
	c1.2,0,2.3-0.3,3.3-0.6c1-0.3,2-0.7,3-0.8l-0.2-1c-1.1,0.2-2.2,0.6-3.2,0.9c-1,0.3-2,0.6-3,0.6V53.9z M71.7,52.4
	c0.7-0.1,1.4-0.3,2.1-0.4c0.7-0.1,1.3-0.2,2-0.2v-1c-0.8,0-1.5,0.1-2.2,0.3c-0.7,0.1-1.4,0.3-2.1,0.4L71.7,52.4z M75.8,51.7
	c0.3,0,0.6,0,0.9,0c0.3,0,0.6,0,0.9,0c0.6,0,1.1,0,1.6,0.2l0.3-1c-0.6-0.2-1.3-0.2-1.9-0.2c-0.3,0-0.6,0-0.9,0c-0.3,0-0.6,0-0.9,0
	V51.7z M79.2,51.9c0.8,0.3,1.7,0.4,2.5,0.6c0.8,0.2,1.6,0.3,2.3,0.7l0.4-0.9c-0.8-0.4-1.7-0.5-2.5-0.7c-0.8-0.2-1.6-0.3-2.3-0.6
	L79.2,51.9z M83.9,53.1c0.2,0.1,0.4,0.2,0.6,0.2c0.2,0.1,0.5,0.1,0.7,0.2l0-1c-0.1,0-0.3,0-0.5-0.1c-0.2-0.1-0.4-0.1-0.5-0.2
	L83.9,53.1z M85.3,53.5c0.1,0,0.3,0,0.4,0c0.1,0,0.2,0,0.2,0c0,0,0,0,0,0c0,0,0,0,0,0l0.6-0.8c-0.1-0.1-0.3-0.1-0.3-0.1
	c-0.1,0-0.2,0-0.3,0c-0.2,0-0.4,0-0.5,0L85.3,53.5z M85.9,53.6c0.1,0.1,0.2,0.1,0.4,0.2c0.1,0.1,0.3,0.1,0.5,0.2
	c0.4,0.1,0.8,0.3,1.2,0.3v-1c-0.2,0-0.5-0.1-0.8-0.2c-0.2-0.1-0.3-0.1-0.4-0.2c-0.1,0-0.1,0-0.2-0.1c0,0-0.1,0-0.1,0L85.9,53.6z
	 M58.6,50.1c2-0.3,4-0.2,6.1-0.2v-1c-2.1,0-4.1,0-6.2,0.3L58.6,50.1z M64.6,49.9h2.9v-1h-2.9V49.9z M67.5,49.9c0.3,0,0.7,0,1.1-0.1
	c0.4,0,0.7,0,0.9,0l0.2-1c-0.4-0.1-0.8-0.1-1.2-0.1c-0.4,0-0.7,0.1-1,0.1V49.9z M69.4,49.9C69.4,49.9,69.4,49.9,69.4,49.9
	c-0.1-0.1-0.1-0.2-0.1-0.3c0,0,0,0.1-0.2,0.2c-0.2,0.3-0.6,0.6-0.7,0.7l0.6,0.8c0.2-0.1,0.6-0.5,0.9-0.8c0.1-0.2,0.3-0.4,0.4-0.7
	c0-0.2,0-0.4-0.1-0.6c-0.1-0.2-0.3-0.3-0.5-0.3L69.4,49.9z M68.4,50.5c-0.3,0.2-0.7,0.3-1.1,0.5c-0.4,0.1-0.9,0.3-1.3,0.5l0.5,0.9
	c0.3-0.2,0.7-0.3,1.1-0.4c0.4-0.1,0.9-0.3,1.3-0.6L68.4,50.5z M66,51.5c-0.3,0.2-0.7,0.3-1.1,0.5c-0.4,0.1-0.9,0.3-1.3,0.5l0.5,0.9
	c0.3-0.2,0.7-0.3,1.1-0.5c0.4-0.1,0.9-0.3,1.3-0.5L66,51.5z M63.6,52.4c-0.1,0-0.2,0.1-0.3,0.1c-0.1,0-0.4,0.1-0.5,0.1
	c-0.2,0-0.4,0.1-0.6,0.3c-0.2,0.2-0.3,0.5-0.3,0.8h1c0-0.1,0,0,0,0c0,0,0,0,0,0c0,0,0.1,0,0.1,0c0.2,0,0.3,0,0.5-0.1
	c0.2,0,0.4-0.1,0.6-0.2L63.6,52.4z M63.3,38.2c-0.1-0.2-0.1-0.4-0.2-0.5c-0.1-0.1-0.2-0.3-0.3-0.4L62,38c0.2,0.2,0.2,0.2,0.2,0.3
	c0,0,0,0.1,0.1,0.3L63.3,38.2z M62.7,37.3c-0.2-0.3-0.4-0.5-0.7-0.8l-0.7,0.7c0.2,0.2,0.4,0.5,0.7,0.8L62.7,37.3z M62,36.5
	c-0.1-0.1-0.2-0.1-0.2-0.2c-0.1-0.1-0.2-0.1-0.5-0.3l-0.6,0.8c0.3,0.2,0.4,0.3,0.4,0.3c0,0,0,0,0.2,0.2L62,36.5z M61.3,35.9
	c-0.3-0.2-0.6-0.2-0.9-0.3c-0.3,0-0.5,0-0.7,0v1c0.2,0,0.4,0,0.6,0c0.2,0,0.4,0.1,0.6,0.2L61.3,35.9z M59.6,35.6
	c-1,0-1.7,0.7-2.1,1.2l0.7,0.7c0.4-0.5,0.8-0.8,1.4-0.8V35.6z M57.6,36.7c-0.2,0.1-0.4,0.4-0.5,0.6c-0.1,0.2-0.2,0.5-0.2,0.7
	c-0.1,0.5-0.2,1-0.2,1.3h1c0-0.3,0-0.7,0.1-1c0-0.2,0.1-0.3,0.2-0.5c0.1-0.1,0.1-0.2,0.1-0.2L57.6,36.7z M56.7,39.2
	c0,0.3,0.1,0.5,0.2,0.7c0.1,0.2,0.3,0.4,0.5,0.5c0.3,0.3,0.7,0.5,1,0.6l0.3-1c-0.1,0-0.4-0.2-0.7-0.4c-0.1-0.1-0.2-0.2-0.3-0.3
	c-0.1-0.1-0.1-0.2-0.1-0.2H56.7z M58.4,41.1c0.1,0,0.3,0.1,0.4,0.2c0.1,0.1,0.3,0.1,0.4,0.2c0.3,0.1,0.7,0.2,1.1,0.2v-1
	c-0.3,0-0.5-0.1-0.8-0.1c-0.1,0-0.3-0.1-0.4-0.1c-0.1-0.1-0.3-0.1-0.5-0.2L58.4,41.1z M60.4,41.6c0.7,0,1.7-0.2,2.3-1l-0.8-0.6
	c-0.3,0.4-0.9,0.6-1.5,0.6V41.6z M62.7,40.6c0.1-0.2,0.4-0.5,0.5-0.8l-0.9-0.4c-0.1,0.2-0.3,0.4-0.5,0.7L62.7,40.6z M63.2,39.8
	c0.1-0.2,0.2-0.5,0.2-0.8c0-0.3,0-0.6-0.1-0.8l-0.9,0.3c0,0.1,0.1,0.2,0,0.4c0,0.2,0,0.3-0.1,0.4L63.2,39.8z M62.1,38
	c-0.3-0.5-0.7-0.9-1.2-1.1c-0.5-0.2-1.1-0.1-1.6,0.3l0.6,0.8c0.3-0.2,0.5-0.2,0.7-0.2c0.2,0.1,0.4,0.2,0.6,0.6L62.1,38z M59.3,37.3
	c-0.7,0.5-0.9,1.5-0.4,2.2l0.9-0.5c-0.2-0.3-0.1-0.7,0.2-0.9L59.3,37.3z M58.8,39.5c0.2,0.4,0.6,0.6,0.9,0.7c0.3,0.1,0.7,0.2,1,0.2
	v-1c-0.2,0-0.5,0-0.7-0.1c-0.2-0.1-0.3-0.2-0.4-0.3L58.8,39.5z M60.8,40.4c0.7,0,1.1-0.6,1.2-1c0.1-0.4,0.2-0.9,0.2-1.1h-1
	c0,0.2,0,0.5-0.1,0.8c-0.1,0.3-0.2,0.3-0.2,0.3V40.4z M66.9,38.2c-0.7-0.4-1.6-1-2.5-1.2l-0.2,1c0.7,0.2,1.4,0.6,2.2,1.1L66.9,38.2z
	 M64.4,37c0,0-0.1,0-0.2-0.1c-0.1-0.1-0.2-0.2-0.3-0.3c-0.1-0.1-0.2-0.3-0.3-0.4c-0.1-0.1-0.2-0.3-0.3-0.4l-0.7,0.7
	c0.1,0.1,0.2,0.2,0.3,0.3c0.1,0.1,0.2,0.3,0.4,0.4c0.1,0.1,0.3,0.3,0.4,0.4c0.2,0.1,0.3,0.2,0.6,0.3L64.4,37z M63.3,35.9
	c-0.3-0.3-0.6-0.6-1-0.7c-0.3-0.2-0.7-0.3-1.1-0.4l-0.2,1c0.4,0.1,0.7,0.2,0.9,0.3c0.2,0.1,0.4,0.3,0.7,0.5L63.3,35.9z M61.3,34.8
	c-0.3-0.1-0.7-0.1-1-0.1c-0.3,0-0.6,0-0.7-0.1l-0.4,0.9c0.3,0.2,0.8,0.2,1.1,0.2c0.4,0,0.6,0,0.8,0L61.3,34.8z M59.6,34.6
	c-0.8-0.4-1.6-0.2-2.3-0.1l0.2,1c0.7-0.1,1.2-0.2,1.7,0.1L59.6,34.6z M57.3,34.5c-0.6,0.1-1.2,0.4-1.7,0.6c-0.5,0.3-0.9,0.5-1.4,0.5
	l0.1,1c0.6-0.1,1.2-0.4,1.7-0.6c0.5-0.3,1-0.5,1.4-0.5L57.3,34.5z M54.2,35.6c-0.3,0-0.5,0.1-0.6,0.2c-0.2,0.1-0.3,0.1-0.4,0.1v1
	c0.3,0,0.6-0.1,0.7-0.2c0.2-0.1,0.3-0.1,0.4-0.1L54.2,35.6z M53.2,35.9h-1.1v1h1.1V35.9z M52.1,35.9c-0.1,0-0.6,0-1,0
	c-0.2,0-0.4,0-0.6,0c-0.1,0-0.2,0-0.3,0.1c-0.1,0-0.2,0.1-0.2,0.2c-0.1,0.2-0.1,0.4,0,0.5l0.9-0.4c0.1,0.1,0.1,0.3,0,0.4
	c-0.1,0.1-0.1,0.2-0.2,0.2c0,0,0,0,0,0c0.1,0,0.3,0,0.5,0c0.4,0,0.9,0,1,0V35.9z M64.1,40.7c-0.6,0.1-1.2,0.2-1.8,0.3
	c-0.6,0.1-1.1,0.2-1.7,0.2v1c0.7,0,1.3-0.1,1.9-0.2c0.6-0.1,1.1-0.2,1.8-0.3L64.1,40.7z M60.6,41.3c-1,0-2-0.1-2.6-0.6l-0.6,0.8
	c0.9,0.6,2.2,0.7,3.2,0.7V41.3z M58,40.7c-0.3-0.2-0.5-0.4-0.9-0.7c-0.3-0.2-0.6-0.5-1-0.7l-0.4,0.9c0.3,0.1,0.5,0.3,0.8,0.6
	c0.3,0.2,0.6,0.5,0.9,0.7L58,40.7z M56.1,39.4C56.1,39.4,56.1,39.4,56.1,39.4C56.1,39.4,56.1,39.4,56.1,39.4
	c-0.1-0.1-0.2-0.1-0.3-0.2c-0.2-0.2-0.4-0.3-0.6-0.5c-0.2-0.2-0.5-0.3-0.7-0.4c-0.1,0-0.3-0.1-0.6,0c-0.3,0.1-0.4,0.4-0.4,0.6h1
	c0,0,0,0.2-0.2,0.3c-0.1,0.1-0.3,0-0.2,0c0.1,0,0.2,0.1,0.4,0.3c0.2,0.2,0.4,0.3,0.6,0.5c0.1,0.1,0.2,0.1,0.2,0.2
	c0,0,0.1,0.1,0.1,0.1c0,0,0.1,0.1,0.1,0.1L56.1,39.4z M84.6,37.4c0-0.3,0-0.6,0.1-0.9c0-0.3,0.1-0.7,0.1-1h-1c0,0.3,0,0.6-0.1,0.9
	c0,0.3-0.1,0.7-0.1,1H84.6z M84.7,35.4c0-0.1,0-0.2,0-0.3c0-0.1-0.1-0.2-0.3-0.3c-0.1-0.1-0.3-0.1-0.3-0.1c-0.1,0-0.1,0-0.1,0
	c0,0,0,0,0,0c0.1,0,0.2,0,0.2,0.1c0.1,0.1,0.1,0.1,0.1,0.2c0,0,0,0,0,0h-1c0,0.1,0,0.2,0,0.3c0,0.1,0.1,0.2,0.2,0.3
	c0.1,0.1,0.3,0.1,0.4,0.1c0.1,0,0.2,0,0.2,0c0,0,0,0,0,0c0,0-0.1,0-0.2-0.1c-0.1-0.1-0.2-0.2-0.2-0.2c0,0,0-0.1,0,0H84.7z M84.3,35
	c0-0.1,0-0.3,0-0.4c0-0.2,0.1-0.3,0.1-0.4l-0.9-0.4c-0.1,0.2-0.1,0.4-0.2,0.6c0,0.2,0,0.4,0,0.6H84.3z M84.5,34.2
	c0.1-0.3,0.1-0.5,0.1-0.8h-1c0,0.2,0,0.3-0.1,0.4L84.5,34.2z M84.6,33.4c0-0.1,0-0.1,0-0.2c0-0.1-0.1-0.2-0.2-0.3
	c-0.1-0.1-0.2-0.1-0.3-0.2c-0.1,0-0.2,0-0.2,0c0,0-0.1,0-0.1,0c0,0,0,0,0,0c0,0,0.1,0,0.2,0c0.1,0,0.1,0.1,0.2,0.1
	c0.1,0.1,0.1,0.1,0.1,0.2l-0.9,0.4c0,0.1,0.1,0.1,0.1,0.2c0.1,0.1,0.1,0.1,0.2,0.1c0.1,0,0.1,0,0.2,0c0,0,0.1,0,0.1,0
	c0,0,0.1,0,0.1,0c0,0,0,0,0,0c0,0-0.1,0-0.1,0c0,0-0.1,0-0.1,0c0,0-0.1-0.1-0.1-0.1c-0.1-0.1-0.1-0.1-0.1-0.2c0,0,0,0,0,0H84.6z
	 M84.3,33.1C84.3,33.1,84.3,33.2,84.3,33.1c0-0.1,0-0.2,0-0.3c0-0.1,0-0.2,0-0.4c0-0.1,0-0.4-0.2-0.5l-0.7,0.7
	c-0.1-0.1-0.1-0.2-0.1-0.1c0,0,0,0.1,0,0.2c0,0.1,0,0.2,0,0.3c0,0.1,0,0.3,0.1,0.5L84.3,33.1z M84.2,31.9c-0.1-0.1-0.2-0.2-0.4-0.2
	c-0.2,0-0.3,0-0.4,0.1c-0.1,0.1-0.2,0.1-0.2,0.2c0,0-0.1,0.1-0.1,0.1c0,0,0,0,0,0c0,0,0,0,0,0c0,0,0,0,0,0c0,0,0.1,0,0.1-0.1
	c0.1,0,0.1,0,0.2,0c0.2,0,0.3,0.2,0.4,0.2c0,0.1,0,0.1,0,0.1c0,0,0,0,0,0c0,0,0-0.1,0-0.2h-1c0,0.1,0,0.2,0,0.3c0,0,0,0.1,0,0.1
	c0,0,0,0.1,0.1,0.2c0,0.1,0.2,0.2,0.4,0.3c0.2,0,0.3-0.1,0.4-0.1c0.1,0,0.1-0.1,0.1-0.1c0,0,0,0,0-0.1c0,0,0,0,0,0c0,0,0,0-0.1,0
	c-0.1,0-0.1,0-0.2,0c-0.1,0-0.1-0.1-0.1-0.1L84.2,31.9z M83.8,32c0-0.3,0-0.6-0.1-0.9c-0.1-0.3-0.3-0.5-0.6-0.6
	c-0.3-0.1-0.5,0-0.7,0c-0.2,0.1-0.4,0.2-0.7,0.3l0.4,0.9c0.2-0.1,0.4-0.2,0.5-0.2c0.1,0,0.2,0,0.1,0c-0.1,0-0.1-0.1-0.1,0
	c0,0.1,0.1,0.2,0.1,0.5H83.8z M81.7,30.8c0,0,0.1,0,0.3,0c0.1,0.1,0.1,0.1,0.1,0.1c0-0.1,0-0.3-0.1-0.6c0-0.3,0-0.6-0.1-0.9
	c0-0.1-0.1-0.3-0.2-0.5c-0.1-0.2-0.3-0.3-0.6-0.3v1c-0.1,0-0.2-0.1-0.2-0.1c0,0,0,0,0,0.1c0,0.2,0,0.4,0.1,0.7c0,0.3,0,0.6,0.1,0.9
	c0,0.1,0.1,0.3,0.3,0.5c0.2,0.2,0.5,0.1,0.7,0L81.7,30.8z M81.2,28.6c-0.3,0-0.5,0.2-0.5,0.3c-0.1,0.1-0.2,0.2-0.2,0.3
	c0,0,0,0.1-0.1,0.1c0,0,0,0.1-0.1,0.1c0,0.1-0.1,0.1,0,0.1l0.7,0.7c0.1-0.1,0.1-0.1,0.1-0.2c0,0,0.1-0.1,0.1-0.1c0,0,0-0.1,0.1-0.1
	c0,0,0-0.1,0.1-0.1c0-0.1,0.1-0.1,0.1-0.2c0,0,0,0,0,0c0,0-0.1,0.1-0.2,0.1V28.6z M80.3,29.5c0,0,0.1-0.1,0.2-0.1
	c0.1,0,0.2,0,0.3,0.1c0.1,0.1,0.2,0.1,0.2,0.2c0,0.1,0.1,0.2,0.1,0.2c0,0,0,0,0,0c0,0,0,0,0-0.1c0,0,0-0.1,0-0.1h-1c0,0,0,0,0,0
	c0,0,0,0.1,0,0.1c0,0,0,0.1,0,0.1c0,0,0,0.1,0.1,0.2c0,0.1,0.1,0.1,0.2,0.2c0.1,0.1,0.2,0.1,0.3,0.1c0.2,0,0.3-0.1,0.3-0.2
	L80.3,29.5z M81.1,29.7c0-0.4-0.1-0.8-0.2-1L79.9,29c0.1,0.3,0.2,0.5,0.2,0.7H81.1z M80.9,28.6c0-0.1-0.1-0.3-0.2-0.6
	c-0.1-0.3-0.1-0.6-0.2-0.9c-0.1-0.3-0.2-0.6-0.4-0.9c-0.1-0.3-0.3-0.6-0.6-0.7L79,26.4c0,0,0.1,0.1,0.2,0.3c0.1,0.2,0.2,0.4,0.3,0.7
	c0.1,0.3,0.2,0.6,0.2,0.8c0.1,0.3,0.1,0.5,0.2,0.7L80.9,28.6z M79.5,25.5L79.5,25.5L79,26.4l0,0L79.5,25.5z M79.5,25.5
	c-0.1-0.1-0.2-0.1-0.3-0.2c-0.1,0-0.3-0.1-0.5-0.1c-0.2,0-0.4,0.2-0.5,0.3c-0.1,0.1-0.2,0.3-0.2,0.5l0.9,0.3c0-0.1,0-0.1,0.1-0.2
	c0,0,0-0.1,0-0.1c0,0,0,0,0,0c0,0-0.1,0-0.1,0c0,0-0.1,0-0.1,0c0,0,0,0,0,0c0,0,0,0,0.1,0c0,0,0.1,0,0.1,0.1L79.5,25.5z M77.9,26.1
	c-0.1,0.4-0.2,0.7-0.4,1l0.9,0.5c0.2-0.3,0.4-0.9,0.5-1.1L77.9,26.1z M77.5,27.1c0-0.1,0.1-0.2,0.3-0.2c0.1-0.1,0.3,0,0.3,0
	c0.1,0,0.1,0.1,0.1,0.1c0,0,0,0,0,0c0,0,0,0,0,0c0-0.1-0.1-0.2-0.2-0.4c-0.1-0.3-0.3-0.7-0.3-0.8l-0.9,0.4c0.1,0.1,0.2,0.5,0.3,0.8
	c0.1,0.2,0.1,0.3,0.2,0.4c0,0.1,0.1,0.1,0.1,0.2c0,0,0.1,0.1,0.2,0.2c0.1,0,0.2,0.1,0.4,0c0.1-0.1,0.2-0.2,0.3-0.2L77.5,27.1z
	 M77.8,25.8c-0.1-0.3-0.2-0.6-0.4-0.9c-0.1-0.3-0.2-0.5-0.3-0.8l-0.9,0.3c0.1,0.3,0.2,0.6,0.4,0.8c0.1,0.3,0.2,0.5,0.3,0.8
	L77.8,25.8z M77.1,24.1c-0.1-0.3-0.2-0.5-0.4-0.7c-0.1-0.2-0.2-0.4-0.3-0.6l-0.9,0.4c0.1,0.3,0.3,0.5,0.4,0.7
	c0.1,0.2,0.2,0.4,0.3,0.6L77.1,24.1z M76.4,22.9c-0.1-0.2-0.2-0.4-0.3-0.5c-0.1-0.1-0.4-0.3-0.7-0.2c-0.2,0.1-0.4,0.3-0.4,0.4
	c-0.1,0.1-0.1,0.3-0.2,0.4l0.9,0.3c0-0.1,0.1-0.2,0.1-0.2c0,0,0,0,0,0c0,0,0,0-0.1,0.1c-0.1,0-0.2,0-0.2,0c-0.1,0-0.1-0.1-0.1-0.1
	c0,0,0,0,0,0c0,0,0,0.1,0.1,0.1L76.4,22.9z M74.8,23c-0.1,0.2-0.1,0.3-0.1,0.4c0,0.1,0,0.1,0,0.1c0,0,0,0,0,0c0,0,0-0.1,0.1-0.1
	c0-0.1,0.1-0.2,0.3-0.2c0.2,0,0.3,0,0.3,0.1c0,0,0.1,0.1,0.1,0.1c0,0,0,0,0,0c0,0,0,0-0.1-0.1c0,0-0.1-0.1-0.1-0.2l-0.8,0.6
	c0.1,0.1,0.2,0.2,0.2,0.3c0,0,0.1,0.1,0.2,0.2c0.1,0,0.2,0.1,0.3,0.1c0.2,0,0.3-0.1,0.3-0.2c0.1-0.1,0.1-0.1,0.1-0.2
	c0,0,0-0.1,0-0.1c0,0,0-0.1,0-0.1c0-0.1,0-0.2,0.1-0.3L74.8,23z M75.2,23c-0.1-0.1-0.2-0.3-0.3-0.5c-0.1-0.2-0.2-0.4-0.3-0.6
	l-0.9,0.5c0.1,0.2,0.2,0.3,0.2,0.5c0.1,0.2,0.2,0.4,0.3,0.6L75.2,23z M74.7,22c-0.1-0.1-0.2-0.3-0.3-0.3c-0.2-0.1-0.4-0.1-0.6,0
	c-0.1,0.1-0.2,0.2-0.3,0.2c-0.1,0.1-0.1,0.2-0.1,0.2c-0.1,0.2-0.1,0.3-0.2,0.5c0,0.1-0.1,0.3-0.1,0.4l1,0.1c0,0,0,0,0,0
	c0,0,0-0.1,0-0.1c0-0.1,0.1-0.2,0.1-0.3c0,0,0-0.1,0.1-0.1c0,0,0,0-0.1,0c-0.1,0-0.2,0.1-0.3,0c-0.1,0-0.1-0.1-0.1-0.1L74.7,22z
	 M73.1,23c0,0.2,0,0.3,0,0.4c0,0.1,0,0.1,0,0.2c0,0,0,0.1,0,0.1c0,0,0,0,0-0.1c0,0,0.1-0.2,0.2-0.2c0.2-0.1,0.4,0,0.5,0
	c0.1,0,0.1,0.1,0.1,0.1c0,0,0,0,0,0c0-0.1-0.1-0.1-0.1-0.2l-0.9,0.4c0.1,0.2,0.2,0.4,0.2,0.5c0,0,0.1,0.1,0.2,0.1
	c0.1,0.1,0.3,0.1,0.5,0C74,24.1,74,24,74,23.9c0-0.1,0-0.1,0-0.1c0-0.1,0-0.3,0-0.4c0-0.1,0-0.2,0-0.3L73.1,23z M73.8,23.2
	L73.8,23.2l-0.9,0.4l0,0L73.8,23.2z M73.8,23.1c-0.2-0.5-0.5-1.3-1.3-1.7l-0.5,0.9c0.4,0.2,0.6,0.6,0.8,1.2L73.8,23.1z M72.5,21.5
	c-0.2-0.1-0.3-0.2-0.5-0.2c-0.1,0-0.4-0.1-0.7,0.1c-0.3,0.2-0.3,0.5-0.3,0.6c0,0.2,0,0.4,0.1,0.6l1-0.2c0-0.1,0-0.2,0-0.2
	c0-0.1,0-0.1,0-0.1c0,0,0,0,0,0c0,0,0,0.1-0.1,0.2c-0.1,0.1-0.2,0.1-0.2,0.1c0,0,0,0,0,0c0,0,0.1,0,0.1,0c0.1,0,0.1,0.1,0.2,0.1
	L72.5,21.5z M71.2,22.5c0,0.1,0.1,0.3,0.1,0.4c0,0.1,0,0.1,0,0.2c0,0,0,0,0,0c0,0,0,0,0,0c0,0,0,0,0,0c0,0,0-0.1,0-0.1
	c0-0.1,0.1-0.1,0.2-0.2c0.1,0,0.1-0.1,0.2-0.1c0.1,0,0.1,0,0.1,0c0,0-0.1,0-0.2-0.1l-0.5,0.8c0.1,0.1,0.2,0.1,0.3,0.2
	c0.1,0,0.2,0.1,0.4,0.1c0.2,0,0.4-0.1,0.5-0.3c0.1-0.1,0.1-0.3,0.1-0.4c0-0.2-0.1-0.3-0.1-0.4c0-0.1-0.1-0.2-0.1-0.3L71.2,22.5z
	 M71.7,22.6c-0.1-0.1-0.2-0.1-0.3-0.2c0,0-0.1-0.1-0.1-0.1c0,0-0.1-0.1-0.2-0.1c-0.1,0-0.3-0.1-0.5,0c-0.2,0.1-0.3,0.3-0.3,0.3
	c-0.1,0.2-0.1,0.4-0.1,0.6l1,0c0-0.1,0-0.2,0-0.2c0,0,0,0,0,0c0,0-0.1,0.1-0.2,0.2c-0.2,0.1-0.3,0-0.3,0c0,0,0,0,0,0
	c0,0,0,0,0.1,0.1c0.1,0.1,0.2,0.2,0.3,0.3L71.7,22.6z M70.2,23.2c0,0.1,0,0.2,0,0.2c0,0,0,0.1,0,0.1c0,0,0,0,0,0c0,0,0,0,0,0
	C70.3,23.4,70.3,23.3,70.2,23.2c0.1,0,0.2-0.1,0.3-0.2c0.1-0.1,0.2-0.1,0.3-0.1c0.1,0,0.2,0.1,0.2,0.1c0,0,0.1,0.1,0,0
	c0,0,0,0,0-0.1l-0.8,0.6c0,0,0.1,0.1,0.1,0.1c0,0,0.1,0.1,0.1,0.1c0,0,0.1,0.1,0.3,0.1c0.1,0,0.2,0,0.3-0.1c0.1-0.1,0.2-0.2,0.2-0.2
	c0-0.1,0-0.2,0-0.2c0,0,0-0.1,0-0.1c0,0,0-0.1,0-0.1c0,0,0-0.1,0,0L70.2,23.2z M71.1,23c-0.2-0.3-0.4-0.7-0.8-1l-0.7,0.7
	c0.3,0.3,0.4,0.5,0.7,0.9L71.1,23z M70.3,22c-0.1-0.1-0.3-0.3-0.6-0.5c-0.2-0.2-0.5-0.4-0.9-0.4l0,1c0,0,0.1,0,0.3,0.2
	c0.2,0.1,0.3,0.3,0.5,0.4L70.3,22z M68.9,21.1c-0.2,0-0.4,0-0.5,0.1c-0.2,0.1-0.3,0.3-0.4,0.5c0,0.2,0,0.4,0.1,0.5
	c0.1,0.1,0.1,0.3,0.2,0.4L69,22c-0.1-0.1-0.1-0.1-0.1-0.1c0,0,0,0,0,0c0,0,0,0.1-0.1,0.1c0,0-0.1,0.1-0.1,0.1c0,0,0,0,0,0L68.9,21.1
	z M68.2,22.6c0.1,0.1,0.1,0.1,0.1,0.1c0,0,0,0.1,0,0.2h1c0-0.1,0-0.3-0.1-0.5c-0.1-0.2-0.1-0.3-0.2-0.4L68.2,22.6z M68.3,22.9
	c0-0.1,0-0.2,0.1-0.3c0.1-0.1,0.2-0.2,0.3-0.2c0.1,0,0.2,0,0.3,0c0,0,0.1,0,0.1,0c0,0,0,0,0,0c0,0,0,0,0,0c-0.1,0-0.1-0.1-0.2-0.2
	c-0.2-0.1-0.4-0.3-0.5-0.4l-0.5,0.8c0.1,0,0.2,0.2,0.4,0.3c0.1,0.1,0.2,0.1,0.2,0.2c0,0,0.1,0.1,0.1,0.1c0,0,0.1,0,0.1,0.1
	c0,0,0.1,0,0.3,0c0.1,0,0.2-0.1,0.3-0.2c0.1-0.1,0.1-0.2,0.1-0.3H68.3z M68.3,21.9c-0.5-0.3-0.9-0.5-1.4-0.6l-0.3,1
	c0.4,0.1,0.8,0.3,1.2,0.5L68.3,21.9z M66.9,21.2c-0.1,0-0.2-0.1-0.3-0.1c-0.1,0-0.1,0-0.2,0c-0.1,0-0.2,0-0.3,0.2
	c-0.3,0.2-0.1,0.6-0.1,0.6c0,0.1,0.1,0.2,0.1,0.2c0.1,0.1,0.2,0.2,0.3,0.3c0.1,0.1,0.2,0.2,0.2,0.2l0.8-0.6
	c-0.1-0.1-0.2-0.2-0.3-0.3c-0.1-0.1-0.2-0.2-0.2-0.2c0,0,0,0,0,0c0,0,0,0.1,0,0.2c0,0.1,0,0.2-0.1,0.3c-0.1,0.1-0.2,0.1-0.2,0.1
	c0,0,0,0,0,0c0,0,0,0,0,0c0,0,0,0,0,0c0,0,0,0,0,0c0,0,0.1,0,0.1,0L66.9,21.2z M66.5,22.7C66.6,22.8,66.6,22.8,66.5,22.7
	c0,0.1,0,0,0-0.1c0-0.1,0.1-0.3,0.2-0.4c0.1-0.1,0.2-0.1,0.3-0.1c0,0,0,0,0,0c0,0,0,0,0,0c0,0,0,0,0,0c0,0,0,0,0,0c0,0,0,0-0.1,0
	c-0.2-0.1-0.5-0.3-0.6-0.4l-0.6,0.8c0.1,0.1,0.4,0.3,0.7,0.4c0.1,0,0.1,0.1,0.2,0.1c0,0,0.1,0,0.2,0c0.1,0,0.2,0,0.3-0.1
	c0.2-0.1,0.3-0.3,0.3-0.4c0-0.1,0-0.2-0.1-0.3c0-0.1-0.1-0.2-0.2-0.3L66.5,22.7z M66.5,21.8c-0.7-0.5-1.7-1.1-2.7-1.3l-0.2,1
	c0.8,0.2,1.6,0.7,2.3,1.2L66.5,21.8z M63.8,20.4c-0.1,0-0.2,0-0.3,0c-0.1,0-0.2,0-0.4,0.1c-0.2,0.2-0.2,0.4-0.2,0.5
	c0,0.1,0.1,0.2,0.1,0.3c0.1,0.1,0.2,0.2,0.2,0.3c0.1,0.1,0.2,0.2,0.3,0.3c0.1,0.1,0.2,0.2,0.2,0.2c0,0,0.1,0.1,0.1,0.1c0,0,0,0,0,0
	c0,0,0,0,0,0c0,0,0,0,0,0c0,0,0,0,0-0.1c0-0.1,0-0.2,0.1-0.3c0.1-0.1,0.2-0.1,0.2-0.1c0,0,0,0,0,0l-0.1,1c0.1,0,0.2,0,0.3,0
	c0.1,0,0.2-0.1,0.4-0.2c0.1-0.1,0.2-0.3,0.2-0.5c0-0.1-0.1-0.2-0.1-0.3c-0.1-0.1-0.2-0.2-0.2-0.3c-0.1-0.1-0.2-0.2-0.3-0.3
	c-0.1-0.1-0.2-0.2-0.2-0.3c-0.1-0.1-0.1-0.1-0.1-0.1c0,0,0,0,0,0.1c0,0.1,0,0.3-0.2,0.4c-0.1,0.1-0.1,0.1-0.2,0.1c0,0-0.1,0-0.1,0
	c0,0,0,0,0,0L63.8,20.4z M64.2,21.7c-1.1-0.1-2.2-0.6-3.1-1.2l-0.5,0.8c1,0.6,2.2,1.2,3.5,1.3L64.2,21.7z M61.1,20.6
	c-0.2-0.1-0.3-0.2-0.5-0.3c0,0-0.2-0.1-0.3,0c-0.1,0-0.2,0.1-0.3,0.2c-0.1,0.1-0.1,0.2-0.1,0.3c0,0.1,0,0.2,0.1,0.3
	c0,0.1,0.1,0.1,0.1,0.1c0,0.1,0.1,0.2,0.2,0.3c0.1,0.1,0.1,0.1,0.1,0.2c0,0,0,0,0,0c0,0,0-0.1,0-0.2c0.1-0.1,0.2-0.2,0.3-0.2
	c0.1,0,0.1,0,0.1,0c0,0-0.1,0-0.3-0.1L59.9,22c0.2,0.1,0.4,0.2,0.6,0.2c0.1,0,0.2,0,0.3,0c0.2,0,0.3-0.2,0.4-0.3
	c0.1-0.2,0-0.3,0-0.4c0-0.1,0-0.2-0.1-0.2c0-0.1-0.1-0.2-0.2-0.3c-0.1-0.1-0.1-0.2-0.1-0.2c0,0,0,0,0,0c0,0,0,0,0,0c0,0,0,0,0,0
	c0,0,0,0,0,0c0,0,0,0,0,0c0,0,0,0.1,0,0.1c0,0.1,0,0.2-0.1,0.3c-0.1,0.1-0.2,0.2-0.3,0.2c-0.1,0-0.1,0-0.2,0c0,0,0,0,0,0
	c0,0,0.1,0,0.3,0.2L61.1,20.6z M60.3,21c-0.1,0-0.5-0.3-0.9-0.4c-0.2-0.1-0.4-0.1-0.6-0.1c-0.1,0-0.3,0-0.4,0.1
	c-0.2,0.1-0.3,0.2-0.3,0.4l1,0.3c0,0-0.1,0.1-0.1,0.1c-0.1,0-0.1,0-0.1,0c0,0,0.1,0,0.3,0.1c0.3,0.1,0.6,0.3,0.8,0.4L60.3,21z
	 M58.1,21.1c-0.1,0.5,0,0.9,0,0.9c0,0,0,0,0,0c0,0,0-0.1,0-0.2c0-0.1,0.1-0.1,0.1-0.2c0.1-0.1,0.2-0.1,0.2-0.1c0.1,0,0.2,0,0.2,0
	c0,0,0,0,0,0c0,0-0.1-0.1-0.2-0.1L58,22.2c0.1,0.1,0.2,0.1,0.2,0.1c0,0,0.1,0.1,0.2,0.1c0,0,0.1,0,0.3,0c0.1,0,0.2-0.1,0.2-0.1
	c0.1-0.1,0.1-0.2,0.1-0.2c0-0.1,0-0.2,0-0.2c0,0,0-0.1,0-0.1c0-0.2-0.1-0.3,0-0.4L58.1,21.1z M58.6,21.3c-0.7-0.4-1.4-0.8-2.2-1
	l-0.3,1c0.7,0.2,1.4,0.5,2,0.9L58.6,21.3z M56.4,20.3c-0.1,0-0.3-0.1-0.4,0c-0.2,0-0.3,0.1-0.4,0.3c-0.2,0.2-0.2,0.5-0.1,0.7
	c0,0.2,0.1,0.4,0.2,0.5c0.1,0.1,0.2,0.3,0.4,0.5l0.6-0.8c0,0,0,0,0,0c0,0,0,0,0-0.1c0-0.1-0.1-0.2-0.1-0.2c0,0,0,0,0,0c0,0,0,0,0,0
	c0,0,0,0,0,0.1c0,0.1-0.1,0.1-0.2,0.1c-0.1,0-0.1,0-0.1,0L56.4,20.3z M55.9,22.2c0.1,0,0.1,0.1,0.1,0.1c0,0,0,0,0,0
	C56,22.3,56,22.3,55.9,22.2c0,0,0-0.1,0-0.1c0-0.1,0-0.2,0.1-0.4c0.1-0.1,0.2-0.2,0.3-0.2c0.1,0,0.1,0,0.1,0c0,0,0,0,0.1,0
	c0,0,0,0,0,0c-0.2-0.1-0.5-0.2-1-0.4c-0.9-0.4-2.1-0.9-2.8-1.2l-0.3,0.9c0.6,0.2,1.8,0.8,2.7,1.1c0.5,0.2,0.9,0.4,1.1,0.4
	c0.1,0,0.1,0,0.2,0c0,0,0.1,0,0.3,0c0.1,0,0.2-0.1,0.3-0.2c0.1-0.1,0.1-0.3,0.1-0.4c0-0.1-0.1-0.2-0.1-0.2c0,0-0.1-0.1-0.1-0.1
	c-0.1,0-0.1-0.1-0.2-0.1L55.9,22.2z M52.6,19.9c-0.1,0-0.1-0.1-0.2-0.1c-0.1-0.1-0.2-0.2-0.4-0.2l-0.4,0.9c0.1,0,0.1,0.1,0.3,0.2
	c0.1,0.1,0.3,0.2,0.4,0.2L52.6,19.9z M52,19.6c-0.1-0.1-0.2-0.1-0.3-0.1c-0.1,0-0.2,0-0.2,0c-0.1,0-0.1,0-0.1,0c0,0,0,0,0,0
	l-0.6,0.8c0.1,0.1,0.2,0.1,0.3,0.2c0.1,0,0.2,0,0.3,0.1c0.1,0,0.1,0,0.2,0c0,0,0.1,0,0,0L52,19.6z M51.4,19.4
	C51.4,19.4,51.3,19.4,51.4,19.4c-0.1-0.1-0.2-0.1-0.3-0.1c-0.1,0-0.3,0-0.4,0.2c-0.1,0.1-0.1,0.2-0.1,0.2c0,0.1,0,0.2,0,0.2
	c0,0,0,0.1,0,0.1c0,0.1,0.1,0.2,0.1,0.4c0.1,0.1,0.1,0.3,0.2,0.4c0.1,0.1,0.1,0.2,0.2,0.3l0.8-0.6c0,0,0,0-0.1-0.1
	c0-0.1-0.1-0.2-0.1-0.3c0-0.1-0.1-0.2-0.1-0.2c0,0,0,0,0,0c0,0,0,0.1,0,0.2c0,0,0,0.1-0.1,0.2c-0.1,0.1-0.2,0.1-0.4,0.1
	c-0.1,0-0.2,0-0.2-0.1c0,0-0.1,0-0.1,0L51.4,19.4z M51.1,21.1c0,0,0,0,0.1,0.1c0,0.1,0.1,0.2,0.2,0.3c0.1,0.1,0.1,0.2,0.1,0.2
	c0,0,0,0,0,0c0,0,0-0.1,0-0.2c0-0.1,0.1-0.3,0.4-0.3c0.2,0,0.3,0,0.3,0l-0.4,0.9c0,0,0.2,0.1,0.4,0c0.2-0.1,0.3-0.2,0.4-0.3
	c0-0.1,0-0.2,0-0.2c0,0,0-0.1,0-0.1c0-0.1-0.1-0.3-0.1-0.4c-0.1-0.1-0.1-0.3-0.2-0.4c-0.1-0.1-0.1-0.2-0.2-0.3L51.1,21.1z M52,21.3
	c-0.3-0.2-0.7-0.5-1-0.7l-0.7,0.7c0.3,0.3,0.8,0.7,1.3,0.9L52,21.3z M51,20.5c-0.1-0.1-0.3-0.2-0.5-0.3c-0.2-0.1-0.4-0.1-0.6,0
	c-0.2,0.1-0.3,0.3-0.3,0.5c0,0.1,0,0.3,0,0.4c0,0.2,0.1,0.5,0.1,0.7c0,0.1,0,0.2,0,0.2c0,0,0,0,0,0c0,0,0,0,0,0c0,0,0,0,0-0.1
	c0,0,0-0.1,0.1-0.2c0.1-0.1,0.2-0.2,0.4-0.2v1c0.2,0,0.4-0.1,0.4-0.2c0-0.1,0.1-0.2,0.1-0.2c0-0.1,0-0.1,0-0.1c0,0,0-0.1,0-0.1
	c0-0.1,0-0.1,0-0.2c0-0.2-0.1-0.4-0.1-0.5c0,0,0-0.1,0-0.1c0,0,0,0,0,0c0,0,0,0,0,0c0,0,0,0,0,0c0,0,0,0,0,0c0,0-0.1,0.1-0.1,0.1
	c-0.1,0.1-0.3,0-0.2,0c0,0,0.1,0,0.2,0.1L51,20.5z M50.2,21.5c-0.2,0-0.4-0.1-0.8-0.1c-0.3-0.1-0.6-0.2-1-0.2l-0.2,1
	c0.3,0,0.5,0.1,0.9,0.2c0.3,0.1,0.7,0.2,1,0.2V21.5z M48.4,21.1c0,0-0.1,0-0.2,0l-0.1,1c0,0,0.1,0,0.1,0L48.4,21.1z M48.3,21.1
	c-0.1,0-0.3-0.1-0.5-0.2l-0.5,0.9c0.2,0.1,0.5,0.2,0.8,0.3L48.3,21.1z M47.8,20.9C47.8,20.9,47.8,20.9,47.8,20.9
	C47.8,20.9,47.8,20.9,47.8,20.9C47.8,20.9,47.8,20.9,47.8,20.9c0.1,0.1,0.2,0.2,0.2,0.3c0,0.1,0,0.2-0.1,0.3
	c-0.1,0.1-0.1,0.1-0.2,0.2c-0.1,0-0.2,0-0.2,0c0,0-0.1,0-0.1,0c0,0,0,0,0.1,0c0.2,0.1,0.4,0.1,0.6,0.2l0.4-0.9
	C48.3,21,48,20.9,47.8,20.9c0-0.1-0.1-0.1-0.2-0.1c0,0,0,0-0.1,0c0,0-0.1,0-0.2,0c-0.1,0-0.1,0.1-0.2,0.2C47,21.1,47,21.2,47,21.3
	c0,0.2,0.1,0.3,0.1,0.3c0.1,0.1,0.1,0.1,0.1,0.1c0,0,0,0,0.1,0L47.8,20.9z M48.1,22c0.1,0,0.1,0.1,0.2,0.1l0.4-0.9
	c-0.1,0-0.2-0.1-0.2-0.1L48.1,22z M48.3,22.1c0.1,0,0.2,0.1,0.2,0.1c0,0,0,0,0.1,0c0,0,0,0,0,0c0,0,0,0,0,0c0,0,0,0,0,0
	c0,0-0.1-0.1-0.1-0.2c0-0.1,0-0.3,0.1-0.4c0.1-0.1,0.2-0.1,0.2-0.1c0.1,0,0.1,0,0.1,0c0,0,0,0-0.1,0c-0.1,0-0.2,0-0.4-0.1l-0.3,0.9
	c0.2,0.1,0.4,0.1,0.5,0.1c0.1,0,0.2,0,0.2,0c0.1,0,0.2,0,0.3,0c0.1,0,0.2-0.1,0.3-0.2c0.1-0.1,0.1-0.3,0.1-0.4
	c0-0.1-0.1-0.2-0.1-0.2c0,0-0.1-0.1-0.1-0.1c-0.1-0.1-0.3-0.2-0.5-0.3L48.3,22.1z M48.4,21.4c-0.8-0.3-1.5-0.4-2.3-0.4v1
	c0.7,0,1.3,0.1,2,0.3L48.4,21.4z M46.2,21.1c-0.3,0-0.5,0-0.7,0.1c-0.2,0-0.4,0.1-0.6,0.2l0.3,0.9c0.2-0.1,0.3-0.1,0.4-0.1
	c0.1,0,0.2,0,0.5,0V21.1z M44.9,21.3c-0.1,0-0.2,0.1-0.3,0.1c-0.1,0-0.1,0-0.2,0c0,0-0.1,0-0.2,0.1c-0.1,0-0.2,0.1-0.3,0.4
	c-0.1,0.2,0,0.4,0.1,0.5c0.1,0.1,0.1,0.1,0.2,0.2c0.1,0,0.1,0.1,0.2,0.2l0.5-0.8c-0.1,0-0.1-0.1-0.1-0.1c0,0,0,0,0,0
	c0,0,0.1,0.2,0.1,0.4c0,0.2-0.2,0.2-0.2,0.3c0,0,0,0,0,0c0,0,0.1,0,0.1,0c0.1,0,0.3-0.1,0.4-0.1L44.9,21.3z M44.5,22.7
	c0.1,0,0.2,0.1,0.4,0.2c0.2,0.1,0.3,0.2,0.5,0.3c0.2,0.1,0.3,0.2,0.4,0.3c0,0,0.1,0.1,0,0.1c0,0-0.1-0.1,0-0.2l1,0.3
	c0.1-0.2,0-0.4-0.1-0.5c-0.1-0.1-0.1-0.2-0.2-0.3c-0.2-0.1-0.4-0.3-0.5-0.4c-0.2-0.1-0.4-0.2-0.6-0.3c-0.2-0.1-0.3-0.2-0.3-0.2
	L44.5,22.7z M45.8,23.3c0-0.2,0.2-0.2,0.2-0.3c0.1,0,0.1,0,0.1,0c0,0,0,0,0,0c0,0-0.1,0-0.2,0c-0.2,0-0.5-0.1-0.9-0.1
	c-0.3,0-0.7-0.1-0.9-0.1c-0.1,0-0.3,0-0.4-0.1c-0.1,0-0.2,0-0.3,0l0,1c0,0,0,0,0.1,0c0.1,0,0.2,0,0.3,0.1c0.3,0,0.6,0.1,0.9,0.1
	c0.3,0,0.7,0.1,0.9,0.1c0.1,0,0.2,0,0.4,0c0,0,0.1,0,0.2,0c0,0,0.1,0,0.2-0.1c0.1,0,0.2-0.1,0.2-0.3L45.8,23.3z M43.5,22.6
	c0,0-0.1,0-0.3-0.1c-0.2,0-0.3-0.1-0.5-0.1c-0.1,0-0.2,0-0.2-0.1c-0.1,0-0.2,0-0.3,0c0,0-0.1,0-0.2,0c-0.1,0-0.2,0.1-0.3,0.3
	c-0.1,0.2,0,0.3,0,0.4c0,0.1,0.1,0.1,0.1,0.2l0.8-0.6c0,0,0,0,0,0c0,0,0,0,0,0c0,0,0.1,0.2,0,0.3c-0.1,0.2-0.2,0.2-0.3,0.3
	c-0.1,0-0.1,0-0.1,0c0,0,0,0,0,0c0,0,0.1,0,0.2,0c0.1,0,0.3,0.1,0.5,0.1c0.2,0,0.4,0.1,0.5,0.1L43.5,22.6z M41.8,23.2
	c0.1,0.1,0.2,0.3,0.3,0.3c0.1,0,0.1,0.1,0.2,0.1c0,0,0.1,0.1,0.1,0.1c0.1,0.1,0.1,0.1,0.1,0.1c0,0,0,0,0,0h1c0-0.5-0.3-0.8-0.5-0.9
	c-0.1,0-0.1-0.1-0.1-0.1c0,0-0.1-0.1-0.1-0.1c-0.1-0.1-0.1-0.1-0.1-0.1L41.8,23.2z M43.1,23.5c-0.5-0.4-1.1-0.7-1.6-0.9
	c-0.5-0.2-1.2-0.4-1.7-0.5l-0.3,0.9c0.6,0.2,1.1,0.3,1.6,0.5c0.5,0.2,1,0.4,1.3,0.7L43.1,23.5z M39.9,22c-0.1,0-0.3-0.1-0.5-0.1
	c-0.2,0-0.4-0.1-0.6,0c-0.2,0-0.6,0.1-0.7,0.5c-0.1,0.2,0,0.4,0,0.5c0,0.1,0.1,0.3,0.2,0.4l0.8-0.5c-0.1-0.1-0.1-0.1-0.1-0.1
	c0,0,0,0,0,0.1c0,0.1-0.1,0.1-0.1,0.2c0,0,0,0,0,0c0.1,0,0.2,0,0.3,0c0.1,0,0.3,0.1,0.3,0.1L39.9,22z M38.3,23.2
	c0.3,0.5,0.9,0.9,1.3,1.1l0.5-0.9c-0.4-0.2-0.8-0.5-1-0.8L38.3,23.2z M39.6,24.3c0.1,0,0.2,0.1,0.2,0.1c0.1,0,0.2,0.1,0.2,0.1
	c0.1,0,0.1,0.1,0.2,0.1c0.1,0,0,0,0,0L41,24c-0.1-0.1-0.2-0.2-0.3-0.2c-0.1,0-0.2-0.1-0.3-0.1c-0.2-0.1-0.3-0.1-0.4-0.2L39.6,24.3z
	 M40.3,24.6c0,0,0.1,0.1,0.1,0.1c0,0,0.1,0.1,0.1,0.1c0,0,0.1,0.1,0.1,0.1c0,0,0,0,0,0c0,0,0,0,0-0.1c0,0,0-0.1,0-0.2
	c0-0.1,0-0.3,0.2-0.4c0.1-0.1,0.3-0.1,0.3-0.1v1c0.1,0,0.2,0,0.3-0.1c0.1-0.1,0.2-0.3,0.2-0.4c0-0.1,0-0.1,0-0.2c0,0,0-0.1,0-0.1
	c0,0-0.1-0.1-0.1-0.1c0,0-0.1-0.1-0.1-0.1c0,0-0.1-0.1-0.1-0.1c0,0,0,0,0,0L40.3,24.6z M41,24.1c-0.7,0-1.5,0-2.2,0l0.1,1
	c0.7,0,1.4,0,2.1,0V24.1z M38.8,24.1c-0.2,0-0.8,0.1-1.4,0.2c-0.3,0-0.6,0.1-0.8,0.2c-0.1,0-0.2,0.1-0.4,0.2c-0.1,0-0.2,0.2-0.2,0.3
	c0,0.2,0.1,0.4,0.1,0.5l0.7-0.7c0.1,0.1,0.1,0.2,0.1,0.4c0,0.2-0.1,0.2-0.1,0.2c0,0,0,0,0,0c0.1,0,0.4-0.1,0.7-0.1
	c0.6-0.1,1.2-0.2,1.3-0.2L38.8,24.1z M36.1,25.5c0.3,0.3,0.6,0.5,0.9,0.6c0.3,0.1,0.7,0.3,0.9,0.4l0.4-0.9c-0.3-0.1-0.6-0.2-0.8-0.3
	c-0.3-0.1-0.5-0.3-0.6-0.4L36.1,25.5z M38,26.5c0.1,0,0.3,0.1,0.5,0.2c0,0,0,0,0,0c0,0,0,0,0,0c0,0-0.1-0.1-0.1-0.2
	c0-0.1,0-0.1,0-0.2c0-0.1,0.1-0.2,0.1-0.2c0.1-0.1,0.2-0.1,0.2-0.1c0,0,0.1,0,0,0v1c0.1,0,0.2,0,0.3,0c0,0,0.2-0.1,0.3-0.2
	c0.1-0.1,0.2-0.3,0.1-0.5c0-0.1-0.1-0.2-0.1-0.2c0,0-0.1-0.1-0.1-0.1c-0.1,0-0.1-0.1-0.2-0.1c-0.2-0.1-0.5-0.2-0.5-0.2L38,26.5z
	 M38.6,25.9c-0.4,0-0.7,0-1.1-0.1c-0.4,0-0.8-0.1-1.3,0l0.1,1c0.3,0,0.7,0,1.1,0c0.4,0,0.8,0.1,1.2,0.1V25.9z M36.3,25.8
	c-0.5,0.1-1,0.2-1.5,0.4c-0.5,0.2-0.8,0.3-1.3,0.4l0.1,1c0.5-0.1,1-0.2,1.5-0.4c0.4-0.2,0.8-0.3,1.3-0.3L36.3,25.8z M33.5,26.5
	c-0.4,0.1-0.9,0.1-1.2,0.2l0.1,1c0.4,0,0.9-0.1,1.3-0.2L33.5,26.5z M32.3,26.6c0,0-0.1,0-0.1,0c0,0,0,0,0,0c0,0,0,0,0,0
	c0,0,0,0-0.1,0c0,0-0.1,0-0.1,0.1c0,0-0.2,0.2-0.2,0.5c0.1,0.2,0.2,0.3,0.2,0.3c0,0,0.1,0,0.1,0c0.1,0,0.1,0,0.1,0c0,0,0.1,0,0.1,0
	c0.1,0,0.3,0,0.5,0c0.5,0,1.1,0,1.4,0v-1c-0.3,0-0.9,0-1.4,0C32.6,26.7,32.4,26.7,32.3,26.6C32.3,26.7,32.3,26.7,32.3,26.6
	C32.3,26.7,32.3,26.7,32.3,26.6C32.3,26.7,32.3,26.7,32.3,26.6c0.1,0,0.1,0,0.2,0.1c0,0,0.2,0.1,0.2,0.3c0.1,0.3-0.1,0.5-0.2,0.5
	c-0.1,0-0.1,0.1-0.1,0.1c0,0-0.1,0-0.1,0c0,0,0,0,0,0c0,0,0,0,0,0c0,0,0,0,0.1,0L32.3,26.6z M34.2,27.6h2.1v-1h-2.1V27.6z
	 M36.3,27.6C36.3,27.6,36.3,27.6,36.3,27.6C36.3,27.6,36.3,27.6,36.3,27.6c-0.1,0-0.2-0.1-0.3-0.2c-0.1-0.1-0.1-0.2-0.1-0.3
	c0-0.1,0-0.2,0-0.3c0.1-0.1,0.1-0.2,0.1-0.2c0,0,0.1,0,0.1,0c0,0-0.2,0.1-0.4,0.1c-0.4,0.1-1,0.2-1.2,0.3l0.2,1
	c0.3-0.1,0.8-0.2,1.3-0.3c0.2,0,0.4-0.1,0.5-0.2c0,0,0.1,0,0.2-0.1c0,0,0.1-0.1,0.2-0.2c0-0.1,0.1-0.2,0-0.3c0-0.1-0.1-0.2-0.1-0.3
	c-0.1-0.1-0.2-0.1-0.2-0.2c0,0-0.1,0-0.1,0c-0.1,0-0.1,0-0.1,0V27.6z M34.5,27.1c-1.8,0.4-3.5,1-5.2,1.5l0.3,0.9
	c1.7-0.6,3.3-1.2,5-1.5L34.5,27.1z M29.4,28.7c-0.1,0-0.4,0.1-0.6,0.2c-0.1,0-0.2,0.1-0.3,0.1c0,0-0.1,0-0.1,0.1
	c0,0-0.1,0.1-0.2,0.2c0,0.1-0.1,0.2-0.1,0.3c0,0.1,0.1,0.2,0.1,0.3c0.1,0.1,0.2,0.1,0.2,0.2c0,0,0.1,0,0.1,0c0,0,0.1,0,0.1,0v-1
	c0,0,0,0,0,0c0,0,0,0,0.1,0c0,0,0.1,0,0.2,0.1c0.1,0.1,0.1,0.2,0.1,0.3c0,0.1,0,0.2,0,0.3c-0.1,0.1-0.1,0.2-0.2,0.2c0,0-0.1,0-0.1,0
	c0,0,0,0,0,0c0,0,0,0,0,0c0,0,0.1,0,0.1,0c0.2,0,0.5-0.1,0.7-0.2L29.4,28.7z M28.7,29.9c0.4,0,0.9,0,1.3-0.1c0.4,0,0.8-0.1,1.3-0.1
	v-1c-0.5,0-0.9,0-1.3,0.1c-0.4,0-0.8,0.1-1.2,0.1V29.9z M31.3,29.8c0,0,0.1,0,0.2,0c0.1,0,0.3,0,0.4,0c0.1,0,0.1,0,0.2,0
	c0.1,0,0,0,0,0c0,0-0.1-0.1-0.2-0.2c-0.1-0.2,0-0.4,0.1-0.5C32,29.1,32,29,32,29c0,0,0,0,0,0l0.3,1c0,0,0.1,0,0.2-0.1
	c0,0,0.1-0.1,0.2-0.2c0.1-0.1,0.2-0.3,0.1-0.5c-0.1-0.2-0.2-0.2-0.2-0.3c-0.1-0.1-0.2-0.1-0.3-0.1c-0.1,0-0.2,0-0.2,0
	c-0.3,0-0.7-0.1-0.8-0.1V29.8z M32,29.1c-1,0.3-2.1,0.6-3.1,1.1l0.4,0.9c0.9-0.4,1.9-0.7,3-1L32,29.1z M28.9,30.1L28.9,30.1l0.4,0.9
	l0,0L28.9,30.1z M28.9,30.1c-0.5,0.2-1.1,0.5-1.4,1.1l0.9,0.5c0.2-0.3,0.5-0.5,1-0.7L28.9,30.1z M27.5,31.3
	c-0.1,0.1-0.1,0.2-0.1,0.4c0,0.1,0,0.2,0.1,0.3c0.1,0.1,0.1,0.2,0.2,0.2c0.2,0.1,0.3,0.1,0.4,0.1c0.1,0,0.2,0,0.3,0
	c0.2,0,0.3-0.1,0.5-0.2C29,32,29.1,32,29.1,32l-0.3-1c-0.1,0-0.3,0.1-0.4,0.1c-0.2,0.1-0.3,0.1-0.4,0.1c-0.1,0-0.1,0-0.1,0
	c0,0,0,0,0.1,0c0.1,0,0.1,0.1,0.2,0.2c0,0.1,0.1,0.2,0.1,0.2c0,0.1,0,0.1,0,0.1L27.5,31.3z M29.1,32c0.2-0.1,0.4-0.1,0.6-0.2
	c0.2-0.1,0.4-0.1,0.6-0.2c0.4-0.1,0.7-0.2,1.1-0.2v-1c-0.5,0-0.9,0.1-1.3,0.2c-0.2,0.1-0.4,0.1-0.6,0.2c-0.2,0.1-0.4,0.1-0.6,0.2
	L29.1,32z M31.3,31.5C31.4,31.5,31.4,31.5,31.3,31.5C31.3,31.5,31.3,31.5,31.3,31.5c-0.1,0-0.2-0.1-0.3-0.2
	c-0.1-0.1-0.1-0.2-0.1-0.3c0-0.1,0-0.2,0-0.3c0.1-0.1,0.1-0.2,0.1-0.2c0,0,0,0,0.1,0c0,0,0,0,0,0c0,0,0,0,0,0c0,0,0,0-0.1,0
	c-0.1,0-0.1,0-0.2,0.1c-0.1,0-0.3,0.1-0.5,0.1c-0.2,0-0.3,0.1-0.5,0.2l0.4,0.9c0,0,0.2-0.1,0.3-0.1c0.1,0,0.3-0.1,0.5-0.1
	c0.1,0,0.3-0.1,0.4-0.1c0,0,0.1,0,0.1-0.1c0,0,0.1-0.1,0.2-0.2c0-0.1,0.1-0.2,0-0.3c0-0.1-0.1-0.2-0.1-0.3c-0.1-0.1-0.2-0.2-0.2-0.2
	c0,0-0.1,0-0.1,0c0,0-0.1,0-0.1,0V31.5z M30,31c-1,0.5-2.1,1-3.1,1.5l0.4,0.9c1-0.5,2.1-1,3.1-1.5L30,31z M26.8,32.4
	c-0.3,0.2-0.7,0.3-1.1,0.5c-0.4,0.2-0.9,0.4-1.2,0.6l0.6,0.8c0.3-0.2,0.6-0.3,1-0.5c0.4-0.1,0.8-0.3,1.2-0.5L26.8,32.4z M24.5,33.5
	c-0.1,0.1-0.5,0.4-0.8,0.6c-0.1,0.1-0.2,0.1-0.2,0.2c-0.1,0.1-0.1,0.2-0.2,0.3c0,0.1-0.1,0.2,0,0.4c0,0.2,0.2,0.3,0.3,0.3
	c0.1,0.1,0.2,0.1,0.3,0.1c0.1,0,0.1,0,0.2,0l-0.1-1c0,0,0,0,0,0c0,0,0.1,0,0.1,0c0.1,0,0.2,0.1,0.2,0.3c0,0.1,0,0.2,0,0.3
	c0,0.1,0,0.1,0,0c0,0,0.1-0.1,0.1-0.1c0.3-0.2,0.6-0.4,0.8-0.6L24.5,33.5z M24,35.4c0.8-0.1,1.7-0.3,2.4-0.5
	c0.8-0.2,1.5-0.4,2.3-0.4l0-1c-0.9,0-1.7,0.2-2.5,0.4c-0.8,0.2-1.5,0.4-2.3,0.5L24,35.4z M28.7,34.5c0.2,0,0.4,0,0.6,0v-1
	c-0.2,0-0.4,0-0.7,0L28.7,34.5z M29.3,34.5C29.3,34.5,29.3,34.5,29.3,34.5c0,0-0.1,0-0.2-0.1c-0.1-0.1-0.2-0.2-0.2-0.4
	c0-0.1,0.1-0.2,0.1-0.3c0-0.1,0.1-0.1,0.1-0.1c0,0,0,0-0.1,0c-0.1,0-0.1,0.1-0.2,0.1c0,0-0.1,0-0.1,0.1c0,0-0.1,0-0.1,0.1l0.6,0.8
	c0,0,0,0,0,0c0,0,0.1,0,0.1-0.1c0.1,0,0.2-0.1,0.3-0.1c0,0,0.1-0.1,0.1-0.1c0,0,0.1-0.1,0.2-0.2c0,0,0.1-0.2,0.1-0.3
	c0-0.2-0.1-0.3-0.2-0.4c-0.1-0.1-0.2-0.1-0.2-0.1c-0.1,0-0.1,0-0.1,0V34.5z M28.5,34c-1.4,1.1-2.8,2.2-4.3,3.1l0.5,0.9
	c1.6-0.9,3-2.1,4.4-3.2L28.5,34z M24.2,37.1c-0.2,0.1-0.5,0.2-0.8,0.4c-0.1,0.1-0.3,0.1-0.4,0.2c0,0-0.1,0.1-0.1,0.1
	c0,0-0.1,0.1-0.1,0.2c0,0.1,0,0.3,0.1,0.4c0.1,0.1,0.2,0.1,0.2,0.1c0.1,0,0.1,0,0.1,0c0.1,0,0.1,0,0.1,0l-0.1-1c0,0,0,0,0,0
	c0,0,0,0,0.1,0c0,0,0.1,0,0.2,0.1c0.1,0.1,0.1,0.3,0.1,0.4c0,0.1-0.1,0.2-0.1,0.2c0,0,0,0.1-0.1,0.1c0,0,0,0,0,0c0,0,0,0,0.1,0
	c0,0,0.1-0.1,0.2-0.1c0.3-0.1,0.7-0.3,0.9-0.4L24.2,37.1z M23.4,38.7c0.5-0.1,1-0.3,1.5-0.5c0.5-0.2,0.9-0.5,1.2-0.6l-0.4-0.9
	c-0.4,0.2-0.9,0.4-1.3,0.7c-0.4,0.2-0.8,0.4-1.1,0.4L23.4,38.7z M26.1,37.6c1.2-0.5,2.4-1.1,3.6-1.7L29.2,35
	c-1.1,0.6-2.3,1.2-3.5,1.7L26.1,37.6z M29.7,35.8C29.7,35.9,29.7,35.8,29.7,35.8c0.1,0,0.3,0,0.5-0.1l-0.4-0.9c0,0,0,0-0.1,0
	c-0.1,0-0.3,0-0.5,0.1L29.7,35.8z M30.2,35.8C30.3,35.8,30.3,35.8,30.2,35.8C30.3,35.8,30.3,35.8,30.2,35.8
	C30.3,35.8,30.3,35.8,30.2,35.8C30.2,35.8,30.2,35.8,30.2,35.8c-0.1,0-0.2,0-0.2,0c-0.1,0-0.2-0.1-0.3-0.3c-0.1-0.1,0-0.3,0-0.3
	c0-0.1,0.1-0.2,0.1-0.2c0,0,0,0,0,0c-0.1,0-0.2,0.1-0.4,0.3c-0.4,0.3-1,0.6-1.3,0.8l0.6,0.8c0.3-0.2,0.8-0.5,1.3-0.8
	c0.2-0.1,0.4-0.3,0.5-0.3c0,0,0.1-0.1,0.1-0.1c0,0,0.1-0.1,0.1-0.2c0-0.1,0-0.2,0-0.4c-0.1-0.2-0.2-0.2-0.3-0.3c-0.1,0-0.3,0-0.3,0
	c0,0-0.1,0-0.1,0c0,0-0.1,0-0.1,0L30.2,35.8z M28.1,36c-0.5,0.3-1,0.7-1.5,1c-0.5,0.3-1.1,0.7-1.5,1.1l0.6,0.8
	c0.4-0.4,0.9-0.7,1.5-1c0.5-0.3,1-0.7,1.6-1L28.1,36z M25,38.1c-0.7,0.5-1.2,1-1.9,1.3l0.4,0.9c0.8-0.4,1.4-0.9,2.1-1.4L25,38.1z
	 M23.1,39.4c-0.9,0.4-1.6,0.9-2.2,1.7l0.8,0.6c0.5-0.7,1.1-1,1.9-1.5L23.1,39.4z M20.9,41.2c-0.1,0.1-0.1,0.2-0.1,0.3
	c0,0.1,0,0.2-0.1,0.3c0,0.1,0,0.2,0,0.3c0,0.1,0,0.3,0.2,0.4l0.6-0.8c0.1,0.1,0.1,0.1,0.1,0.2c0,0,0,0.1,0,0.1c0,0,0,0,0,0
	c0,0,0-0.1,0-0.1c0,0,0,0,0,0c0,0,0,0,0,0c0,0,0,0,0,0L20.9,41.2z M20.9,42.4c0.2,0.2,0.4,0.1,0.6,0.1c0.1,0,0.3-0.1,0.4-0.1
	c0.2-0.1,0.5-0.3,0.8-0.5c0.3-0.2,0.5-0.4,0.7-0.5c0.2-0.2,0.3-0.3,0.4-0.3l-0.5-0.8c-0.1,0.1-0.3,0.2-0.4,0.3
	c-0.2,0.1-0.4,0.3-0.7,0.5c-0.2,0.2-0.5,0.3-0.6,0.4c-0.1,0-0.1,0.1-0.2,0.1c0,0,0.1,0,0.2,0.1L20.9,42.4z M23.8,41.2
	c0.7-0.5,1.5-0.9,2.2-1.3L25.5,39c-0.8,0.4-1.5,0.9-2.3,1.4L23.8,41.2z M26,39.8c0.1,0,0.1-0.1,0.1-0.1c0,0,0,0,0,0c0,0-0.1,0-0.2,0
	c-0.1-0.1-0.2-0.2-0.2-0.3c0-0.1,0-0.2,0-0.2c0,0,0-0.1,0,0c-0.1,0.1-0.3,0.4-0.4,0.5l0.7,0.7c0.1-0.1,0.4-0.4,0.5-0.7
	c0-0.1,0.1-0.1,0.1-0.3c0-0.1,0-0.2,0-0.3c0-0.1-0.1-0.3-0.3-0.4c-0.1-0.1-0.2-0.1-0.3-0.1c-0.1,0-0.1,0-0.2,0
	c-0.1,0-0.2,0.1-0.3,0.1L26,39.8z M25.2,39.7L25.2,39.7l0.7,0.7l0.1-0.1L25.2,39.7z M25.2,39.7c-0.7,0.7-1.4,1.5-2,2.3l0.8,0.6
	c0.6-0.8,1.3-1.5,2-2.2L25.2,39.7z M23.1,42c0,0-0.1,0.1-0.2,0.2c-0.1,0.1-0.2,0.2-0.3,0.3c-0.1,0.1-0.2,0.3-0.3,0.4
	c-0.1,0.1-0.2,0.3-0.2,0.6h1c0,0.1,0,0.1,0,0c0-0.1,0.1-0.2,0.2-0.3c0.1-0.1,0.2-0.2,0.3-0.3c0.1-0.1,0.2-0.2,0.2-0.3L23.1,42z
	 M22.1,43.5c0,0.1,0,0.3,0.2,0.4c0.2,0.2,0.4,0.1,0.5,0.1c0.1,0,0.2-0.1,0.2-0.1c0,0,0.1-0.1,0.1-0.1c0.1-0.1,0.1-0.1,0.2-0.2
	c0.1-0.1,0.1-0.1,0.1-0.1l-0.6-0.8c-0.1,0-0.1,0.1-0.2,0.2c-0.1,0.1-0.1,0.1-0.1,0.1c0,0,0,0,0,0c0,0,0,0,0.1,0c0,0,0.2-0.1,0.4,0.1
	c0.2,0.1,0.2,0.3,0.2,0.3H22.1z M23.4,43.6c0.4-0.3,0.7-0.6,1.1-0.8L24,41.9c-0.5,0.3-0.9,0.6-1.2,0.9L23.4,43.6z M24.6,42.7
	c0.4-0.3,1-0.6,1.4-0.9L25.5,41c-0.5,0.3-0.9,0.5-1.4,0.9L24.6,42.7z M26,41.9c0.1,0,0.1-0.1,0.2-0.1c0,0,0.1-0.1,0.1-0.1
	c0,0,0,0,0,0c0,0,0,0,0,0c0,0,0,0-0.1,0c0,0-0.2,0.1-0.4-0.1c-0.2-0.1-0.2-0.3-0.2-0.4h1c0-0.1,0-0.3-0.2-0.4
	c-0.2-0.2-0.4-0.1-0.5-0.1c-0.1,0-0.1,0.1-0.2,0.1c0,0-0.1,0.1-0.1,0.1c0,0-0.1,0.1-0.1,0.1c0,0-0.1,0-0.1,0L26,41.9z M25.6,41.2
	c0-0.1,0-0.1,0-0.1C25.6,41.1,25.6,41.2,25.6,41.2c-0.2,0.1-0.3,0.3-0.5,0.4c-0.4,0.3-0.7,0.5-0.9,0.6l0.6,0.8
	c0.1-0.1,0.5-0.4,0.9-0.7c0.2-0.2,0.4-0.3,0.5-0.5c0.1-0.1,0.2-0.2,0.2-0.3c0.1-0.1,0.1-0.2,0.1-0.4H25.6z M24.2,42.3
	c-0.4,0.3-0.8,0.6-1.3,0.9c-0.4,0.3-0.9,0.6-1.3,0.9l0.6,0.8c0.4-0.3,0.8-0.6,1.3-0.9c0.4-0.3,0.9-0.6,1.3-0.9L24.2,42.3z M21.6,44
	c-0.7,0.5-1.5,1-2.2,1.6c-0.7,0.6-1.4,1.3-1.8,2.2l0.9,0.4c0.3-0.7,0.9-1.3,1.5-1.9c0.7-0.6,1.4-1,2.1-1.6L21.6,44z M17.6,47.8
	c0,0.1-0.1,0.3-0.1,0.5c0,0.1,0,0.3,0.2,0.5c0.2,0.2,0.5,0.2,0.6,0.2l-0.3-1c0,0,0,0,0.1,0c0.1,0,0.2,0,0.2,0.1
	c0.1,0.1,0.1,0.1,0.1,0.2c0,0,0,0.1,0,0.1c0,0,0,0,0,0c0,0,0,0,0,0c0,0,0-0.1,0-0.1L17.6,47.8z M18.3,49c0.6-0.2,1.2-0.5,1.8-0.9
	c0.5-0.4,1.1-0.8,1.5-1.1L21,46.2c-0.5,0.3-0.9,0.7-1.5,1.1c-0.5,0.4-1,0.6-1.5,0.8L18.3,49z M21.6,47c0.7-0.5,1.4-1.1,2.2-1.4
	l-0.5-0.9c-0.8,0.4-1.6,1-2.3,1.5L21.6,47z M23.7,45.6C23.7,45.6,23.7,45.6,23.7,45.6c0,0-0.1,0-0.3,0c-0.2-0.1-0.3-0.2-0.3-0.3
	c0-0.1,0-0.2,0-0.2c0,0,0,0,0,0c0,0-0.1,0.1-0.1,0.1c-0.2,0.2-0.4,0.5-0.4,0.6l0.8,0.6c0,0,0,0,0,0c0,0,0,0,0,0c0,0,0,0,0,0
	c0,0,0.1-0.1,0.1-0.1c0.1-0.1,0.2-0.3,0.3-0.4c0-0.1,0.1-0.1,0.1-0.2c0-0.1,0.1-0.2,0.1-0.3c0,0,0-0.2,0-0.3c0-0.2-0.2-0.3-0.4-0.4
	c-0.1,0-0.3,0-0.3,0c-0.1,0-0.1,0-0.2,0.1L23.7,45.6z M22.6,45.8c-0.7,0.9-1.3,1.8-1.9,2.7c-0.6,0.9-1.3,1.7-2,2.5l0.7,0.7
	c0.8-0.8,1.4-1.7,2.1-2.6c0.6-0.9,1.3-1.8,1.9-2.6L22.6,45.8z M18.7,51c-0.3,0.4-0.6,0.8-0.9,1.2c-0.3,0.4-0.5,0.7-0.7,1l0.7,0.7
	c0.3-0.4,0.6-0.8,0.8-1.2c0.3-0.4,0.5-0.7,0.8-1L18.7,51z M17.1,53.2c-0.1,0.1-0.3,0.4-0.5,0.6c-0.1,0.1-0.1,0.2-0.2,0.3
	c0,0,0,0.1,0,0.1c0,0,0,0.1,0,0.2c0,0.1,0.1,0.3,0.3,0.4c0.2,0.1,0.3,0,0.4,0c0.1,0,0.1,0,0.1-0.1c0,0,0.1-0.1,0.1-0.1L16.6,54
	c0,0,0,0,0,0c0,0,0.1,0,0.1,0c0,0,0.2,0,0.3,0c0.2,0.1,0.3,0.3,0.3,0.4c0,0.1,0,0.2,0,0.2c0,0,0,0,0,0.1c0,0,0,0,0,0c0,0,0,0,0-0.1
	c0,0,0-0.1,0.1-0.1c0.1-0.2,0.3-0.4,0.4-0.5L17.1,53.2z M17.3,54.7c0.8-0.7,1.7-1.5,2.5-2.1l-0.6-0.8c-0.9,0.7-1.8,1.4-2.6,2.2
	L17.3,54.7z M19.8,52.6c0.2-0.1,0.3-0.2,0.3-0.2c0,0,0,0,0,0c0,0,0,0-0.1,0c0,0-0.1,0-0.3,0c-0.1-0.1-0.2-0.2-0.2-0.3
	c0-0.1,0-0.2,0-0.2c0,0,0-0.1,0,0c0,0.1-0.1,0.2-0.2,0.4l0.8,0.6c0.1-0.2,0.2-0.4,0.3-0.5c0-0.1,0.1-0.1,0.1-0.2c0,0,0-0.1,0-0.2
	c0-0.1-0.1-0.3-0.3-0.3c-0.1-0.1-0.3-0.1-0.3,0c-0.1,0-0.1,0-0.2,0c-0.1,0-0.1,0.1-0.2,0.1c-0.1,0.1-0.3,0.2-0.4,0.3L19.8,52.6z
	 M19.4,52.2c-1.2,1.8-2.6,3.7-3.8,5.7l0.9,0.5c1.1-2,2.4-3.7,3.7-5.6L19.4,52.2z M15.6,57.9c0,0-0.2,0.3-0.2,0.4c0,0,0,0.1-0.1,0.2
	c0,0,0,0.2,0,0.3c0,0.1,0.1,0.2,0.2,0.3c0.1,0.1,0.3,0.1,0.3,0.1c0.1,0,0.3-0.1,0.3-0.1l-0.5-0.8c0,0,0,0,0.1,0c0.1,0,0.2,0,0.3,0.1
	c0.1,0.1,0.2,0.2,0.2,0.3c0,0.1,0,0.1,0,0.2c0,0,0,0,0,0c0,0,0,0,0,0c0-0.1,0.1-0.3,0.2-0.3L15.6,57.9z M16.2,59.1
	c0.5-0.3,0.8-0.7,1.1-1c0.3-0.4,0.6-0.7,0.9-1l-0.7-0.8c-0.4,0.3-0.7,0.7-1,1c-0.3,0.3-0.6,0.6-0.9,0.8L16.2,59.1z M18.2,57.1
	c0.5-0.4,1-0.8,1.6-1.2l-0.6-0.8c-0.5,0.4-1.1,0.8-1.7,1.2L18.2,57.1z M19.9,55.9C19.9,55.9,19.9,55.9,19.9,55.9
	c0.1-0.1,0.2-0.1,0.2-0.2c0.1-0.1,0.1-0.1,0.2-0.2c0.1-0.1,0.1-0.1,0.2-0.1c0,0,0,0,0,0c0,0,0,0,0,0c0,0-0.1,0-0.1,0v-1
	c-0.1,0-0.2,0.1-0.3,0.1c-0.1,0-0.1,0.1-0.2,0.1c-0.1,0.1-0.2,0.1-0.3,0.2c-0.1,0.1-0.2,0.1-0.2,0.2c-0.1,0.1-0.1,0.1-0.1,0.1
	L19.9,55.9z M20.3,55.5c-0.1,0-0.2,0-0.3-0.1c-0.1-0.1-0.2-0.2-0.2-0.3c0-0.1,0-0.1,0-0.2c0,0,0,0,0-0.1c0,0,0,0,0,0
	c0,0.1-0.1,0.2-0.2,0.3c-0.2,0.2-0.4,0.5-0.4,0.5l0.8,0.6c0,0,0.2-0.3,0.4-0.6c0.1-0.1,0.2-0.3,0.2-0.4c0-0.1,0.1-0.1,0.1-0.2
	c0,0,0-0.1,0-0.3c0-0.1-0.1-0.2-0.2-0.3c-0.1-0.1-0.2-0.1-0.3-0.1V55.5z M19.2,55.7c-1.3,1.7-2,3.7-2.8,5.4l0.9,0.4
	c0.9-1.9,1.5-3.7,2.7-5.3L19.2,55.7z M16.3,61.2c-0.1,0.1-0.2,0.4-0.3,0.6l0.9,0.4c0.1-0.3,0.2-0.5,0.3-0.6L16.3,61.2z M16.1,61.8
	c-0.1,0.2-0.1,0.3-0.2,0.4c0,0.1,0,0.1,0,0c0,0,0,0,0,0c0,0,0.1-0.1,0.1-0.1c0,0,0.2-0.1,0.3-0.1c0.2,0,0.3,0.1,0.4,0.2
	c0.1,0.1,0.1,0.2,0.1,0.2c0,0,0,0.1,0,0.1c0,0,0,0.1,0,0.1c0,0,0,0,0,0c0,0,0,0,0,0l-1-0.3c0,0,0,0,0,0c0,0,0,0.1,0,0.1
	c0,0,0,0,0,0.1c0,0,0,0.1,0.1,0.2c0.1,0.1,0.2,0.2,0.4,0.2c0.1,0,0.3,0,0.3-0.1c0.1,0,0.1-0.1,0.1-0.1c0,0,0,0,0,0
	c0-0.1,0.1-0.1,0.1-0.2c0.1-0.1,0.1-0.3,0.2-0.4L16.1,61.8z M16.8,62.6c0-0.1,0.1-0.2,0.2-0.4l-0.8-0.5c-0.1,0.2-0.2,0.4-0.3,0.6
	L16.8,62.6z M16.9,62.3c0.2-0.3,0.5-0.7,0.9-1c0.2-0.2,0.4-0.3,0.5-0.5c0.2-0.1,0.3-0.3,0.5-0.4l-0.7-0.7c-0.1,0.1-0.3,0.3-0.5,0.4
	c-0.2,0.2-0.4,0.3-0.6,0.5c-0.4,0.4-0.8,0.8-1,1.2L16.9,62.3z M18.8,60.4c0.4-0.4,0.9-0.7,1.4-1.1c0.5-0.4,1-0.8,1.4-1.3l-0.8-0.6
	c-0.3,0.4-0.8,0.8-1.2,1.2c-0.5,0.4-1,0.8-1.4,1.2L18.8,60.4z M21.6,57.9C21.6,57.9,21.6,57.9,21.6,57.9c0.1-0.1,0.1-0.1,0.1-0.1
	C21.7,57.8,21.7,57.8,21.6,57.9c0-0.1,0-0.1-0.1-0.1c-0.1,0-0.3,0-0.4-0.2C21,57.6,21,57.5,21,57.4c0-0.1,0-0.1,0-0.1c0,0,0,0,0,0.1
	l0.9,0.5c0-0.1,0.1-0.1,0.1-0.2c0,0,0-0.1,0-0.3c0-0.1,0-0.2-0.1-0.3c-0.1-0.1-0.3-0.2-0.4-0.2c-0.1,0-0.2,0-0.2,0
	c0,0-0.1,0-0.1,0.1C21.1,57,21,57.1,21,57.1c-0.1,0.1-0.1,0.1-0.1,0.2L21.6,57.9z M21,57.3c-0.2,0.4-0.5,0.8-0.8,1.2
	c-0.3,0.4-0.7,0.8-1,1.3l0.8,0.6c0.3-0.4,0.6-0.8,0.9-1.2c0.3-0.4,0.7-0.9,0.9-1.4L21,57.3z M19.1,59.8c-1,1.5-1.7,3.2-2.3,4.8
	l0.9,0.4c0.7-1.6,1.3-3.3,2.2-4.6L19.1,59.8z M16.8,64.6c-0.1,0.2-0.2,0.5-0.3,0.7l0.9,0.4c0.1-0.2,0.2-0.5,0.3-0.7L16.8,64.6z
	 M16.6,65.3c-0.1,0.1-0.1,0.3-0.2,0.4c-0.1,0.1-0.2,0.3-0.3,0.5l0.9,0.4c0-0.1,0.1-0.2,0.2-0.4c0.1-0.1,0.2-0.3,0.3-0.5L16.6,65.3z
	 M16.1,66.2C16.1,66.2,16.1,66.2,16.1,66.2C16.1,66.2,16.1,66.2,16.1,66.2c0,0,0-0.1,0.1-0.1c0,0,0.1-0.1,0.3-0.2
	c0.1,0,0.2,0,0.4,0.1c0.1,0.1,0.2,0.2,0.2,0.2c0,0.1,0,0.2,0,0.2c0,0,0,0.1,0,0.1c0,0,0,0,0,0c0,0,0,0,0,0c0,0,0,0,0,0
	c0-0.1,0-0.1,0.1-0.2c0-0.1,0.1-0.2,0.1-0.3c0-0.1,0.1-0.1,0.1-0.1l-0.9-0.5c0,0.1-0.1,0.2-0.1,0.3c0,0.1-0.1,0.2-0.1,0.3
	C16.1,66,16.1,66.1,16.1,66.2C16.1,66.2,16.1,66.2,16.1,66.2c0,0.1,0,0.1,0,0.1c0,0,0,0,0,0c0,0,0,0,0,0.1c0,0,0,0.1,0,0.2
	c0,0.1,0.1,0.1,0.2,0.2c0.1,0.1,0.3,0.1,0.4,0.1c0.2,0,0.3-0.1,0.3-0.2c0-0.1,0.1-0.1,0.1-0.1c0,0,0,0,0-0.1L16.1,66.2z M17.3,65.8
	c0.2-0.3,0.3-0.5,0.5-0.8l-0.9-0.5c-0.2,0.3-0.3,0.5-0.5,0.8L17.3,65.8z M17.7,65c1.1-1.9,2.4-3.6,3.8-5.2l-0.7-0.7
	c-1.5,1.7-2.8,3.5-3.9,5.4L17.7,65z M21.5,59.8L21.5,59.8l-0.7-0.7l0,0L21.5,59.8z M21.5,59.8c0.1-0.1,0.2-0.2,0.3-0.4
	c0,0,0.1,0,0.1-0.1c0,0,0,0-0.1,0c0,0-0.2,0.1-0.4,0c-0.2-0.1-0.2-0.4-0.2-0.4c0-0.1,0-0.1,0-0.1c0,0,0,0,0,0l0.9,0.4
	c0,0,0-0.1,0-0.1c0,0,0-0.1,0-0.2c0-0.1,0-0.3-0.3-0.5c-0.2-0.1-0.4-0.1-0.4,0c-0.1,0-0.2,0.1-0.2,0.1c0,0-0.1,0.1-0.1,0.1
	c-0.2,0.1-0.3,0.4-0.4,0.4L21.5,59.8z M21.2,58.9c-0.3,0.7-0.6,1.4-0.8,2.1l1,0.3c0.2-0.7,0.5-1.3,0.8-2L21.2,58.9z M20.4,61
	c-0.6,1.9-1.2,3.8-1.8,5.7l1,0.3c0.6-1.9,1.2-3.8,1.8-5.7L20.4,61z M18.6,66.7l-0.1,0.3l1,0.3l0.1-0.3L18.6,66.7z M18.5,66.9
	c-0.1,0.3-0.1,0.6-0.1,0.9c0,0.3,0,0.5,0,0.6l1,0.2c0.1-0.3,0-0.6,0-0.8c0-0.2,0-0.4,0.1-0.6L18.5,66.9z M18.4,68.5
	c-0.1,0.6-0.3,1.2-0.5,1.9l1,0.3c0.2-0.7,0.4-1.3,0.5-2L18.4,68.5z M18,70.4c0,0.2-0.1,0.3-0.1,0.4c0,0,0,0.1,0,0.2
	c0,0,0.1,0.1,0.1,0.2c0.1,0.1,0.2,0.1,0.4,0.1c0.1,0,0.2,0,0.2-0.1c0,0,0.1-0.1,0.1-0.1c0,0,0.1-0.1,0.1-0.1
	c0.1-0.1,0.1-0.2,0.2-0.3c0.1-0.1,0.1-0.2,0.2-0.3L18.4,70c-0.1,0.1-0.2,0.2-0.2,0.3c0,0.1-0.1,0.1-0.1,0.1c0,0,0,0,0,0c0,0,0,0,0,0
	c0,0,0,0,0,0c0,0,0,0,0,0c0,0,0,0,0.1-0.1c0,0,0.1-0.1,0.2-0.1c0.1,0,0.3,0,0.4,0.1c0.1,0.1,0.1,0.2,0.1,0.2c0,0,0,0.1,0,0.1
	c0,0,0,0,0,0c0,0,0,0,0,0c0,0,0-0.1,0.1-0.2L18,70.4z M19.2,70.6c0.9-1.2,1.8-2.3,2.8-3.5l-0.8-0.6c-0.9,1.2-1.9,2.3-2.8,3.5
	L19.2,70.6z M21.9,67.1C21.9,67.1,22,67.1,21.9,67.1C22,67,22.1,67,22.1,67c0.1-0.1,0.2-0.2,0.3-0.4c0.1-0.1,0.2-0.2,0.3-0.3
	c0,0,0,0,0,0c0,0,0,0,0,0c0,0,0,0,0,0c0,0,0,0-0.1,0c0,0-0.1,0-0.2,0c-0.1,0-0.3-0.1-0.4-0.2l0.9-0.5c-0.1-0.2-0.3-0.3-0.4-0.3
	c-0.1,0-0.2,0-0.2,0c-0.1,0-0.1,0.1-0.1,0.1c-0.1,0-0.1,0.1-0.2,0.1c-0.1,0.1-0.2,0.2-0.3,0.4c-0.2,0.3-0.5,0.5-0.5,0.6L21.9,67.1z
	 M22.1,66.1c0,0,0,0,0,0.1c0,0.1-0.1,0.3-0.1,0.5c-0.1,0.4-0.3,0.7-0.4,0.9l0.9,0.4c0.1-0.1,0.3-0.6,0.4-1c0.1-0.2,0.1-0.4,0.2-0.7
	c0-0.2,0-0.5-0.1-0.8L22.1,66.1z M21.6,67.6c-0.7,1.7-1.5,3.8-1.6,5.7l1,0.1c0.1-1.7,0.9-3.7,1.6-5.4L21.6,67.6z M19.9,73.3
	c0,0.3-0.1,0.6-0.1,0.9c-0.1,0.3-0.1,0.7-0.1,1.1h1c0-0.3,0-0.6,0.1-0.9c0.1-0.3,0.1-0.7,0.2-1.1L19.9,73.3z M19.6,75.3
	c0,0,0,0.2,0.1,0.3c0.1,0.1,0.1,0.1,0.2,0.2c0.1,0,0.2,0,0.2,0c0.1,0,0.2-0.1,0.2-0.1c0,0,0.1,0,0.1,0c0,0,0.1-0.1,0.1-0.1
	c0,0,0,0,0-0.1c0,0,0.1-0.1,0.1-0.1c0,0,0.1-0.1,0.1-0.1c0,0,0-0.1,0,0L20,74.7c0,0-0.1,0.1-0.1,0.2c0,0-0.1,0.1-0.1,0.1
	c0,0,0,0,0,0c0,0,0,0,0,0c0,0,0,0,0,0c0,0,0,0,0.1,0c0,0,0.1-0.1,0.2-0.1c0.1,0,0.1,0,0.2,0c0.1,0,0.2,0.1,0.2,0.2
	c0.1,0.1,0.1,0.3,0.1,0.3H19.6z M20.8,75.3c0.3-0.5,0.6-1,1-1.4L21,73.3c-0.4,0.5-0.7,1-1,1.4L20.8,75.3z M21.8,73.9
	c0.1-0.1,0.4-0.5,0.6-0.8c0.1-0.2,0.3-0.3,0.3-0.3c0,0,0,0,0,0c0,0-0.2,0.1-0.3,0c-0.2-0.1-0.3-0.3-0.3-0.4c0-0.1,0-0.1,0-0.1l1,0.2
	c0-0.1,0-0.1,0-0.2c0-0.1-0.1-0.3-0.3-0.4c-0.2-0.1-0.4,0-0.4,0c-0.1,0-0.1,0.1-0.2,0.1c-0.1,0.1-0.3,0.3-0.5,0.5
	c-0.3,0.4-0.6,0.8-0.7,0.9L21.8,73.9z M22,72.3c-0.3,1.3-0.4,2.5-0.4,3.9h1c0-1.3,0.1-2.4,0.4-3.7L22,72.3z M21.7,76.2
	c0,0.2,0,0.5,0,0.8c0,0.3,0,0.6,0.1,0.9l1-0.2c0-0.2,0-0.4,0-0.7c0-0.2,0-0.6,0-0.8H21.7z M21.7,77.9c0,0.1,0,0.1,0.1,0.2
	c0,0.1,0.1,0.2,0.3,0.3c0.2,0.1,0.4,0,0.5-0.1c0.1-0.1,0.1-0.1,0.2-0.2c0.1-0.2,0.2-0.4,0.3-0.6c0.1-0.2,0.2-0.5,0.2-0.8
	c0.1-0.3,0.1-0.5,0.2-0.6l-0.9-0.3c-0.1,0.2-0.1,0.4-0.2,0.7c-0.1,0.3-0.2,0.5-0.2,0.7c0,0.1-0.1,0.2-0.1,0.3c0,0.1-0.1,0.1-0.1,0.1
	c0,0,0,0,0,0c0,0,0,0,0.1-0.1c0.1,0,0.2-0.1,0.4,0c0.2,0.1,0.2,0.2,0.2,0.2c0,0,0,0,0,0L21.7,77.9z M23.4,76.2
	c0-0.1,0.1-0.4,0.2-0.7c0-0.1,0-0.1,0.1-0.1c0,0,0,0-0.1,0.1c-0.1,0-0.2,0.1-0.3,0.1c-0.1,0-0.2-0.1-0.3-0.2c-0.1-0.1-0.1-0.1,0-0.1
	l1-0.2c0-0.1,0-0.3-0.2-0.4c-0.1-0.1-0.2-0.2-0.3-0.2c-0.2,0-0.3,0-0.4,0.1c-0.1,0.1-0.2,0.2-0.3,0.3c0,0.1-0.1,0.2-0.1,0.2
	c-0.1,0.3-0.3,0.7-0.3,0.7L23.4,76.2z M23,75.3c0.2,0.9,0.4,1.9,0.4,2.8l1,0c0-1-0.2-2-0.4-2.9L23,75.3z M23.4,78.1
	c0,0.7,0,1.5,0,2.2h1c0-0.7,0-1.5,0-2.2L23.4,78.1z M23.4,80.3c0,0.1,0,0.2,0,0.3c0,0,0,0.1,0,0.1c0,0,0,0.1,0.1,0.2
	c0,0.1,0.1,0.1,0.3,0.2c0.1,0,0.3,0,0.3,0c0.1-0.1,0.2-0.2,0.2-0.2c0.1-0.1,0.1-0.2,0.1-0.2c0.1-0.2,0.2-0.7,0.2-0.8l-1-0.2
	c0,0.2-0.1,0.6-0.2,0.7c0,0,0,0,0,0c0,0,0.1-0.1,0.2-0.2c0.1,0,0.2-0.1,0.3,0c0.1,0,0.2,0.1,0.2,0.2c0,0,0.1,0.1,0.1,0.1
	c0,0,0,0,0,0c0,0,0,0,0,0c0,0,0-0.1,0-0.2H23.4z M24.7,79.9c0.2-0.9,0.6-1.6,1.1-2.5l-0.9-0.5c-0.5,0.9-1,1.7-1.2,2.8L24.7,79.9z
	 M25.8,77.4c0.1-0.2,0.2-0.3,0.2-0.3c0,0,0,0,0,0c0,0,0,0-0.1,0.1c0,0-0.1,0.1-0.3,0c-0.1,0-0.2-0.1-0.3-0.1
	c-0.1-0.1-0.1-0.1-0.1-0.1c0,0,0,0,0,0c0,0,0,0,0,0.1c0,0.1,0,0.2,0,0.4h1c0-0.2,0-0.3,0-0.4c0-0.1,0-0.1,0-0.2c0,0,0-0.2-0.2-0.3
	c-0.1-0.1-0.2-0.1-0.3-0.2c-0.1,0-0.2,0-0.3,0c-0.1,0.1-0.2,0.1-0.2,0.2c-0.1,0.1-0.2,0.3-0.3,0.4L25.8,77.4z M25.3,77.3
	c0,0.2,0,0.3-0.1,0.5c-0.1,0.2-0.3,0.5-0.3,0.9l1,0c0-0.2,0.1-0.3,0.2-0.5c0.1-0.2,0.3-0.5,0.3-0.9H25.3z M24.9,78.7
	c0,0.1,0,0.2,0.1,0.3c0.1,0.1,0.1,0.2,0.3,0.2c0.1,0,0.2,0,0.3,0c0.1,0,0.2-0.1,0.3-0.1c0.1,0,0.1-0.1,0.1-0.1
	c0.2-0.2,0.3-0.4,0.5-0.6c0.4-0.5,0.8-1.2,1-1.4l-0.9-0.5c-0.2,0.3-0.6,0.9-0.9,1.4c-0.2,0.2-0.3,0.4-0.4,0.5c0,0,0,0,0,0
	c0,0,0,0,0,0c0,0,0.1,0,0.1,0c0.1,0,0.1,0,0.2,0c0.1,0,0.2,0.1,0.2,0.2c0,0.1,0.1,0.1,0.1,0.2c0,0,0,0.1,0,0.1L24.9,78.7z
	 M26.6,76.8c0.4,2.9,0.7,6,1.7,9l1-0.3c-0.9-2.8-1.2-5.8-1.6-8.8L26.6,76.8z M28.3,85.8C28.3,85.8,28.3,85.8,28.3,85.8
	C28.3,85.8,28.3,85.8,28.3,85.8c0,0.1,0,0.2,0,0.2c0,0.1,0,0.3,0.1,0.4c0,0.1,0.1,0.3,0.1,0.5c0,0.1,0.1,0.2,0.1,0.2
	c0,0.1,0.1,0.2,0.2,0.3l0.6-0.8c0,0,0.1,0.1,0.1,0.1c0,0,0,0,0,0c0,0,0,0,0,0s0,0,0,0c0,0,0,0,0,0c0,0,0,0,0,0
	c0-0.1-0.1-0.2-0.1-0.3c0-0.1,0-0.3-0.1-0.4c0-0.1,0-0.3-0.1-0.4L28.3,85.8z M28.8,87.4c0.2,0.1,0.3,0.1,0.4,0.1
	c0.1,0,0.1-0.1,0.2-0.1c0.1,0,0.1-0.1,0.1-0.1c0,0,0.1-0.1,0.1-0.2c0.1-0.1,0.2-0.3,0.3-0.4c0.1-0.2,0.2-0.3,0.3-0.4
	c0-0.1,0.1-0.1,0.1-0.2c0,0,0-0.1,0-0.1l-0.8-0.6c0,0-0.1,0.2-0.2,0.3c-0.1,0.1-0.2,0.3-0.3,0.4c-0.1,0.1-0.2,0.3-0.3,0.4
	c0,0-0.1,0.1-0.1,0.1c0,0,0,0,0,0c0,0,0.1,0,0.1-0.1c0.1,0,0.2,0,0.4,0.1L28.8,87.4z M30.4,86.1c0.4-0.6,0.8-1.1,1.3-1.5L31,83.8
	c-0.5,0.5-1,1.1-1.4,1.7L30.4,86.1z M31.7,84.5c1.8-1.7,3.6-3.5,4.5-5.9l-0.9-0.4c-0.8,2.1-2.5,3.8-4.2,5.5L31.7,84.5z M36.1,78.6
	c0.2-0.6,0.5-1.2,0.8-1.8c0.3-0.6,0.5-1.2,0.8-1.9l-0.9-0.4c-0.2,0.6-0.5,1.2-0.8,1.8c-0.3,0.6-0.5,1.2-0.8,1.9L36.1,78.6z
	 M37.7,74.9c0-0.1,0.1-0.2,0.2-0.4c0.1-0.1,0.1-0.3,0.2-0.4c0.1-0.3,0.2-0.6,0.2-1h-1c0,0.2-0.1,0.4-0.2,0.6
	c-0.1,0.1-0.1,0.2-0.2,0.4c-0.1,0.1-0.1,0.3-0.2,0.4L37.7,74.9z M35.5,77.7c0,2.1,0.5,5.5,1,7.6l1-0.2c-0.5-2-0.9-5.3-0.9-7.4H35.5z
	 M36.5,85.3c0,0,0,0.1,0,0.1c0,0,0,0.1,0,0.1c0,0.1,0.1,0.2,0.2,0.4c0.1,0.1,0.2,0.2,0.3,0.2c0.1,0,0.3,0,0.4,0
	c0.2-0.1,0.3-0.2,0.4-0.3l-0.7-0.7c0,0-0.1,0.1-0.1,0.1c0,0,0,0,0,0c0,0,0.1,0,0.2,0c0.1,0,0.2,0.1,0.2,0.1c0,0,0,0.1,0,0.1
	c0,0,0,0,0-0.1c0,0,0-0.1,0-0.1c0,0,0-0.1,0-0.2L36.5,85.3z M37.8,85.9c0.2-0.2,0.3-0.4,0.3-0.6c0.1-0.2,0.1-0.4,0.1-0.6
	c0-0.2,0-0.3,0.1-0.4c0-0.1,0.1-0.2,0.1-0.2l-0.8-0.6c-0.2,0.2-0.2,0.4-0.3,0.6c0,0.2-0.1,0.4-0.1,0.6c0,0.2,0,0.3-0.1,0.4
	c0,0.1-0.1,0.2-0.1,0.2L37.8,85.9z M38.5,83.9c0.5-1.5,0.6-1.9,1-3l-0.9-0.3c-0.4,1.1-0.5,1.5-1,3L38.5,83.9z M39.4,80.9
	c0.1-0.3,0.5-1.7,0.8-3c0.2-0.7,0.3-1.4,0.5-1.9c0.1-0.3,0.1-0.5,0.2-0.7c0-0.2,0.1-0.4,0.1-0.5h-1c0,0,0,0,0,0c0,0,0,0,0,0.1
	c0,0.1,0,0.1,0,0.2c0,0.2-0.1,0.4-0.1,0.7c-0.1,0.5-0.3,1.2-0.5,1.9c-0.4,1.4-0.7,2.7-0.8,2.9L39.4,80.9z M44.4,68.2
	c-0.3,2.6-0.3,5.1-0.3,7.6h1c0-2.5,0-5,0.3-7.5L44.4,68.2z M44.2,75.9c0,0.2,0,0.5,0,0.7c0,0.2,0.1,0.4,0.3,0.6
	c0.1,0.1,0.2,0.2,0.4,0.2c0.2,0,0.3,0,0.4,0c0.3-0.1,0.5-0.2,0.7-0.5l-0.7-0.7c-0.1,0.1-0.2,0.1-0.2,0.2c-0.1,0-0.1,0-0.1,0
	c0,0,0,0,0.1,0c0.1,0,0.1,0,0.1,0.1c0,0,0,0,0,0c0,0,0-0.1,0-0.1c0-0.1,0-0.3,0-0.5H44.2z M46,76.9c1.4-1.3,2.8-2.6,3.9-4.3
	l-0.8-0.5c-1,1.6-2.4,2.7-3.8,4.1L46,76.9z M49.9,72.6c1-1.5,1.7-3.3,2.1-5l-1-0.3c-0.4,1.6-1.1,3.3-2,4.7L49.9,72.6z M55.5,67.6
	c0.1,0.5,0.2,1.5,0.4,2.5c0.2,1,0.4,2,0.6,2.5l0.9-0.4c-0.2-0.4-0.4-1.4-0.6-2.3c-0.2-1-0.3-1.9-0.4-2.5L55.5,67.6z M56.5,72.6
	c0,0,0.1,0.4,0.3,0.6c0,0.1,0.1,0.1,0.1,0.2c0.1,0.1,0.1,0.2,0.3,0.2c0.2,0.1,0.4,0.1,0.6,0c0.2-0.1,0.2-0.2,0.3-0.3l-0.9-0.4
	c0,0,0-0.1,0.1-0.1c0.1,0,0.1-0.1,0.2-0.1c0.1,0,0.1,0,0.2,0c0.1,0,0.1,0.1,0.1,0.1c0,0,0,0,0-0.1c-0.1-0.2-0.2-0.4-0.2-0.5
	L56.5,72.6z M58,73.2c0.2-0.5,0.6-1.1,1-1.6c0.4-0.6,0.7-1.2,1-1.8L59,69.5c-0.2,0.5-0.5,1-0.9,1.6c-0.4,0.5-0.7,1.1-1,1.8L58,73.2z
	 M60,69.8c0.2-0.4,0.2-0.9,0.2-1.2c0-0.4,0-0.6,0.1-0.9l-0.9-0.3c-0.2,0.4-0.2,0.9-0.1,1.2c0,0.4,0,0.6-0.1,0.9L60,69.8z M59.2,69.5
	c0.3,2,1.2,3.8,2,5.5l0.9-0.4c-0.8-1.8-1.6-3.4-1.9-5.2L59.2,69.5z M61.2,74.9c0.1,0.3,0.2,0.6,0.3,1.1c0.1,0.4,0.3,0.8,0.5,1.2
	l0.8-0.6c-0.2-0.2-0.3-0.5-0.4-0.9c-0.1-0.3-0.2-0.8-0.4-1.2L61.2,74.9z M62.1,77.2c0.1,0.1,0.2,0.2,0.3,0.2c0.2,0,0.3,0,0.4-0.1
	c0.1-0.1,0.2-0.2,0.2-0.2c0.1-0.1,0.1-0.3,0.2-0.4c0.1-0.3,0.2-0.6,0.2-0.7l-1-0.3c0,0.1-0.1,0.4-0.2,0.6c-0.1,0.1-0.1,0.2-0.1,0.3
	c0,0,0,0,0.1-0.1c0.1,0,0.2-0.1,0.3-0.1c0.2,0,0.3,0.1,0.3,0.2L62.1,77.2z M63.5,76c0.4-1.3,0.6-2.7,0.5-4.1l-1,0
	c0.1,1.3-0.1,2.6-0.5,3.8L63.5,76z M64,71.9c-0.1-1.1,0-2.1,0-3.3h-1c0,1-0.1,2.2,0,3.3L64,71.9z M68.5,78.3
	c0.2,1.2,0.9,2.4,2.1,3.7l0.7-0.7c-1.1-1.2-1.7-2.2-1.9-3.3L68.5,78.3z M70.5,81.8c0,0.2,0.1,0.4,0.3,0.6c0.1,0.2,0.2,0.4,0.4,0.6
	c0.1,0.2,0.2,0.4,0.3,0.5c0.1,0.2,0.2,0.3,0.2,0.4l1-0.3c-0.1-0.2-0.2-0.4-0.3-0.6c-0.1-0.2-0.2-0.4-0.4-0.6
	c-0.1-0.2-0.2-0.3-0.3-0.5c-0.1-0.2-0.1-0.3-0.2-0.4L70.5,81.8z M71.6,83.9c0,0.1,0.1,0.2,0.1,0.3c0,0,0,0.1,0.1,0.1
	c0,0,0.1,0.1,0.2,0.2c0.2,0.1,0.3,0,0.5,0c0.1-0.1,0.2-0.2,0.2-0.2c0.1-0.1,0.1-0.2,0.1-0.3c0.1-0.3,0.1-0.7,0.1-1.2
	c0-0.5,0-1.1,0-1.6c0-0.5,0-1,0-1.3l-1-0.1c0,0.3,0,0.8,0,1.4c0,0.5,0,1.1,0,1.6c0,0.5-0.1,0.9-0.1,1c0,0,0,0,0,0
	c0,0,0.1-0.1,0.1-0.1c0.1-0.1,0.3-0.1,0.4,0c0.1,0,0.2,0.1,0.2,0.1c0,0,0,0,0,0c0,0,0,0,0,0c0,0,0,0,0,0c0,0,0,0,0-0.1L71.6,83.9z
	 M73,79.9c0-0.2,0-0.4,0-0.6c0-0.1,0-0.2,0-0.3c0-0.1,0-0.1,0,0l-0.7-0.7c-0.1,0.1-0.2,0.3-0.2,0.5c0,0.1-0.1,0.3-0.1,0.4
	c0,0.2,0,0.6,0,0.6L73,79.9z M73.1,79c-0.1,0.1-0.1,0.1-0.2,0.1c-0.1,0-0.2,0-0.2,0c-0.1,0-0.1-0.1-0.1,0c0,0,0.1,0.1,0.2,0.2
	c0.1,0.2,0.3,0.5,0.3,0.6l0.9-0.5c0,0-0.2-0.4-0.3-0.6c-0.1-0.1-0.2-0.3-0.3-0.4c-0.1-0.1-0.2-0.1-0.3-0.2c-0.1,0-0.2,0-0.3,0
	c-0.1,0-0.2,0.1-0.3,0.2L73.1,79z M73,79.9c0.3,0.6,0.5,1.3,0.8,2c0.3,0.7,0.6,1.4,1,2.1l0.8-0.6c-0.4-0.5-0.7-1.2-0.9-1.9
	c-0.3-0.7-0.5-1.4-0.9-2.1L73,79.9z M74.9,83.9c0.1,0.1,0.4,0.5,0.7,0.8c0.2,0.2,0.3,0.3,0.4,0.5c0.1,0.1,0.1,0.1,0.2,0.2
	c0,0,0,0,0.1,0.1c0,0,0,0,0.1,0.1c0,0,0.1,0,0.2,0.1c0.1,0,0.3,0,0.4-0.1l-0.7-0.7c0.2-0.2,0.4-0.1,0.4-0.1c0.1,0,0.1,0,0.1,0
	c0,0,0.1,0,0.1,0c0,0,0,0,0,0c0,0-0.1-0.1-0.1-0.1c-0.1-0.1-0.3-0.3-0.4-0.5c-0.1-0.2-0.3-0.3-0.4-0.5c-0.1-0.1-0.1-0.1-0.1-0.2
	c0-0.1-0.1-0.1-0.1-0.1L74.9,83.9z M76.9,85.4c0.1-0.1,0.2-0.2,0.2-0.3c0-0.1,0.1-0.2,0.1-0.3c0-0.2,0.1-0.3,0.1-0.5
	c0-0.2,0-0.3,0-0.5c0-0.1,0-0.2,0-0.3l-1-0.1c0,0.1,0,0.2,0,0.3c0,0.1,0,0.3,0,0.4c0,0.2,0,0.3-0.1,0.4c0,0.1,0,0.1,0,0.1
	c0,0,0,0,0-0.1L76.9,85.4z M77.3,83.6c0.1-1,0.2-2,0.2-3l-1,0c0,0.9-0.1,1.9-0.2,2.9L77.3,83.6z M77.5,80.6c0-1-0.1-1.9-0.3-2.9
	l-1,0.2c0.2,0.9,0.3,1.7,0.3,2.6L77.5,80.6z M77.2,77.8c-0.1-0.3-0.2-0.5-0.2-0.7c-0.1-0.2-0.1-0.4-0.2-0.5l-1,0.2
	c0.1,0.3,0.1,0.5,0.2,0.7c0.1,0.2,0.1,0.4,0.2,0.5L77.2,77.8z M76.8,76.6c0-0.1-0.1-0.2-0.1-0.3l-0.9,0.5c0,0,0,0,0,0.1L76.8,76.6z
	 M76.7,76.2c0-0.1-0.1-0.1-0.1-0.2c0,0-0.1-0.1-0.1-0.1c0,0,0,0-0.1,0c0,0-0.1-0.1-0.2-0.1c0,0-0.1,0-0.2,0c-0.1,0-0.3,0.1-0.3,0.3
	c-0.1,0.1-0.1,0.2-0.1,0.3c0,0.1,0,0.1,0,0.1c0,0.1,0.1,0.1,0.1,0.2c0,0.1,0.1,0.1,0.2,0.2l0.7-0.7c0,0-0.1-0.1-0.1-0.1c0,0,0,0,0,0
	C76.5,76.1,76.5,76.1,76.7,76.2C76.6,76.2,76.6,76.2,76.7,76.2c-0.1,0.1-0.1,0.2-0.1,0.3c-0.1,0.1-0.2,0.2-0.3,0.3
	c-0.1,0-0.2,0-0.2,0c-0.1,0-0.1-0.1-0.1-0.1c0,0,0,0,0,0c0,0,0,0,0,0c0,0,0,0,0,0L76.7,76.2z M75.9,76.8
	C75.9,76.8,75.9,76.8,75.9,76.8l0.7-0.7c0,0,0,0,0,0L75.9,76.8z M75.9,76.9c0.3,0.3,0.6,0.4,0.9,0.5c0.1,0.1,0.3,0.1,0.4,0.2
	c0.1,0.1,0.3,0.1,0.4,0.1l0.4-0.9c-0.1-0.1-0.3-0.1-0.4-0.2c-0.1-0.1-0.3-0.1-0.4-0.1c-0.2-0.1-0.4-0.2-0.6-0.4L75.9,76.9z
	 M77.6,77.7c0.1,0,0.3,0.2,0.5,0.2c0.1,0,0.1,0,0.2,0c0.1,0,0.2,0,0.4-0.1c0.1,0,0.2-0.1,0.2-0.2c0.1-0.1,0.1-0.2,0.1-0.3
	c0-0.1-0.1-0.3-0.1-0.3L78,77.5c0,0,0,0,0-0.1c0-0.1,0-0.1,0.1-0.2c0-0.1,0.1-0.2,0.2-0.2c0.1,0,0.1,0,0.1,0c0,0,0,0,0.1,0
	c0,0,0,0,0,0c-0.1,0-0.3-0.1-0.4-0.2L77.6,77.7z M78.9,77c-0.4-0.6-0.9-1.2-1.3-1.7l-0.7,0.7c0.5,0.5,0.9,1,1.2,1.5L78.9,77z
	 M77.5,75.4C77.5,75.3,77.5,75.3,77.5,75.4c-0.1-0.1-0.1-0.1-0.2-0.2c0,0,0,0,0,0c0,0,0,0,0,0c0,0,0,0.1,0,0.1c0,0,0,0.1,0,0.2
	c0,0.1-0.1,0.2-0.1,0.2c-0.1,0.1-0.2,0.1-0.2,0.1c0,0,0,0,0.1,0v-1c-0.1,0-0.2,0-0.3,0c0,0-0.2,0-0.3,0.2c-0.1,0.2-0.2,0.4-0.1,0.5
	c0,0.1,0.1,0.2,0.1,0.2c0,0,0.1,0.1,0.1,0.1c0,0,0.1,0.1,0.2,0.2L77.5,75.4z M77.2,75.9c0.9,0,2.2,0.5,3.1,0.9l0.4-0.9
	c-0.9-0.4-2.4-1-3.5-1V75.9z M80.3,76.8c0.8,0.4,2,0.4,2.8,0.4v-1c-0.8,0-1.8-0.1-2.4-0.4L80.3,76.8z M83.1,77.2
	c0.3,0,0.7-0.1,0.9-0.1c0.3-0.1,0.4-0.1,0.6-0.1v-1c-0.3,0-0.7,0.1-0.9,0.1c-0.3,0.1-0.4,0.1-0.6,0.1V77.2z M84.6,77
	c0.2,0,0.6-0.1,1-0.1c0.2,0,0.3-0.1,0.5-0.1c0.1,0,0.1,0,0.2,0c0,0,0.1,0,0.1-0.1c0,0,0.1,0,0.1-0.1c0,0,0.1-0.1,0.1-0.2
	c0-0.1,0-0.3,0-0.4c-0.1-0.1-0.2-0.2-0.2-0.2l-0.5,0.9c0,0-0.1-0.1-0.2-0.2c-0.1-0.1-0.1-0.3,0-0.4c0-0.1,0.1-0.2,0.1-0.2
	c0,0,0.1-0.1,0.1-0.1c0,0,0.1,0,0.1,0c0,0,0,0,0,0c0,0,0,0,0,0c0,0,0,0,0,0c0,0,0,0,0,0c0,0,0,0-0.1,0c-0.1,0-0.3,0.1-0.4,0.1
	C85,75.9,84.7,76,84.6,76V77z M86.3,75.8c-0.5-0.3-0.9-0.4-1.4-0.5c-0.4-0.1-0.8-0.3-1.1-0.5l-0.6,0.8c0.4,0.3,0.9,0.5,1.4,0.6
	c0.5,0.2,0.8,0.3,1.2,0.5L86.3,75.8z M83.9,74.7c-0.3-0.2-0.7-0.4-1-0.6c-0.3-0.2-0.6-0.3-0.9-0.5l-0.6,0.8c0.3,0.3,0.7,0.5,1,0.7
	c0.3,0.2,0.6,0.3,0.9,0.5L83.9,74.7z M82,73.6c-0.4-0.3-0.6-0.8-0.6-1.2l-1,0.1c0.1,0.7,0.4,1.4,1,1.9L82,73.6z M81.4,72.4
	c0-0.5-0.2-0.9-0.3-1.3c-0.1-0.4-0.3-0.7-0.4-1.1l-1,0.3c0.1,0.4,0.3,0.8,0.4,1.2c0.1,0.4,0.2,0.7,0.2,1L81.4,72.4z M80.7,70
	c-0.2-0.9-0.5-1.7-0.7-2.5l-1,0.2c0.2,0.8,0.5,1.7,0.7,2.5L80.7,70z M80,67.5c-0.1-0.4-0.2-0.7-0.3-1c-0.1-0.3-0.2-0.5-0.2-0.8h-1
	c0,0.5,0.1,0.8,0.2,1.2c0.1,0.3,0.2,0.6,0.3,0.9L80,67.5z M79.5,65.7c0-0.4,0-0.7,0-1c0-0.3,0-0.6,0-0.8l-1-0.1
	c-0.1,0.4-0.1,0.7,0,1c0,0.3,0,0.6,0,0.9H79.5z M79.5,63.9c0.1-0.4,0.2-0.8,0.3-1.3c0.1-0.5,0.2-1,0.2-1.5h-1c0,0.4-0.1,0.8-0.2,1.3
	c-0.1,0.4-0.3,0.9-0.3,1.4L79.5,63.9z M80,61c0-0.2,0-0.6-0.1-0.7c0-0.1,0-0.2,0-0.1c0,0,0,0.1-0.1,0.1c0,0.1-0.2,0.3-0.5,0.2
	c-0.2,0-0.3-0.1-0.3-0.1c0,0,0,0,0,0c0,0,0,0,0,0l0.9-0.5c0,0,0-0.1-0.1-0.1c0,0-0.1-0.2-0.3-0.2c-0.3,0-0.4,0.2-0.5,0.3
	c0,0.1-0.1,0.2-0.1,0.2c0,0.1,0,0.3,0,0.4c0,0.3,0.1,0.5,0.1,0.7H80z M79.1,60.3c0.3,0.4,0.8,1,1.2,1.3l0.5-0.8
	c-0.3-0.2-0.7-0.6-0.9-0.9L79.1,60.3z M80.3,61.6c0.1,0,0.2,0.1,0.3,0.1c0.1,0,0.2,0,0.3-0.1c0.1-0.1,0.2-0.2,0.2-0.3
	c0-0.1,0.1-0.3,0.1-0.4c0-0.2,0-0.5,0-0.9c0-0.3,0-0.6-0.1-0.9c0-0.3,0-0.4,0-0.5h-1c0,0.1,0,0.3,0,0.6c0,0.3,0,0.6,0,0.9
	c0,0.3,0,0.6,0,0.7c0,0.1,0,0.1,0,0.1c0,0,0,0,0-0.1c0,0,0.1-0.1,0.1-0.1c0.1,0,0.2-0.1,0.3-0.1c0.1,0,0.2,0,0.2,0.1L80.3,61.6z
	 M81.1,58.7c0-0.1,0-0.2,0-0.2c0,0,0,0-0.1,0.1c-0.1,0.1-0.1,0.1-0.2,0.1c0,0-0.1,0,0,0c0.1,0,0.1,0.1,0.3,0.2
	c0.1,0.1,0.3,0.2,0.4,0.3l0.6-0.8c-0.1-0.1-0.3-0.2-0.4-0.3c-0.1-0.1-0.3-0.2-0.5-0.3c-0.2-0.1-0.5-0.2-0.8,0.1
	c-0.1,0.1-0.2,0.3-0.2,0.4c0,0.1,0,0.3,0,0.4H81.1z M81.6,59.2c0,0,0.2,0.2,0.3,0.2c0,0,0.1,0,0.2,0.1c0,0,0.3,0.1,0.5-0.2
	c0.1-0.1,0.1-0.2,0.1-0.3c0-0.1,0-0.1,0-0.2c0-0.1-0.1-0.1-0.1-0.2l-0.9,0.5c0,0,0,0,0,0c0,0,0-0.1,0-0.1c0-0.1,0-0.2,0.1-0.3
	c0.1-0.1,0.2-0.2,0.3-0.2c0.1,0,0.1,0,0.2,0c0.1,0,0.1,0,0.1,0c0,0,0,0-0.1-0.1c0,0,0,0-0.1,0c0,0,0,0-0.1-0.1L81.6,59.2z
	 M82.6,58.6c-0.4-0.7-0.8-1.3-1.1-2L80.6,57c0.4,0.7,0.8,1.4,1.1,2L82.6,58.6z M81.5,56.6c-0.1-0.1-0.1-0.2-0.1-0.2c0,0,0,0,0,0.1
	c-0.1,0.1-0.2,0.2-0.3,0.2c0,0-0.1,0,0,0c0.1,0,0.1,0,0.3,0.1c0,0,0.1,0,0.1,0c0,0,0.1,0,0.1,0c0,0,0.1,0,0.2,0
	c0.1,0,0.3-0.1,0.3-0.3c0.1-0.2,0-0.3,0-0.3c0-0.1,0-0.1-0.1-0.1l-0.8,0.5c0,0,0,0,0-0.1c0,0-0.1-0.2,0-0.3c0.1-0.2,0.2-0.3,0.3-0.3
	c0.1,0,0.2,0,0.2,0c0,0,0.1,0,0.1,0c0,0,0,0,0,0c-0.1,0-0.2-0.1-0.4-0.1c-0.1,0-0.2,0-0.3,0c-0.2,0-0.4,0.1-0.5,0.4
	c-0.1,0.2-0.1,0.4,0,0.5c0,0.1,0.1,0.3,0.2,0.4L81.5,56.6z M82,56.1c-0.2-0.4-0.4-0.6-0.6-1c-0.2-0.3-0.5-0.7-0.8-1l-0.7,0.7
	c0.3,0.3,0.5,0.5,0.7,0.8c0.2,0.3,0.4,0.7,0.6,1L82,56.1z M80.6,54c0,0-0.1-0.1-0.2-0.3c-0.1-0.2-0.1-0.4-0.2-0.6
	c-0.1-0.4-0.2-1-0.2-1.5l-1,0.1c0,0.5,0.1,1.1,0.3,1.6c0.1,0.3,0.1,0.5,0.2,0.7c0.1,0.2,0.2,0.4,0.4,0.6L80.6,54z M61.4,31.2
	c-0.7-0.7-1.6-1.1-2.5-1.5C58,29.4,57,29.2,56.2,29l-0.3,1c0.9,0.2,1.8,0.4,2.6,0.7c0.8,0.3,1.6,0.7,2.1,1.2L61.4,31.2z M56.2,29
	c-0.1,0-0.4-0.1-0.7-0.2c-0.1,0-0.2-0.1-0.3-0.1c0,0,0,0-0.1,0c0,0-0.1,0-0.2,0c0,0-0.1,0.1-0.2,0.2c-0.1,0.1-0.1,0.2-0.1,0.4
	c0,0.2,0.2,0.3,0.2,0.3c0,0,0.1,0.1,0.1,0.1c0,0,0.1,0,0.1,0c0,0,0.1,0,0.2,0.1l0.3-0.9c-0.1,0-0.1,0-0.1,0c0,0,0,0,0,0
	c0,0,0,0,0.1,0.1c0,0,0.1,0.1,0.2,0.3c0,0.1,0,0.3-0.1,0.4c-0.1,0.1-0.2,0.1-0.2,0.2c-0.1,0-0.2,0-0.2,0c0,0-0.1,0-0.1,0
	c0,0,0.1,0,0.2,0c0.2,0.1,0.6,0.2,0.6,0.2L56.2,29z M55.1,29.7c0.6,0.2,1.1,0.6,1.5,1.2l0.8-0.6c-0.5-0.6-1.1-1.2-2-1.5L55.1,29.7z
	 M56.6,30.9c0.3,0.4,0.6,0.8,0.7,1.1l0.9-0.3c-0.2-0.6-0.6-1.1-0.9-1.4L56.6,30.9z M57.4,32c0,0-0.1-0.2,0.1-0.3
	c0.1-0.2,0.3-0.2,0.3-0.2c0,0,0,0,0,0c0,0-0.1,0-0.1,0c-0.1,0-0.2-0.1-0.3-0.1c-0.1-0.1-0.2-0.1-0.2-0.1l-0.5,0.9
	c0.1,0,0.4,0.2,0.7,0.3c0.1,0,0.3,0.1,0.5,0.1c0.1,0,0.3,0,0.5-0.2c0.2-0.2,0.1-0.5,0.1-0.6L57.4,32z M57.1,31.2
	c-0.4-0.3-1-0.4-1.5-0.6c-0.5-0.1-1-0.2-1.4-0.3l-0.3,1c0.4,0.1,1,0.2,1.4,0.3c0.5,0.1,0.9,0.3,1.2,0.4L57.1,31.2z M54.2,30.4
	c-0.8-0.2-1.4-0.4-2.3,0l0.4,0.9c0.5-0.2,0.9-0.2,1.6,0L54.2,30.4z M51.9,30.3c0,0-0.1,0-0.1,0.1c0,0-0.1,0.1-0.2,0.2
	c-0.1,0.1-0.1,0.3-0.1,0.5c0.1,0.2,0.2,0.3,0.2,0.3c0.1,0.1,0.2,0.1,0.2,0.1c0.1,0,0.1,0,0.2,0c0.1,0,0.2,0,0.3,0c0.1,0,0.1,0,0.1,0
	c0,0,0.1,0,0.1,0l0.3-1c-0.1,0-0.2,0-0.3-0.1c-0.1,0-0.2,0-0.3,0c0,0-0.1,0-0.1,0c0,0,0,0,0.1,0c0,0,0.1,0.1,0.2,0.2
	c0.1,0.2,0,0.4-0.1,0.4c-0.1,0.1-0.1,0.1-0.1,0.1c0,0,0,0,0,0L51.9,30.3z M52.7,31.5c0.7,0.2,1.4,0.5,1.9,0.9l0.7-0.7
	c-0.6-0.5-1.6-0.9-2.3-1.1L52.7,31.5z M54.6,32.4C54.6,32.5,54.7,32.5,54.6,32.4c0.1,0.1,0.1,0.1,0.1,0.1
	C54.7,32.5,54.7,32.5,54.6,32.4c0.1,0,0.1-0.1,0.1-0.2c0-0.1,0.1-0.1,0.1-0.2c0,0,0.1,0,0.1,0c0,0,0,0-0.2,0v1c0.2,0,0.3,0,0.5-0.1
	c0.1,0,0.4-0.2,0.4-0.4c0.1-0.3,0-0.5-0.1-0.6c-0.1-0.1-0.2-0.2-0.3-0.3L54.6,32.4z M54.7,32.1c-1.1,0-2.1-0.1-3.3-0.3l-0.1,1
	c1.1,0.1,2.2,0.3,3.4,0.3V32.1z M51.4,31.8c-0.3,0-0.7-0.1-1.1-0.1c-0.4,0-0.9,0.1-1.2,0.4l0.6,0.8c0.1-0.1,0.3-0.1,0.7-0.2
	c0.3,0,0.6,0,1,0.1L51.4,31.8z M49.1,32.1c-0.1,0.1-0.2,0.1-0.2,0.2c0,0-0.1,0.1-0.1,0.1c0,0-0.1,0.1-0.1,0.2c0,0.1,0,0.2,0,0.4
	c0.1,0.1,0.2,0.2,0.2,0.2c0.1,0.1,0.2,0.1,0.2,0.1c0,0,0.1,0,0.1,0c0,0,0.1,0,0.1,0c0.1,0,0.2,0,0.4,0v-1c-0.2,0-0.3,0-0.4,0
	c-0.1,0-0.1,0-0.1,0c0,0,0,0,0,0c0,0,0,0,0.1,0c0,0,0.1,0,0.1,0c0.1,0,0.1,0.1,0.2,0.2c0.1,0.1,0.1,0.3,0,0.4c0,0.1-0.1,0.1-0.1,0.2
	c0,0,0,0,0,0.1c0,0,0,0,0,0c0,0,0.1-0.1,0.3-0.2L49.1,32.1z M49.6,33.2c1.2,0,2.4,0.4,3.4,0.9l0.4-0.9c-1.1-0.5-2.4-1-3.9-1V33.2z
	 M43.1,38.8h-3v1h3V38.8z M40.1,38.8c-0.2,0-0.5,0-0.8,0c-0.3,0-0.6,0-0.9,0c-0.6,0-1.2,0.1-1.8,0.4l0.4,0.9
	c0.4-0.2,0.8-0.2,1.4-0.3c0.3,0,0.5,0,0.8,0c0.3,0,0.5,0,0.8,0V38.8z M36.7,39.1c-0.5,0.3-1.3,0.7-1.7,1.1l0.7,0.7
	c0.4-0.3,1-0.7,1.5-0.9L36.7,39.1z M34.9,40.2C34.9,40.2,34.9,40.3,34.9,40.2c-0.1,0.1-0.1,0.1-0.1,0.1c0,0-0.1,0.1-0.1,0.3
	c0,0.1,0,0.2,0.1,0.3c0.1,0.1,0.1,0.1,0.2,0.2c0.1,0,0.2,0,0.2,0c0.1,0,0.1,0,0.1,0c0.1,0,0.1-0.1,0.2-0.1c0.1,0,0.1,0,0.2-0.1
	c0,0,0,0,0.1,0c0,0,0,0,0,0c0,0,0,0,0,0L35.5,40c-0.1,0-0.3,0.1-0.3,0.2c-0.1,0-0.1,0,0,0c0,0,0,0,0.1,0c0,0,0.1,0,0.2,0
	c0.1,0,0.1,0.1,0.2,0.2c0.1,0.1,0.1,0.2,0.1,0.3c0,0.1-0.1,0.2-0.1,0.3c0,0,0,0.1,0,0.1c0,0,0,0,0,0c0,0,0,0,0,0L34.9,40.2z
	 M35.8,40.9c0.4-0.2,0.8-0.2,1.3-0.3l-0.1-1c-0.5,0-1.1,0.1-1.6,0.3L35.8,40.9z M37.1,40.6c1.2-0.1,2.4,0,3.7,0.2l0.1-1
	c-1.2-0.1-2.6-0.3-3.9-0.2L37.1,40.6z M40.8,40.8c0.1,0,0.2,0,0.4,0c0.1,0,0.3,0,0.4,0c0.1,0,0.2,0,0.2,0c0,0,0,0-0.1,0
	c0,0-0.2-0.1-0.2-0.3c0-0.2,0.1-0.3,0.1-0.4c0-0.1,0.1-0.1,0.1-0.1l0.5,0.8c0,0,0.1-0.1,0.2-0.1c0.1-0.1,0.1-0.2,0.1-0.4
	c0-0.2-0.2-0.3-0.2-0.4c-0.1,0-0.1-0.1-0.2-0.1c-0.1,0-0.3-0.1-0.5-0.1c-0.1,0-0.3,0-0.4,0c-0.1,0-0.1,0-0.2,0c0,0,0,0-0.1,0
	c0,0,0,0,0,0L40.8,40.8z M41.7,40c-0.3,0.2-0.6,0.3-1,0.4c-0.4,0.1-0.8,0.3-1.3,0.5l0.4,0.9c0.3-0.2,0.7-0.3,1.1-0.4
	c0.4-0.1,0.9-0.3,1.3-0.6L41.7,40z M39.4,40.9c-0.3,0.1-0.8,0.4-1.3,0.6c-0.5,0.2-1,0.6-1.3,1l0.8,0.6c0.1-0.2,0.5-0.4,0.9-0.7
	c0.4-0.2,0.9-0.4,1.2-0.6L39.4,40.9z M36.8,42.5c0,0-0.1,0.1-0.1,0.2c0,0.1-0.1,0.2,0,0.4c0.1,0.2,0.2,0.3,0.3,0.3
	c0.1,0,0.2,0,0.2,0c0.1,0,0.2,0,0.3,0c0.1,0,0.2-0.1,0.3-0.1c0.2-0.1,0.4-0.1,0.6-0.2c0.2-0.1,0.3-0.1,0.4-0.1l-0.2-1
	c-0.2,0-0.4,0.1-0.6,0.2c-0.2,0.1-0.4,0.1-0.6,0.2c-0.1,0-0.2,0.1-0.2,0.1c-0.1,0-0.1,0-0.1,0c0,0,0.1,0,0.1,0
	c0.1,0,0.2,0.1,0.3,0.3c0.1,0.1,0,0.3,0,0.3c0,0,0,0.1,0,0L36.8,42.5z M38.9,43c0.6-0.1,1.4-0.3,2-0.4l-0.2-1
	c-0.7,0.1-1.3,0.2-2,0.4L38.9,43z M40.9,42.6c0,0,0.2,0,0.5-0.1c0.1,0,0.2,0,0.3,0c0,0,0,0,0,0c0,0-0.1,0-0.2-0.1
	c-0.1-0.1-0.1-0.2-0.1-0.3c0-0.1,0-0.2,0-0.3l0.9,0.4c0-0.1,0.1-0.2,0-0.3c0-0.1-0.1-0.2-0.1-0.3c-0.1-0.1-0.2-0.1-0.3-0.2
	c-0.1,0-0.2,0-0.2,0c-0.1,0-0.3,0-0.4,0c-0.3,0-0.5,0.1-0.5,0.1L40.9,42.6z M41.3,41.8c0,0,0,0-0.2,0.1c-0.1,0.1-0.3,0.2-0.5,0.3
	c-0.2,0.1-0.4,0.2-0.6,0.3c-0.2,0.1-0.4,0.2-0.5,0.2l0.5,0.9c0.1,0,0.2-0.1,0.4-0.2c0.2-0.1,0.4-0.2,0.6-0.3
	c0.2-0.1,0.4-0.2,0.6-0.3c0.2-0.1,0.4-0.3,0.5-0.5L41.3,41.8z M39.6,42.7c-0.6,0.3-1.1,0.7-1.7,1c-0.5,0.3-1.1,0.7-1.6,1l0.5,0.9
	c0.6-0.3,1.1-0.7,1.7-1c0.5-0.3,1.1-0.7,1.6-1L39.6,42.7z M36.3,44.6c-0.1,0-0.3,0.2-0.5,0.3c0,0-0.1,0.1-0.1,0.2
	c0,0-0.1,0.2-0.1,0.4c0,0.1,0,0.2,0.1,0.3c0.1,0.1,0.2,0.1,0.2,0.2c0.1,0,0.2,0.1,0.3,0l0-1c0,0,0,0,0.1,0c0,0,0.1,0.1,0.2,0.1
	c0.1,0.1,0.1,0.2,0.1,0.3c0,0.1,0,0.1,0,0.2c0,0,0,0.1,0,0.1c0,0,0,0,0,0c0.1-0.1,0.2-0.2,0.3-0.2L36.3,44.6z M36.3,46
	c0.6,0,1.2-0.3,1.8-0.5c0.6-0.3,1-0.5,1.5-0.7l-0.4-0.9c-0.5,0.2-1.1,0.5-1.5,0.7c-0.5,0.2-0.9,0.4-1.4,0.4L36.3,46z M39.5,44.8
	c0.6-0.2,1.3-0.5,1.9-0.7c0.7-0.2,1.3-0.4,1.9-0.4v-1c-0.7,0-1.5,0.2-2.2,0.4c-0.7,0.2-1.4,0.5-2,0.7L39.5,44.8z M43.3,43.8
	C43.3,43.8,43.2,43.8,43.3,43.8c-0.2-0.1-0.3-0.2-0.3-0.3c0-0.1,0-0.2,0-0.2c0,0,0,0,0,0c0,0-0.1,0.1-0.1,0.1c0,0,0,0-0.1,0.1
	c0,0,0,0-0.1,0.1l0.7,0.7c0,0,0.2-0.2,0.3-0.4c0,0,0.1-0.1,0.1-0.2c0-0.1,0.1-0.2,0-0.4c0-0.2-0.2-0.3-0.3-0.4
	c-0.1-0.1-0.2-0.1-0.3-0.1V43.8z M32.8,49.5c-1.6,1-3.3,2-4.7,3.2l0.6,0.8c1.4-1.2,3-2.1,4.6-3.1L32.8,49.5z M28.1,52.7
	c-0.1,0.1-0.5,0.4-0.8,0.8c-0.2,0.2-0.3,0.4-0.5,0.5c-0.1,0.1-0.1,0.2-0.2,0.2c0,0-0.1,0.1-0.1,0.3c0,0.1,0.1,0.3,0.2,0.4
	c0.1,0.1,0.3,0.1,0.3,0.1v-1c0.1,0,0.2,0,0.3,0.1c0.1,0.1,0.2,0.2,0.2,0.3c0,0.1,0,0.1,0,0.2c0,0,0,0,0,0.1c0,0,0,0,0.1-0.1
	c0.1-0.1,0.2-0.3,0.4-0.4c0.2-0.2,0.3-0.3,0.5-0.5c0.1-0.1,0.1-0.1,0.2-0.2c0.1,0,0.1-0.1,0.1-0.1L28.1,52.7z M27.1,55
	c0.3,0,0.6-0.1,0.9-0.2c0.1-0.1,0.2-0.1,0.3-0.2c0.1-0.1,0.2-0.1,0.3-0.1l-0.4-0.9c-0.1,0-0.2,0.1-0.3,0.1c-0.1,0.1-0.2,0.1-0.3,0.1
	C27.4,54,27.2,54,27.1,54V55z M28.6,54.5c0.9-0.4,1.9-0.7,2.9-0.9l-0.3-1c-1,0.3-2,0.6-3,1L28.6,54.5z M31.5,53.6
	c2-0.6,3.9-1.3,5.9-1.5l-0.1-1c-2.1,0.3-4.2,1-6.1,1.5L31.5,53.6z M37.5,52.1L37.5,52.1l-0.1-1l0,0L37.5,52.1z M37.5,52.1
	c0.1,0,0.2,0,0.4,0c0.1,0,0.2,0,0.3,0c0,0,0,0-0.1,0c0,0-0.1-0.1-0.2-0.2c-0.1-0.1-0.1-0.2,0-0.3c0-0.1,0.1-0.1,0.1-0.1c0,0,0,0,0,0
	c0,0-0.1,0-0.1,0.1l0.5,0.9c0.1-0.1,0.2-0.1,0.3-0.2c0.1,0,0.2-0.2,0.2-0.3c0-0.1,0-0.3,0-0.4c-0.1-0.1-0.2-0.2-0.2-0.2
	c-0.1-0.1-0.2-0.1-0.3-0.1c-0.1,0-0.3,0-0.5,0c-0.1,0-0.3,0-0.4,0L37.5,52.1z M37.8,51.4c-0.8,0.5-1.6,1-2.4,1.6
	c-0.8,0.5-1.5,1.1-2.2,1.6l0.6,0.8c0.8-0.5,1.5-1.1,2.3-1.6c0.7-0.5,1.5-1.1,2.3-1.5L37.8,51.4z M33.2,54.6
	c-1.4,0.9-2.6,1.9-3.7,3.1l0.7,0.7c1-1.1,2.2-2.1,3.6-3L33.2,54.6z M29.4,57.7c0,0.1-0.2,0.1-0.3,0.3c-0.2,0.1-0.3,0.2-0.5,0.4
	c-0.1,0.1-0.2,0.1-0.2,0.2c-0.1,0.1-0.2,0.1-0.2,0.2c0,0-0.1,0.1-0.1,0.2c0,0.1,0,0.3,0.1,0.5c0.1,0.1,0.3,0.2,0.3,0.2
	c0.1,0,0.2,0,0.2,0v-1c0,0,0,0,0,0c0,0,0.1,0,0.2,0.2C29,59,29,59.1,29,59.2c0,0.1-0.1,0.1-0.1,0.1c0,0,0,0,0.1,0
	c0,0,0.1-0.1,0.2-0.1c0.1-0.1,0.4-0.2,0.5-0.4c0.2-0.1,0.4-0.3,0.5-0.4L29.4,57.7z M28.6,59.7c0.6,0,1.2-0.3,1.6-0.6
	c0.2-0.2,0.5-0.3,0.7-0.5c0.2-0.1,0.4-0.3,0.5-0.3L31,57.4c-0.2,0.1-0.4,0.3-0.7,0.4c-0.2,0.2-0.4,0.3-0.7,0.4
	c-0.5,0.3-0.8,0.5-1.1,0.5V59.7z M31.5,58.3c1.5-0.7,3-1.4,4.7-1.9l-0.3-0.9c-1.7,0.6-3.2,1.2-4.8,2L31.5,58.3z M36.1,56.3
	C36.2,56.3,36.2,56.3,36.1,56.3c0,0-0.2,0-0.3-0.1c-0.1-0.1-0.2-0.3-0.2-0.4c0-0.1,0-0.1,0-0.2c0,0,0,0,0,0c0,0,0,0-0.1,0.1
	c-0.1,0.1-0.2,0.2-0.3,0.3c-0.1,0.1-0.2,0.2-0.3,0.3l0.8,0.6c0,0,0,0,0.1-0.1c0,0,0.1-0.1,0.1-0.1c0.1-0.1,0.2-0.2,0.3-0.3
	c0-0.1,0.1-0.1,0.1-0.2c0,0,0-0.1,0.1-0.1c0,0,0.1-0.1,0.1-0.2c0-0.1,0-0.3-0.2-0.4c-0.1-0.1-0.3-0.1-0.3-0.1c-0.1,0-0.3,0-0.3,0.1
	L36.1,56.3z M35.1,56.3c-0.8,1-1.2,2.2-1.6,3.2l0.9,0.3c0.4-1.1,0.8-2.1,1.5-3L35.1,56.3z M33.5,59.5C33.5,59.5,33.5,59.5,33.5,59.5
	C33.5,59.6,33.5,59.6,33.5,59.5c0,0.1-0.1,0.1-0.1,0.2c0,0.1-0.1,0.2-0.2,0.4c0,0.1,0,0.1-0.1,0.2c0,0.1,0,0.1,0,0.2
	c0,0,0,0.1,0,0.3c0.1,0.1,0.2,0.3,0.4,0.3c0.2,0,0.3,0,0.3,0C34,61,34,61,34,61l-0.6-0.8c0,0,0,0,0,0c0,0,0.1-0.1,0.3,0
	c0.2,0,0.3,0.2,0.4,0.3c0,0.1,0,0.2,0,0.2c0,0,0,0.1,0,0c0,0,0-0.1,0-0.1c0-0.1,0.1-0.2,0.1-0.3c0-0.1,0.1-0.2,0.1-0.3L33.5,59.5z
	 M34,61c0.8-0.6,1.5-1.3,2.1-2c0.7-0.7,1.3-1.4,1.9-2.1l-0.7-0.7c-0.7,0.7-1.3,1.4-2,2.1c-0.7,0.7-1.3,1.4-2,1.9L34,61z M38.1,56.9
	c1.3-1.3,2.5-2.6,4.2-3.1l-0.3-1c-1.9,0.6-3.3,2.1-4.6,3.3L38.1,56.9z M47.9,55.1c-1.1,0.6-1.9,1.5-2.5,2.5c-0.6,1-1.2,2-1.7,3
	l0.9,0.5c0.5-1,1.1-2,1.7-2.9c0.6-0.9,1.3-1.7,2.2-2.1L47.9,55.1z M43.6,60.5c0,0.1-0.3,0.5-0.5,0.8c0,0.1-0.1,0.2-0.1,0.3
	c0,0.1-0.1,0.2-0.1,0.3c0,0.1,0,0.2,0,0.3c0.1,0.2,0.2,0.3,0.4,0.3c0.2,0,0.3,0,0.3,0c0.1,0,0.1-0.1,0.2-0.1l-0.5-0.8c0,0,0,0,0,0
	c0,0,0.1,0,0.2,0c0.2,0,0.3,0.2,0.3,0.3c0,0.1,0,0.2,0,0.2c0,0,0,0,0,0c0,0,0.1-0.1,0.1-0.2c0.2-0.3,0.4-0.7,0.5-0.8L43.6,60.5z
	 M43.9,62.5c0.6-0.4,1.2-0.9,1.7-1.4c0.5-0.5,1-0.9,1.5-1.3L46.5,59c-0.6,0.4-1.1,0.9-1.6,1.4c-0.5,0.5-1,0.9-1.6,1.3L43.9,62.5z
	 M47.1,59.8c0.3-0.3,1-0.8,1.5-1.1c0.3-0.2,0.5-0.3,0.5-0.3c0,0,0,0-0.1,0c-0.1,0-0.3-0.1-0.4-0.3c0-0.1,0-0.2,0-0.2
	c0,0,0-0.1,0-0.1c0,0,0,0,0,0l0.9,0.5c0-0.1,0.1-0.1,0.1-0.2c0-0.1,0.1-0.2,0-0.4c-0.1-0.3-0.4-0.3-0.5-0.3c-0.1,0-0.2,0-0.3,0
	c-0.2,0.1-0.5,0.2-0.7,0.4c-0.5,0.4-1.2,0.9-1.6,1.2L47.1,59.8z M48.6,57.8c-0.6,0.9-0.9,2.1-1.2,3.1l1,0.2c0.2-1,0.6-2,1.1-2.8
	L48.6,57.8z M47.4,60.9c-0.1,0.4-0.2,0.8-0.3,1.2c-0.1,0.4-0.2,0.9-0.2,1.4h1c0-0.3,0.1-0.7,0.2-1.2c0.1-0.4,0.3-0.9,0.3-1.3
	L47.4,60.9z M46.9,63.6c0,0.1,0,0.1,0,0.2c0,0.1,0.1,0.2,0.2,0.3c0.2,0.1,0.4,0.1,0.5,0.1c0.1,0,0.2-0.1,0.2-0.1
	c0.1-0.1,0.2-0.2,0.2-0.3c0.1-0.1,0.1-0.2,0.2-0.3c0.1-0.2,0.3-0.5,0.4-0.7c0.1-0.2,0.3-0.4,0.3-0.6l-0.8-0.6
	c-0.1,0.2-0.3,0.4-0.4,0.6c-0.1,0.2-0.3,0.5-0.4,0.7c-0.1,0.1-0.1,0.2-0.2,0.3c0,0,0,0.1-0.1,0.1c0,0,0,0,0,0c0,0,0,0,0,0
	c0,0,0,0,0.1,0c0.1,0,0.3-0.1,0.4,0.1c0.1,0.1,0.2,0.2,0.2,0.2c0,0,0,0,0,0H46.9z M49,62.2c0.8-1.1,1.5-2.1,2.2-3.2l-0.8-0.6
	c-0.7,1.1-1.5,2.1-2.2,3.2L49,62.2z M51.3,59C51.2,59,51.2,59,51.3,59C51.3,59,51.3,58.9,51.3,59c0.1-0.1,0.2-0.2,0.3-0.3
	c0.1-0.1,0.1-0.1,0.2-0.2c0,0,0,0,0,0c0,0,0,0,0,0c0,0,0,0-0.1,0c0,0-0.2,0.1-0.3,0c-0.1,0-0.2-0.1-0.3-0.2C51,58.2,51,58.1,51,58.1
	h1c0-0.1,0-0.1-0.1-0.2c-0.1-0.1-0.2-0.2-0.3-0.2c-0.2-0.1-0.3,0-0.4,0c-0.1,0-0.1,0.1-0.1,0.1c0,0-0.1,0.1-0.1,0.1
	c-0.1,0.1-0.1,0.1-0.2,0.2c-0.1,0.1-0.2,0.2-0.2,0.2c0,0.1-0.1,0.1-0.2,0.2L51.3,59z M51,58.1c0,0,0,0.1-0.1,0.2
	c0,0.1-0.1,0.1-0.1,0.2c0,0.1-0.1,0.2-0.1,0.2l0.9,0.4c0,0,0-0.1,0.1-0.2c0-0.1,0.1-0.2,0.1-0.2c0.1-0.2,0.2-0.4,0.2-0.7H51z
	 M50.7,58.7c-0.3,0.6-0.4,1.3-0.5,1.8l1,0.2c0.2-0.6,0.3-1.1,0.5-1.6L50.7,58.7z M50.1,60.5c-0.1,0.6-0.3,1.1-0.3,1.8h1
	c0-0.5,0.1-1,0.2-1.5L50.1,60.5z M49.9,62.3c0,0.1,0,0.2,0,0.3c0.1,0.1,0.2,0.3,0.4,0.3c0.2,0,0.3-0.1,0.4-0.1
	c0.1,0,0.1-0.1,0.1-0.1c0.1-0.1,0.3-0.3,0.4-0.5c0.1-0.2,0.2-0.4,0.3-0.6c0.1-0.1,0.1-0.2,0.1-0.2c0,0,0-0.1,0-0.1c0,0,0,0,0,0
	c0,0,0,0,0,0l-0.8-0.6c-0.1,0.1-0.1,0.2-0.2,0.4c-0.1,0.2-0.2,0.4-0.3,0.5c-0.1,0.2-0.2,0.3-0.2,0.3c0,0,0,0,0,0
	c0,0,0.1-0.1,0.3-0.1c0.2,0,0.3,0.2,0.4,0.3c0,0,0,0.1,0,0.1c0,0,0,0,0,0H49.9z M51.8,61.3c1.1-1.5,2.4-2.8,3.9-4.1L55,56.5
	c-1.5,1.2-2.9,2.6-4,4.2L51.8,61.3z M55.6,57.3C55.6,57.3,55.6,57.3,55.6,57.3c0.1,0,0.1-0.1,0.1-0.1c0.1-0.1,0.2-0.1,0.3-0.2
	c0.1-0.1,0.2-0.2,0.3-0.3c0-0.1,0.1-0.2,0.1-0.4c0-0.2-0.2-0.4-0.3-0.4l-0.5,0.9c-0.1,0-0.2-0.1-0.2-0.3c0-0.1,0-0.3,0-0.3
	c0,0,0,0-0.1,0c-0.1,0.1-0.2,0.1-0.2,0.2c-0.1,0-0.2,0.1-0.2,0.2L55.6,57.3z M75.7,34.5c-0.4,0.5-0.6,1-0.7,1.5
	c-0.1,0.2-0.1,0.5-0.2,0.7c0,0.2-0.1,0.5-0.2,0.7l1,0.3c0.1-0.3,0.1-0.5,0.2-0.7c0-0.2,0.1-0.5,0.1-0.7c0.1-0.4,0.2-0.8,0.5-1
	L75.7,34.5z M74.6,37.4c0,0,0,0.1-0.1,0.2c0,0.1-0.1,0.2-0.1,0.3c0,0,0,0.1,0,0.1c0,0,0,0,0.1-0.1c0,0,0.1,0,0.2,0
	c0.1,0,0.2,0,0.3,0.1c0.1,0.1,0.1,0.2,0.1,0.1l-1,0.3c0,0.1,0.1,0.3,0.3,0.4c0.1,0.1,0.2,0.1,0.3,0.1c0.1,0,0.2,0,0.3-0.1
	c0.1-0.1,0.2-0.2,0.2-0.2c0-0.1,0.1-0.1,0.1-0.2c0.1-0.2,0.2-0.6,0.3-0.6L74.6,37.4z M75.1,38c0-0.1-0.3-0.9-0.6-1.5
	c-0.2-0.3-0.3-0.7-0.5-0.9c-0.1-0.1-0.2-0.3-0.3-0.3c-0.1,0-0.2-0.1-0.4-0.1c-0.2,0-0.3,0.1-0.4,0.2l0.8,0.7
	c-0.1,0.1-0.2,0.1-0.3,0.1c-0.1,0-0.2,0-0.2-0.1c0,0,0,0,0.1,0.1c0.1,0.2,0.3,0.4,0.4,0.8c0.1,0.3,0.3,0.6,0.4,0.9
	c0.1,0.1,0.1,0.2,0.1,0.3c0,0,0,0.1,0,0.1c0,0,0,0,0,0L75.1,38z M72.8,35.3c-0.2,0.2-0.2,0.5-0.2,0.7c0,0.2,0.1,0.5,0.1,0.7
	c0.1,0.4,0.3,0.8,0.4,1l0.9-0.4c-0.1-0.2-0.2-0.5-0.3-0.8c0-0.2-0.1-0.3-0.1-0.4c0-0.1,0-0.1,0-0.1L72.8,35.3z M73.1,37.7
	c0.1,0.1,0.2,0.3,0.2,0.4c0.1,0.1,0.1,0.2,0.1,0.3c0,0,0,0,0,0c0-0.1,0-0.2,0.2-0.3c0.1,0,0.1-0.1,0.2-0.1c0,0,0.1,0,0.1,0
	c0,0,0,0,0,0c0,0-0.1,0-0.1,0l-0.3,0.9c0.1,0,0.2,0.1,0.4,0.1c0.1,0,0.3,0,0.5-0.1c0.2-0.1,0.2-0.4,0.2-0.5c0-0.1,0-0.2-0.1-0.3
	c-0.1-0.1-0.2-0.3-0.2-0.4c-0.1-0.1-0.1-0.2-0.2-0.3L73.1,37.7z M73.7,37.9c-0.7-0.3-1.4-0.7-2.2-1.1l-0.5,0.9
	c0.7,0.4,1.4,0.9,2.3,1.2L73.7,37.9z M71.5,36.8c-0.1,0-0.2-0.1-0.3-0.2c-0.1-0.1-0.3-0.2-0.4-0.3c-0.1,0-0.1-0.1-0.2-0.1
	c-0.1,0-0.2-0.1-0.3-0.1c-0.1,0-0.4-0.1-0.6,0.2c-0.2,0.2-0.1,0.5-0.1,0.5l1-0.2c0,0,0,0,0,0.1c0,0,0,0.1-0.1,0.2
	C70.4,37,70.1,37,70.1,37c0,0,0,0,0,0c0,0,0.1,0.1,0.1,0.1c0.1,0.1,0.2,0.2,0.4,0.3c0.1,0.1,0.3,0.2,0.4,0.3L71.5,36.8z M69.7,36.7
	c0,0.2,0.2,0.5,0.3,0.6c0.1,0.2,0.3,0.3,0.4,0.5c0.2,0.2,0.3,0.3,0.4,0.4c0.1,0.1,0.2,0.2,0.3,0.3l0.8-0.6c-0.1-0.1-0.2-0.3-0.4-0.4
	c-0.1-0.1-0.3-0.3-0.4-0.4c-0.1-0.1-0.3-0.3-0.3-0.4c0-0.1-0.1-0.1-0.1-0.1c0,0,0-0.1,0,0L69.7,36.7z M71.1,38.5
	c0.1,0.1,0.2,0.2,0.3,0.3c0,0,0.1,0.1,0.1,0.1c0,0,0,0,0,0c0,0,0,0,0-0.1c0,0,0-0.1,0-0.1c0-0.1,0-0.2,0-0.3
	c0.1-0.3,0.4-0.3,0.4-0.3c0.1,0,0.1,0,0.1,0c0,0,0,0,0,0c0,0-0.1,0-0.3-0.1L71.3,39c0.2,0.1,0.3,0.1,0.4,0.1c0,0,0.1,0,0.1,0
	c0,0,0.1,0,0.2,0c0.1,0,0.3,0,0.4-0.3c0.1-0.2,0-0.4,0-0.4c0-0.1-0.1-0.1-0.1-0.2c0,0-0.1-0.1-0.1-0.1c-0.1-0.1-0.1-0.1-0.2-0.2
	L71.1,38.5z M71.7,38c-0.6-0.2-1.3-0.5-1.9-0.8c-0.7-0.2-1.4-0.4-2.1-0.4v1c0.6,0,1.2,0.1,1.8,0.4c0.6,0.2,1.2,0.5,1.9,0.8L71.7,38z
	 M67.6,36.8c-0.1,0-0.1,0-0.2,0c0,0-0.1,0-0.2,0.1c-0.1,0-0.1,0.1-0.2,0.2c-0.1,0.1-0.1,0.3-0.1,0.4c0,0.1,0.1,0.2,0.1,0.2
	c0,0,0.1,0.1,0.1,0.1c0.1,0.1,0.2,0.1,0.3,0.1c0.1,0,0.2,0.1,0.3,0.1c0.1,0,0.2,0.1,0.2,0.1c0.1,0,0.1,0.1,0.1,0.1c0,0,0,0-0.1-0.1
	c0,0-0.1-0.1-0.1-0.2c0-0.2,0-0.3,0.1-0.4c0.1-0.1,0.2-0.1,0.2-0.1c0,0,0.1,0,0.1,0c0,0,0,0,0,0v1c0.1,0,0.1,0,0.2,0
	c0,0,0.1,0,0.1,0c0,0,0.1-0.1,0.2-0.2c0.1-0.1,0.1-0.3,0.1-0.4c0-0.1-0.1-0.2-0.1-0.2c-0.1-0.1-0.1-0.1-0.2-0.1
	c-0.1,0-0.2-0.1-0.3-0.1c-0.1,0-0.2-0.1-0.3-0.1c-0.1,0-0.2-0.1-0.2-0.1c-0.1,0-0.1,0-0.1,0c0,0,0,0,0.1,0.1c0,0,0.1,0.1,0.1,0.2
	c0,0.1,0,0.3-0.1,0.4c-0.1,0.1-0.1,0.1-0.2,0.2c-0.1,0-0.1,0-0.1,0c0,0,0,0,0.1,0V36.8z M68.2,37.4c-0.1,0-0.2,0-0.4,0
	c-0.2,0-0.4,0-0.6,0c-0.2,0-0.4,0-0.6,0.1c-0.1,0-0.2,0.1-0.3,0.2c-0.1,0.1-0.2,0.3-0.2,0.5h1c0,0,0,0.1-0.1,0.2
	c0,0-0.1,0.1-0.1,0.1c0,0,0.1,0,0.3,0c0.1,0,0.3,0,0.5,0c0.1,0,0.3,0,0.4,0V37.4z M74.9,40.5c0,0.4,0.1,0.7,0.2,0.9
	c0.1,0.2,0.2,0.4,0.2,0.5l1-0.1c0-0.4-0.2-0.6-0.2-0.8c-0.1-0.2-0.1-0.4-0.1-0.5L74.9,40.5z M75.3,41.9c0,0,0,0.1-0.1,0.3
	c0,0.2-0.1,0.4,0,0.7l1-0.3c0,0,0-0.1,0-0.2c0-0.1,0.1-0.3,0.1-0.6L75.3,41.9z M75.2,42.9c0,0.1,0.1,0.1,0.1,0.2c0,0,0,0.1,0.1,0.1
	c0,0.1,0.1,0.2,0.1,0.3c0,0.1,0.1,0.1,0.1,0.2c0,0,0,0,0,0c0,0,0-0.1,0.1-0.3l0.8,0.6c0.1-0.1,0.1-0.3,0.1-0.4c0-0.1,0-0.2,0-0.2
	c0-0.1-0.1-0.3-0.2-0.3c-0.1-0.1-0.1-0.2-0.2-0.3c0,0,0-0.1,0-0.1c0,0,0,0,0,0L75.2,42.9z M75.7,43.4C75.7,43.3,75.8,43.3,75.7,43.4
	c0-0.1,0-0.1-0.2,0c-0.1,0-0.1,0-0.2,0c-0.1,0-0.2,0.1-0.3,0.1c-0.1,0.1-0.2,0.2-0.2,0.4c0,0.2,0,0.3,0.1,0.4l0.9-0.5
	c0,0,0,0.1,0,0.2c0,0.1-0.1,0.2-0.1,0.3c0,0,0,0-0.1,0c0,0,0,0,0,0c0,0,0,0,0,0c0,0,0,0,0,0s0,0,0,0c0,0,0,0,0,0c0,0,0,0,0,0
	c0,0,0,0,0,0c0,0,0.1,0,0.1,0c0,0,0.1,0,0.2,0c0.1,0,0.1,0,0.2-0.1c0.1,0,0.2-0.1,0.3-0.2L75.7,43.4z M74.9,44.3
	C74.9,44.4,74.9,44.4,74.9,44.3C74.9,44.3,74.9,44.3,74.9,44.3c0,0-0.1,0.1-0.4,0.2c-0.5,0.1-1.1,0.1-1.3,0.1v1c0.3,0,1,0,1.6-0.2
	c0.3-0.1,0.6-0.2,0.9-0.5c0.1-0.1,0.2-0.3,0.3-0.5c0-0.2,0-0.4-0.1-0.6L74.9,44.3z M73.2,44.6c-0.2,0-0.4,0-0.6,0
	c-0.2,0-0.4,0-0.5,0l-0.1,1c0.2,0,0.5,0,0.7,0c0.2,0,0.4,0,0.6,0V44.6z M72.1,44.6c-0.1,0-0.1,0-0.4-0.2c-0.2-0.1-0.5-0.3-0.9-0.3v1
	c0.1,0,0.1,0,0.3,0.2c0.1,0.1,0.4,0.3,0.8,0.4L72.1,44.6z M70.9,44.1c-0.2,0-0.5,0-0.7,0.1c-0.2,0-0.4,0.1-0.5,0.1v1
	c0.3,0,0.5,0,0.7-0.1c0.2,0,0.4-0.1,0.5-0.1V44.1z M69.7,44.2c-0.1,0-0.2,0-0.4,0c-0.1,0-0.3-0.1-0.5-0.1c-0.3,0-0.8,0-1.2,0.3
	l0.6,0.8c0.1-0.1,0.2-0.1,0.5-0.1c0.1,0,0.3,0,0.4,0.1c0.2,0,0.3,0,0.5,0V44.2z M67.6,44.4c-0.5,0.4-0.8,0.5-1.2,0.5v1
	c0.8,0,1.3-0.4,1.8-0.7L67.6,44.4z M66.4,44.9c-0.1,0-0.2,0-0.4,0c-0.1,0-0.3,0-0.4,0c-0.3,0-0.6,0-1,0.1l0.4,0.9
	c0.1-0.1,0.3-0.1,0.6-0.1c0.1,0,0.2,0,0.4,0c0.1,0,0.3,0,0.4,0V44.9z M64.7,45c-0.1,0-0.3,0.1-0.7,0.2c-0.3,0.1-0.8,0.2-1.2,0.4
	c-0.4,0.1-0.8,0.3-1.1,0.4c-0.1,0.1-0.3,0.2-0.4,0.3c-0.1,0.1-0.1,0.1-0.2,0.3c-0.1,0.1-0.1,0.3,0,0.5l0.9-0.4c0.1,0.1,0,0.2,0,0.3
	C62.1,47,62,47,62,47c0,0,0.1-0.1,0.2-0.1c0.2-0.1,0.6-0.2,1-0.4c0.4-0.1,0.8-0.2,1.1-0.3c0.3-0.1,0.6-0.2,0.7-0.2L64.7,45z
	 M38.2,82c0.2,0.6,0.4,1.2,0.6,1.8c0.2,0.6,0.4,1.2,0.6,1.8l1-0.3c-0.2-0.6-0.4-1.2-0.6-1.8c-0.2-0.6-0.4-1.2-0.6-1.8L38.2,82z
	 M39.4,85.6c0.2,0.5,0.2,1,0.3,1.6c0.1,0.6,0.2,1.2,0.4,1.8l0.9-0.3c-0.2-0.5-0.2-1-0.3-1.6c-0.1-0.6-0.1-1.2-0.3-1.8L39.4,85.6z
	 M40,89c0.2,0.6,0.4,1.2,0.6,1.9l1-0.3c-0.2-0.6-0.4-1.3-0.6-1.9L40,89z M40.6,90.9c0,0.1,0.1,0.3,0.2,0.4c0.1,0.1,0.2,0.2,0.4,0.2
	c0.2,0,0.3-0.1,0.4-0.1c0.1-0.1,0.2-0.2,0.2-0.3c0-0.1,0.1-0.2,0.1-0.3c0.1-0.2,0.1-0.4,0.1-0.6c0-0.1,0-0.2,0.1-0.2
	c0,0,0-0.1,0-0.1c0,0,0,0,0,0c0,0,0,0,0,0l-0.9-0.3c0,0.1-0.1,0.3-0.1,0.4c0,0.2-0.1,0.4-0.1,0.5c0,0.1,0,0.1-0.1,0.2c0,0.1,0,0,0,0
	c0,0,0.1-0.1,0.3-0.1c0.2,0,0.3,0.1,0.3,0.1c0.1,0.1,0.1,0.1,0.1,0L40.6,90.9z M42.1,89.8c0.5-1.6,1.1-3.2,1.5-4.8l-1-0.3
	c-0.4,1.6-0.9,3.2-1.5,4.7L42.1,89.8z M43.6,85.1c0.3-1.1,0.5-2.2,0.9-3.1l-0.9-0.4c-0.4,1-0.7,2.3-0.9,3.3L43.6,85.1z M44.5,81.9
	c0.2-0.4,0.3-1,0.3-1.4l-1-0.1c0,0.4-0.1,0.8-0.3,1.1L44.5,81.9z M44.9,80.6c0-0.2,0.1-0.5,0.1-0.6c0,0,0,0,0,0c0,0,0,0,0,0.1
	c0,0-0.1,0.2-0.3,0.2c-0.3,0.1-0.4-0.1-0.5-0.2C44,80,44,79.9,44,79.9c0-0.1,0-0.1,0,0c0,0,0,0.1,0,0.2h1c0-0.1,0-0.2,0-0.3
	c0,0,0-0.2,0-0.2c0,0,0-0.1-0.1-0.2c-0.1-0.1-0.2-0.2-0.5-0.2c-0.2,0-0.3,0.2-0.3,0.2c0,0,0,0.1-0.1,0.1c0,0.1,0,0.1,0,0.2
	c0,0.2-0.1,0.5-0.1,0.7L44.9,80.6z M42.9,83.3c0.7,2.7,1.5,5.4,1.5,8.1h1c0-2.9-0.9-5.7-1.5-8.4L42.9,83.3z M44.4,91.5
	c0,0.1,0,0.2,0,0.3c0,0,0,0.1,0,0.2c0,0.1,0.1,0.2,0.2,0.3c0.1,0.1,0.3,0.2,0.5,0.1c0.1,0,0.2-0.1,0.3-0.1c0.1-0.1,0.2-0.2,0.3-0.3
	l-0.8-0.6c-0.1,0.1-0.1,0.1-0.1,0.1c0,0,0.1-0.1,0.2-0.1c0.1,0,0.1,0,0.2,0c0.1,0,0.1,0.1,0.2,0.1c0.1,0.1,0.1,0.2,0.1,0.2
	c0,0,0,0,0,0c0,0,0-0.1,0-0.2H44.4z M45.6,91.9c0.4-0.5,0.7-1.1,1-1.7c0.3-0.6,0.6-1.1,0.9-1.6l-0.8-0.5c-0.4,0.5-0.7,1.1-0.9,1.7
	c-0.3,0.6-0.6,1.1-0.9,1.5L45.6,91.9z M47.5,88.6c0.7-1.1,1.5-2.1,2.3-3.2c0.8-1.1,1.5-2.2,2.2-3.4l-0.9-0.4
	c-0.6,1.2-1.3,2.2-2.1,3.3c-0.8,1.1-1.6,2.1-2.3,3.3L47.5,88.6z M52,82c0.1-0.1,0.4-0.8,0.6-1.1c0.1-0.1,0.1-0.2,0.1-0.2
	c0,0,0,0,0,0c0,0,0,0,0,0c0,0,0,0-0.1,0.1c0,0-0.1,0-0.1,0.1c0,0-0.2,0.1-0.3,0c-0.2-0.1-0.3-0.2-0.3-0.3c0-0.1,0-0.2,0-0.2
	c0-0.1,0-0.1,0-0.1c0,0,0,0,0,0c0,0,0,0,0,0.1c0,0.1-0.1,0.2-0.2,0.4l0.9,0.4c0.1-0.2,0.1-0.3,0.2-0.4c0,0,0-0.1,0-0.1
	c0,0,0,0,0-0.1c0,0,0-0.1,0-0.1c0,0,0-0.1,0-0.2c0-0.1-0.1-0.2-0.3-0.3c-0.2,0-0.3,0-0.3,0c-0.1,0-0.1,0.1-0.1,0.1
	c0,0-0.1,0.1-0.1,0.1c0,0,0,0,0,0.1c0,0,0,0.1-0.1,0.1c0,0.1-0.1,0.2-0.1,0.3c-0.2,0.4-0.5,1-0.6,1.2L52,82z M50,84.4
	c1.9,1.9,3.2,4.1,3.7,6.7l1-0.2c-0.5-2.9-1.9-5.2-3.9-7.3L50,84.4z M53.6,91.1c0,0.2,0.1,0.4,0.1,0.6c0,0.2,0.1,0.5,0.1,0.7l1-0.2
	c0-0.2-0.1-0.4-0.1-0.6c0-0.2-0.1-0.5-0.1-0.7L53.6,91.1z M53.8,92.5c0,0,0.1,0.3,0.1,0.4c0,0,0,0.1,0.1,0.2c0,0,0.1,0.1,0.1,0.1
	c0.1,0.1,0.2,0.2,0.5,0.1c0.2-0.1,0.3-0.2,0.3-0.3c0-0.1,0-0.1,0.1-0.2c0-0.1,0-0.1,0-0.2l-1-0.1c0,0.1,0,0.1,0,0.1c0,0,0,0,0-0.1
	c0,0,0.1-0.2,0.3-0.2c0.2-0.1,0.4,0.1,0.5,0.1c0.1,0.1,0.1,0.1,0.1,0.1c0,0,0,0,0,0c0-0.1-0.1-0.3-0.1-0.4L53.8,92.5z M55,92.7
	c0.2-2.5,0.5-5,1.2-7.4l-1-0.3c-0.7,2.5-1.1,5.1-1.2,7.6L55,92.7z M56.2,85.3c0-0.1,0.3-1,0.5-1.7c0.1-0.4,0.3-0.7,0.4-0.9
	c0-0.1,0.1-0.1,0.1-0.1c0,0,0,0,0,0c0,0,0,0,0,0c0,0,0,0-0.1,0c-0.1,0-0.2,0-0.3,0l0.4-0.9c-0.3-0.2-0.6,0-0.8,0.1
	c-0.1,0.1-0.2,0.3-0.3,0.4c-0.2,0.3-0.3,0.7-0.5,1.1c-0.3,0.8-0.5,1.6-0.5,1.8L56.2,85.3z M56.9,82.5c0,0,0,0,0.1,0.1
	c0.1,0.1,0.1,0.2,0.2,0.4c0.1,0.2,0.1,0.3,0.2,0.5c0.1,0.1,0.1,0.3,0.2,0.4l0.8-0.6c0,0-0.1-0.1-0.1-0.3c-0.1-0.1-0.1-0.3-0.2-0.5
	c-0.1-0.2-0.2-0.4-0.3-0.5c-0.1-0.1-0.2-0.4-0.5-0.5L56.9,82.5z M57.6,83.9c0.8,1.2,1.6,2.2,2.3,3.4l0.9-0.5
	c-0.7-1.2-1.6-2.3-2.3-3.4L57.6,83.9z M59.9,87.3c0.4,0.6,0.8,1.2,1.1,1.8c0.3,0.6,0.5,1.2,0.5,1.9l1,0c0-0.8-0.3-1.6-0.6-2.3
	c-0.3-0.7-0.8-1.3-1.1-1.9L59.9,87.3z M61.5,91c0,0.2,0,0.3,0.1,0.5c0,0,0,0.1,0.1,0.2c0.1,0.1,0.2,0.2,0.3,0.2c0.2,0,0.3,0,0.4-0.1
	c0.1,0,0.1-0.1,0.1-0.1c0.1-0.1,0.1-0.3,0.2-0.4c0-0.1,0.1-0.3,0.1-0.4c0.1-0.3,0.2-0.6,0.2-0.9c0.1-0.3,0.1-0.5,0.1-0.6l-1-0.3
	c0,0.1-0.1,0.3-0.1,0.6c-0.1,0.3-0.1,0.6-0.2,0.9c0,0.1-0.1,0.3-0.1,0.3c0,0.1-0.1,0.1,0,0.1c0,0,0-0.1,0.1-0.1
	c0.1,0,0.2-0.1,0.3-0.1c0.1,0,0.2,0.1,0.3,0.2c0,0.1,0.1,0.1,0.1,0.1c0,0,0,0,0-0.2L61.5,91z M63.2,89.4c0.3-1.3,0.6-2.5,1.2-3.6
	l-0.9-0.5c-0.7,1.2-1,2.6-1.3,3.9L63.2,89.4z M64.4,85.7c0.1-0.3,0.3-0.5,0.5-0.8c0.2-0.3,0.4-0.6,0.6-0.9l-0.9-0.5
	c-0.2,0.3-0.3,0.5-0.5,0.8c-0.2,0.3-0.4,0.6-0.6,0.9L64.4,85.7z M65.5,84c0-0.1,0.2-0.3,0.3-0.5c0.1-0.1,0.1-0.2,0.1-0.1
	c0,0,0,0-0.1,0c-0.1,0-0.1,0-0.2,0c-0.2-0.1-0.3-0.2-0.3-0.3l1-0.3c0-0.1-0.1-0.3-0.4-0.4c-0.3-0.1-0.5,0-0.5,0.1
	c-0.2,0.1-0.3,0.3-0.4,0.4c-0.2,0.3-0.4,0.6-0.4,0.6L65.5,84z M65.3,83.1c0.2,0.7,0.4,1.4,0.6,2.1c0.2,0.7,0.4,1.4,0.6,2.2l1-0.3
	c-0.2-0.7-0.4-1.4-0.6-2.2c-0.2-0.7-0.4-1.4-0.6-2.2L65.3,83.1z M66.5,87.4c0,0,0,0.1,0.1,0.3c0,0.2,0.1,0.4,0.1,0.6
	c0,0.2,0.1,0.4,0.2,0.5c0,0,0,0.1,0.1,0.1c0,0,0.1,0.1,0.3,0.2c0.2,0.1,0.4,0,0.5-0.1c0.1-0.1,0.1-0.2,0.2-0.2L67,88.5
	c0,0,0-0.1,0.1-0.1c0.1-0.1,0.3-0.1,0.5-0.1c0.1,0,0.2,0.1,0.2,0.1c0,0,0,0,0,0c0,0-0.1-0.2-0.1-0.4c0-0.2-0.1-0.4-0.1-0.5
	c0-0.2-0.1-0.3-0.1-0.4L66.5,87.4z M67.9,88.9c0.5-1.1,0.9-2.2,1.6-3.2l-0.8-0.5c-0.7,1.1-1.2,2.2-1.7,3.3L67.9,88.9z M69.5,85.7
	c0.2-0.3,0.5-0.7,0.7-1.1c0.3-0.4,0.5-0.8,0.7-1.2L70.1,83c-0.2,0.3-0.4,0.7-0.7,1c-0.3,0.3-0.5,0.7-0.8,1.1L69.5,85.7z M71,83.4
	c0.3-0.7,0.2-0.7,0.6-1.1l-0.7-0.7c-0.5,0.5-0.6,0.9-0.8,1.3L71,83.4z"/>
<path class="st3" d="M67.9,63.7c1.1,1.8,2.1,3.7,3.4,5.4c0.2,0.2,0.4,1.1,0.4,0.8c0-3.2,1.1-6.4,1.1-9.6"/>
<path class="st3" d="M72.3,63.8c0.1,2.2,1.5,3.2,2.7,4.7c0.1,0.2,0.2-1.2,0.2-1.3c0.1-1.2,0.5-2.2,0.7-3.4c0.1-0.5,0.2-0.8,0.2-1.3"
	/>
</svg>
