<?xml version="1.0" encoding="utf-8"?>
<!-- Generator: Adobe Illustrator 26.0.2, SVG Export Plug-In . SVG Version: 6.00 Build 0)  -->
<svg version="1.1" id="Layer_1" xmlns="http://www.w3.org/2000/svg" xmlns:xlink="http://www.w3.org/1999/xlink" x="0px" y="0px"
	 viewBox="0 0 108 108" style="enable-background:new 0 0 108 108;" xml:space="preserve">
<style type="text/css">
	.st0{fill:#696157;}
	.st1{fill:none;stroke:#FFFFFF;stroke-miterlimit:10;}
</style>
<circle class="st0" cx="53.5" cy="53.5" r="53.5"/>
<path class="st0" d="M81.4,75.3c-1.4,0.8-2.8,1.5-4.3,2.1h0.6c0.3,0,0.7-0.1,1-0.1c1.2-0.2,2.4-0.2,3.6-0.2c0.5,0,1.2,0.1,1.7-0.1
	c0.4-0.1,0.8-0.1,1.2-0.3c0.4-0.1,0.7-0.3,1.1-0.4c1.3-0.3,3.2-1,4.1-2.1c0.4-0.5,0.4-1.1,0.9-1.5c0.5-0.4,0.9-0.2,1.2,0.2
	c0.3,0.5,0.7,1.8,0.4,2.4c-0.1,0.2-0.1,0.4-0.2,0.6c-0.1,0.2-0.4,0.3-0.5,0.6c-0.1,0.2-0.6,0.4-0.8,0.5c-0.7,0.4-1.6,0.5-2.4,0.8
	c-0.9,0.3-1.8,0.6-2.6,1c-1.3,0.7-2.7,1-4.1,1.1c-0.8,0.1-1.7,0.4-2.5,0.6c-1.2,0.3-2.3,0.2-3.5,0.3c-0.7,0.1-1.3,0.3-2,0.4
	c-0.5,0.1-1,0-1.5,0c-1.5,0-2.9,0.1-4.4-0.1c-0.9-0.1-1.7-0.2-2.6-0.2c-1.5,0-3,0.1-4.4,0.4c-1.2,0.3-2.5,0.3-3.8,0.5
	c-3,0.6-6.2-0.3-9.2-0.6c-2-0.2-3.9-0.8-5.9-1.2c-1.1-0.2-2.1-0.8-3.2-0.9c-0.8,0-1.7-0.2-2.5-0.2c-0.4,0-1-0.1-1.4-0.3
	c-0.3-0.1-0.7-0.5-1.1-0.5c-0.5,0-1-0.1-1.5-0.1c-0.4,0-1.1,0-1.5-0.1c-0.6-0.2-1.8-0.1-1.8-1c0-0.4,0-0.9,0-1.3c0-0.3,0-0.8-0.2-1
	c-0.6-0.6-1.1-1.3-1.7-1.9c-0.6-0.7-0.9-1-1.8-1c-1,0-2.2-0.2-3.1,0.2c-0.3,0.1-0.8,0.3-1.1,0.3c-0.2,0-1.1,0.2-1.3,0.3
	c-0.5,0.4-1.5,0.6-2.1,0.6c-0.8,0-1-0.2-1-1c0-1.1,0.6-2.1,0.6-3.2c0-1.1,0.1-2.3,0.1-3.4c0-1.1,0.1-2.1,0-3.1
	c0-0.5-0.1-1.2,0.1-1.6c0.1-0.2,0.9-0.1,1-0.1c0.8,0,1.5,0.4,2.3,0.2l0,0c0.3-0.1,0.4-0.1,0.3-0.5c-0.1-0.4-0.2-0.8-0.4-1.2
	c-0.5-1.3-1.1-2.5-1.4-3.8c-0.3-1.3-0.6-2.5-1.1-3.8C18.2,50.4,18,49,18,47.8c0-0.6-0.1-1.2-0.1-1.7c0-0.6-0.1-1.3-0.2-1.8
	c-0.2-0.4,0-0.9,0-1.4c0.1-0.7,0.1-1.4,0.1-2.1v-3.1c0-0.8-0.2-1.9,0.2-2.7c0.2-0.4,0.1-0.8,0.2-1.3c0.1-0.4,0.2-0.9,0.3-1.3
	c0.2-0.8,0.7-1.5,0.9-2.3c0.1-0.7,0.6-1.6,1-2.2c0.5-0.7,0.5-1.8,0.8-2.6c0.5-1.1,0.8-2.2,1.4-3.2c0.5-0.8,1-1.4,1.6-2
	c0.4-0.4,0.8-0.9,1.1-1.3c0.3-0.4,0.7-0.6,1-0.9c0.6-0.6,1.5-1.1,1.9-1.8c0.3-0.6,1.1-1.6,1.7-0.9c0.6,0.6-0.1,1.8-0.4,2.4
	c-0.3,0.7-0.6,1.7-0.3,2.4c0.1,0.4,0.1,0.7,0.2,1.1c0.1,0.3,0.3,0.8,0.3,1.1c0,0.7,0.2,1.5,0.2,2.3c0,0.4,0.1,1.6,0.7,1.7
	c0.8,0,1.5,0.5,2.3,0.7c0.8,0.2,1.6,0.6,2.3,1c0.4,0.2,1,0.3,1.3,0.5c0.2,0.1,0.5,0.4,0.7,0.4c0.6,0,1.2,0,1.8,0
	c0.4,0,1.9-0.4,2.2,0.1c0.2,0.4-0.6,1.2-0.9,1.5c-0.5,0.6-1.1,1-1.7,1.4c-0.8,0.6-1.5,1.2-2.4,1.5c-0.8,0.3-1.7,0.5-2.5,0.8
	c-0.9,0.3-1.9,0.4-2.8,0.6c-0.9,0.2-1.9,0.4-2.7,0.8c-1.6,0.6-3.5,0.8-5.1,1.6c-1.3,0.7-1.7,2.4-1.4,3.8c0.1,0.3,0.3,0.7,0.5,0.9
	c0.1,0.2,0.3,0.6,0.4,0.8c0.5,0.4,0.6,1.1,1.1,1.4c1.3,0.8,2.5,1.7,3.9,2.3c0.6,0.3,1.5,0.8,2.2,0.8c0.3,0,0.7,0.1,1,0.1
	c0.4,0,0.4-0.3,0.6-0.5c0.3-0.3,0.5-0.7,0.8-1.1c0.2-0.2,0.5-0.4,0.8-0.5c0.2-0.1-0.4-0.7-0.4-0.9c-0.1-0.3,1.8-0.1,2,0
	c0.2,0.1,0.7,0.1,0.7-0.2c0-0.3-0.4-0.5-0.6-0.7c-0.1-0.1-0.7-0.8-0.3-0.8c0.3,0,0.6,0.1,0.9,0.1c0.2,0,0.7,0.4,0.9,0.3
	c0.2-0.2-0.3-0.7-0.3-0.9c0-0.3-0.4-0.6-0.4-0.8c0-0.3,0.5,0,0.7,0.1c0.5,0.2,1.1,0.1,1.5,0.5c0.3,0.3,0.6,0.6,0.9,0.8
	c0.3,0.2,0.5,0.7,0.9,0.9c0.3,0.1,0.5,0.5,0.7,0.8c0.2,0.3,0.7,0.7,0.9,1c0.8,1.4,2.3,2,3.4,3.1c0.5,0.5,0.9,1,1.3,1.5
	c0.2,0.2,0.3,0.4,0.5,0.6c0.3,0.2,0.5,0.3,0.8,0.5l0,0c0.8,0.3,1.7,0.4,2.4,0.7c0.3,0.1,0.8,0.1,1,0.3c0.1,0.1,0.6,0.3,0.7,0.3
	c0.7,0,1.3,0.5,1.9,0.6c0.6,0.1,1.3,0.4,1.9,0.6c0.6,0.2,1.3,0.5,1.9,0.6c0.3,0.1,0.6,0.4,0.9,0.6c0.4,0.2,0.7,0.4,1.1,0.6
	c0.6,0.3,1.2,0.8,1.8,1.1c0.6,0.4,1.2,0.7,1.8,1c0.7,0.4,1.5,0.9,2.1,1.5c0.2,0.2,0.4,0.6,0.7,0.7c0.4,0.2,1.1,0.5,1.4,0.9
	c0.2,0.3,0.5,0.4,0.8,0.6c0.3,0.2,0.5,0.7,0.8,0.8c0.7,0.2,1.7,0.6,2.3,1c0.5,0.3,1.1,0.4,1.6,0.8c0.5,0.4,1.5,0.6,1.9,1.1
	c0.3,0.3,1.2,0.6,1.6,0.7c0.8,0.1,1.6,0.3,2.5,0.3h2.1c0.9,0,1.8,0.2,2.6,0.2c1.4,0,2.7,0.5,4.2,0.5c0.6,0,1.1,0.2,1.8,0.2
	c0.7,0,1.3-0.1,1.9-0.1H92c0.3,0,0.6,0.2,0.9,0.2c0.4,0,1.6,0,1.6,0.5c0,0.3,0.3,0.6,0.4,0.8c0.1,0.2,0,0.7,0,0.9
	c0,0.4-0.4,1.5-0.9,1.5c-0.9,0-0.8-0.3-1.3-0.9c-0.4-0.4-0.9-0.8-1.4-0.8c-1.3,0-2.2,0.3-3.4,0.9c-1.3,0.7-2.4,1.6-3.5,2.6
	C83.5,73.6,82.6,74.6,81.4,75.3z"/>
<path class="st1" d="M75.5,77.6c0.6-0.8,1.4-0.8,2.2-1.2c0.8-0.5,1.7-0.7,2.5-1.2c1-0.6,1.8-1.3,2.5-2.2c0.5-0.8,1.3-1.2,2-1.9
	c0.5-0.5,1.6-1.3,2.3-1.5c0.9-0.3,1.6-0.5,2.5-0.5c0.3,0,0.7,0.2,1,0.2c0.4,0.1,0.5,0.6,0.7,0.8c0.2,0.2,0.2,0.6,0.3,0.8
	c0.3,0.3,0.7,0,1-0.2c1.1-0.7,1.4-3.8-0.3-3.8c-1.1,0-2.2,0.1-3.3,0.1c-0.6,0-1.2-0.2-1.7-0.2c-0.7,0-1.5,0-2.1-0.1
	c-1.4-0.3-3-0.4-4.4-0.4c-0.8,0-1.7,0-2.5,0c-0.7,0-1.3-0.3-2-0.3c-1.3-0.1-2.6-1-3.8-1.5c-0.5-0.2-1-0.3-1.4-0.5
	c-0.2-0.1-1.1-0.1-0.7-0.3"/>
<path class="st1" d="M69.6,63.7c-0.9,0.4-1.5,1-2.3,1.5c-0.8,0.4-1.6,0.3-2.5,0.6c-0.9,0.3-1.3,1.1-2,1.5c-0.5,0.3-1,0.5-1.5,0.7
	c-0.6,0.3-0.8,0.7-1.2,1.2c-0.2,0.2-0.1,0.5-0.2,0.8c-0.2,0.4-0.5,0.7-0.8,1.1c-0.7,0.7-1,1.8-1.3,2.7c-0.3,0.9-0.4,1.6-0.4,2.5
	c0,0.8,0.7,1,1,1.6"/>
<path class="st1" d="M58.6,78c-0.6-0.2-1.1-0.1-1.7-0.3c-0.3-0.1-0.7-0.2-1-0.2c-1,0-1.9-0.2-2.9-0.2c-1.4,0-3-0.1-4.4-0.5
	c-0.8-0.3-1.7-0.4-2.5-0.5c-0.8-0.1-1.5-0.2-2.2-0.2c-0.2,0-1.5,0.2-1.6,0.4c-0.2,0.6,0.3,1.4,0.5,2c1,2.8,4.7,2.3,7.1,2.3
	c0.4,0,0.8,0,1.2,0c0.6,0,1.1-0.2,1.7-0.2c0.8,0,1.8-0.2,2.5-0.5c0.3-0.1,0.8-0.2,1.2-0.3c0.4-0.1,0.8-0.3,1.3-0.4
	c0.4-0.1,0.7-0.2,1.1-0.3c0.2-0.1,0.6-0.4,0.6,0"/>
<path class="st1" d="M43.2,78.9c0.9,0,2,0,2.8-0.2c0.2,0,0.7-0.2,0.8,0.1"/>
<path class="st1" d="M44.9,80.2c1.1,0,2.2-0.5,3.4-0.5"/>
<path class="st1" d="M49,80.4c0.4-0.1,1.5-0.7,1.8-0.4"/>
<path class="st1" d="M51,81.7c0.9-0.3,1.7,0,2.7,0c0.8,0,1.6,0,2.4,0c0.8,0,1.7,0,2.5,0c0.7,0,1.4-0.2,2.1-0.2
	c1.1,0,2.2-0.1,3.3-0.1c1.2,0,2.8,0.2,4-0.1c0.4-0.1,1.1-0.1,1.5-0.1c0.7,0,1.4-0.1,2.1-0.1c1.2,0,2.4-0.1,3.6-0.1
	c1.4,0,3-0.4,4.3-0.7c1.9-0.4,3.7-0.8,5.6-1.4c1.6-0.5,3.3-1.1,4.7-2c0.8-0.5,1.9-0.9,1.9-1.9c0-0.7,0.1-2.3-1-2.4
	c-0.4,0-0.9-0.3-1,0.3c0,0.4-0.2,0.7-0.4,1.1c-0.3,0.4-0.8,0.5-1.2,0.8C88,75,87.7,75,87.4,75.2c-0.2,0.1-0.6,0.4-0.8,0.5
	c-1.2,0.3-2.2,1.1-3.5,1.1c-0.6,0-1.2,0.1-1.8,0.1c-0.7,0-1.5-0.1-2.2,0.1c-0.4,0.1-1.1,0.2-1.5,0.2c-0.3,0-0.8-0.1-0.7,0"/>
<path class="st1" d="M77,71.6c-0.4-0.5-0.5-0.7-1.2-0.7c-0.3,0-0.8-0.1-1.1,0.1c-0.5,0.3-0.9,1.5-0.5,2c0.4,0.4,1.8,0.6,2.2,0.1
	c0.3-0.4,0.7-1.7-0.2-1.7"/>
<path class="st1" d="M67.4,69.5c-0.7,0.3-1.4,0.7-2,1.1c-0.4,0.3-1.2,0.6-1.5,1c-0.4,0.6-0.9,1.4-1,2.1c-0.1,0.6,0.1,1.2,0.1,1.8
	c0.1,0.9,1.1,2.3,1.9,2.7c0.6,0.3,1.1,0.6,1.6,0.8c0.3,0.1,1.1,0.2,0.8,0.6"/>
<path class="st1" d="M58.4,78.4c0.7,0,0.9,0.6,1.5,0.7c0.5,0.1,1,0.2,1.6,0.4c0.6,0.2,1.3,0.4,1.9,0.4c0.3,0,0.8-0.1,1,0.2"/>
<path class="st1" d="M69,63.3c-1.4-1-2.6-2-3.8-3.2c-0.9-0.8-2.2-1.3-3.2-2c-0.4-0.3-0.9-0.4-1.3-0.7c-0.4-0.3-0.9-0.6-1.3-0.8
	c-0.6-0.4-1.2-0.8-1.8-1.2c-0.7-0.4-1.5-0.7-2.3-1c-0.8-0.3-1.5-0.7-2.3-1c-1.6-0.5-3.2-1.2-4.9-1.6c-1.2-0.3-2.4-0.9-3.6-1.2
	c-1.3-0.3-2.8-0.3-4-0.8c-0.4-0.2-1-0.2-1.4-0.2c-0.3,0-0.7-0.2-1-0.2c-0.5,0-1-0.1-1.6,0c-0.6,0.1-1.3,0.2-1.9,0.2
	c-0.8,0-1.7,0.5-2.5,0.7c-0.8,0.3-1.7,0.3-2.4,0.6c-0.4,0.2-1,0.2-1.5,0.4c-0.6,0.1-1.2,0.4-1.8,0.4c-1.2,0-2.4,0.4-3.7,0.4"/>
<path class="st1" d="M45.3,51.1c-0.4-0.9-0.9-1.3-1.5-2c-0.6-0.7-1.2-1.5-1.9-2.1c-1.4-1.5-2.8-3.1-4.6-4.1c-0.6-0.3-1.3-0.7-1.9-1
	c-0.6-0.3-1.1-0.4-0.7,0.5c0.4,0.9,1.3,1.5,1.8,2.3c0,0.1,0.3,0.3,0.2,0.3c-0.3-0.2-0.7-0.3-1-0.5c-0.7-0.3-1.6-0.9-2.4-0.9
	c-0.4,0,1.4,1.7,1.6,1.9c0.1,0.1,0.4,0.2,0.4,0.4c0,0.2-0.9-0.1-1-0.1c-0.2-0.1-2.2-0.8-2.3-0.6c-0.2,0.4,2,1.4,0.8,1.3
	c-0.4,0-1.8-0.6-1.3,0.2c0.1,0.2,0.6,0.5,0.1,0.5c-0.2,0-0.4,0-0.6-0.1c-0.2-0.1,0,0.1,0,0.2c0,0.2,0,0.3-0.1,0.5"/>
<path class="st1" d="M26.6,72.1c-1-0.5-1.8-0.3-2.8,0.1c-1,0.3-2.1,0.5-3.1,0.6c-0.9,0.1-1.9,0.1-2.8,0.4c-0.4,0.1-1.1,0.2-1.5,0
	c-0.3-0.2-0.3-1-0.2-1.3c0.2-0.6,0.5-1.3,0.5-2c0-0.6-0.1-1-0.1-1.6c0-0.5,0.4-0.8,0.6-1.1c0.2-0.5-0.1-0.9-0.2-1.4
	c-0.2-0.6,0.4-1.2,0.5-1.7c0.2-0.6,0.3-1.1,0-1.7c-0.2-0.5-0.2-0.9,0-1.3c0.2-0.5,0.2-0.4,0.7-0.3c0.3,0.1,0.7,0.2,1,0.4
	c0.4,0.1,0.6,0.1,1,0c0.4,0,1.3,0,0.4,0.1"/>
<path class="st1" d="M36.9,79.3c-0.5,0-0.9-0.3-1.3-0.5c-0.3-0.2-0.8-0.2-1.1-0.3c-1-0.2-2.1-0.6-3.1-1c-0.7-0.3-1.5-0.4-2.2-0.6
	c-0.3-0.1-0.5-0.2-0.7-0.3c-0.4-0.1,0-0.4,0.2-0.5c0.2-0.1,1.3-0.3,1.3-0.4c-0.5-0.1-0.5-0.3-0.9-0.6c-0.5-0.4,0.6-0.1-0.1-0.6
	c-0.3-0.2,1.1-0.5,1-0.1"/>
<path class="st1" d="M19.9,33.2c-0.1-0.9-0.2-1.6-0.2-2.5c0-0.8,0.1-1.6,0.4-2.4c0.2-0.6,0.4-1.3,0.7-2c0.4-0.9,0.9-1.7,1.4-2.5
	c1.1-1.8,2.7-3.2,4.1-4.8c0.6-0.7,1.1-1.4,1.8-2.1c0.2-0.2,0.5-0.3,0.8-0.5c0.3-0.2,0,0.6,0,0.8c-0.3,0.8-0.3,1.4-0.4,2.2
	c-0.1,0.9-0.4,1.6-0.1,2.5c0.2,0.8,0.4,1.6,0.6,2.3c0.1,0.4,0,0.8,0.1,1.2c0.1,0.3,0.3,0.8,0.3,1.1c0.1,0.8,1.2,0.9,1.9,1.1
	c1.3,0.3,2.7,0.8,4,1.3c1.2,0.5,2.5,0.8,3.8,0.9c0.6,0,1.5-0.1,2,0.1c0.4,0.2-2.6,2.7-2.7,2.8c-1.1,1.2-2.7,1.6-4.1,2
	c-0.8,0.2-1.7,0.3-2.5,0.6c-0.7,0.3-1.5,0.5-2.3,0.6c-1.1,0.2-2.1,0-3.2,0.1c-0.9,0.1-1.8,0.3-2.6,0.7c-0.7,0.4-1.1,0.9-2,1.5"/>
<path class="st1" d="M28,20.5c-1.3,1-2.5,2-3.8,3"/>
<path class="st1" d="M28.6,23.2c-0.8,0.6-1.7,1.2-2.4,1.9c-0.1,0.1-0.7,0.9-0.8,0.7"/>
<path class="st1" d="M28.9,25.3c-0.8,1.2-1.8,2.4-2.9,3.5"/>
<path class="st1" d="M29.4,27.3c-0.7,1-1.4,2.4-2.5,3"/>
<path class="st1" d="M31.5,28.3c-0.9,0.9-1.7,2-2.9,2.7"/>
<path class="st1" d="M34.2,28.9c-0.8,1.2-1.8,2-2.9,2.8"/>
<path class="st1" d="M37,29.9c-0.8,1-1.7,1.9-2.7,2.7"/>
<path class="st1" d="M39.7,30.6c-1,1-2.2,2.2-3.6,2.7"/>
<path class="st1" d="M33,55.6c3.3-0.4,6.8-0.8,10.1,0c2,0.5,4,1.1,6,1.7"/>
<path class="st1" d="M17.2,68.3c0.9,0,1.8,0.2,2.7,0.3"/>
<path class="st1" d="M17.4,66.6c1.2,0.4,2.5,0.5,3.8,0.4"/>
<path class="st1" d="M17.3,65.7c0.9,0,2.7,0.5,3.5-0.1"/>
<path class="st1" d="M18,64c0.9-0.2,1.7-0.3,2.5-0.3"/>
<path class="st1" d="M17,70.5c1.6,0.3,3.8,0.6,5.4,0.1"/>
<path class="st1" d="M19.9,28.5c-0.7,0.9-1.1,1.8-1.5,2.8c-0.3,0.9-0.8,1.8-0.8,2.7c0,1.2-0.4,2.6-0.6,3.8c-0.2,1.1-0.2,2.6,0,3.7
	c0.3,1.3,0.1,2.8,0.1,4.2c0,1.4,0.4,2.9,0.5,4.3c0.1,1.7,0.6,3.4,1,5.1c0.3,1.4,0.7,3.1,1.6,4.3c0.9,1.3,1.4,3,2,4.5
	c0.6,1.5,1.3,2.8,2,4.2c1.1,2.3,3.2,4.4,5,6.2c0.8,0.8,1.8,1.5,2.8,2.1c0.6,0.4,1.3,0.6,1.9,1c0.6,0.4,1.5,0.4,2.1,0.7
	c0.2,0.1,1.8,0.7,1,0.7"/>
<path class="st1" d="M24.2,45.6c-1.8-0.9-3.3-3.1-3.3-5.1c0-1.8,1.4-2.5,2.9-3.2c0.7-0.3,1.3-0.4,2-0.6c0.7-0.2,1.5,0,2.1-0.2
	c0.6-0.3,1.4-0.1,2.1-0.5c0.4-0.2,1.8-0.8,1.6-0.7"/>
<path class="st1" d="M20.8,41.5c0-0.9-0.3-1.8-0.5-2.6c-0.1-0.3-0.1-1.7-0.1-1.3"/>
<path class="st1" d="M51.2,81.7c-0.7,0-1.2-0.3-1.9-0.3c-0.7-0.3-1.7-0.3-2.4-0.4c-1.1-0.2-2-0.5-3-0.8c-0.5-0.1-0.9-0.3-1.4-0.5
	c-0.4-0.1-0.8-0.1-1.2-0.2c-0.6-0.1-1.2-0.3-1.7-0.4c-0.5-0.1-1.1-0.3-1.6-0.4c-0.4-0.1-0.7-0.1-1-0.2"/>
<path class="st1" d="M24.1,45.8c2.2,1.3,4.5,2.1,6.9,2.7c1,0.2,2,0.7,3,0.7c0.3,0,0.7,0.2,1,0.2c0.3,0,0.8,0.2,0.4,0.4"/>
</svg>
