<?xml version="1.0" encoding="utf-8"?>
<!-- Generator: Adobe Illustrator 26.0.2, SVG Export Plug-In . SVG Version: 6.00 Build 0)  -->
<svg version="1.1" id="Layer_1" xmlns="http://www.w3.org/2000/svg" xmlns:xlink="http://www.w3.org/1999/xlink" x="0px" y="0px"
	 viewBox="0 0 108 108" style="enable-background:new 0 0 108 108;" xml:space="preserve">
<style type="text/css">
	.st0{fill:#696157;}
	.st1{fill:none;stroke:#FFFFFE;stroke-linecap:round;}
	.st2{fill:none;stroke:#FFFEFE;stroke-width:0.5;stroke-linecap:round;}
	.st3{fill:none;stroke:#FFFFFF;stroke-miterlimit:10;}
	.st4{fill:#696157;stroke:#696157;stroke-width:0.5;stroke-linecap:round;}
</style>
<circle class="st0" cx="53.7" cy="53.7" r="53.7"/>
<path class="st1" d="M76.5,80.2c-2.1-2.3-4.7-2.9-7-4.5c-1.4-1-3.1-1.8-4.5-3c-1.4-1.1-2.9-2-4.3-3c-1.3-1-2.9-1.5-4.2-2.5
	c-1.5-1.1-3.5-1.5-5-2.7c-1.5-1.1-3.2-1.9-4.7-3.1c-1.4-1.1-2.8-2.3-4.2-3.4c-1.6-1.3-2.7-3.1-4.4-4.4c-1.1-0.9-2.9-1.8-3.6-3
	c-0.7-1.2-2.4-1.6-3.2-2.8c-0.6-0.8-1.2-1.5-1.9-2.1c-0.6-0.4-1.4-0.9-1.8-1.5c-0.8-1.4-2.6-2.2-3.2-3.7c-0.2-0.6-0.9-0.9-1.3-1.4
	c-0.4-0.5-0.9-1-1.3-1.5c-1-1-2.1-1.9-3.2-2.8c-0.5-0.4-1.1-0.9-1.6-1.3c-0.3-0.2-0.5-0.2-0.8-0.4c-0.9-0.7,1,0,1.4,0"/>
<path class="st1" d="M68.7,74.9c-1.4,0.2-3.1,0.6-4.2,1.4c-0.6,0.4-1,1.1-1.5,1.7c-0.5,0.7-1.3,1-1.9,1.7c-0.6,0.7-1.2,1.2-2,1.6
	c-0.7,0.4-1.4,0.9-2.2,1.1c-0.7,0.2-1.3,0.7-2.1,0.8c-0.4,0-0.7,0.1-1.1,0.2c-0.3,0.1-0.9,0.2-0.6,0.4"/>
<path class="st1" d="M63.6,71.9c-1,0.7-2.6,1.2-3.5,2.1c-0.3,0.3-0.7,0.4-1,0.6c-0.4,0.3-0.8,0.7-1.3,0.9c-0.8,0.3-1.7,1-2.6,1.1
	c-1,0.2-2.1,0.4-3.1,0.7c-1.6,0.5-2.9,1.3-4.4,1.9c-0.7,0.3-1.5,0.3-2.2,0.6c-0.5,0.2-1.4,0.4-0.9-0.2"/>
<path class="st1" d="M60.8,70.1c-1.8,0.5-3.5,1.8-5.1,2.7c-1.5,0.7-3,1.4-4.4,2.1c-1.5,0.7-3,1.5-4.4,2.4c-0.6,0.4-1.3,0.7-2,1.1
	c-0.4,0.2-2.3,0.8-0.9,0.5"/>
<path class="st1" d="M57.3,68c-1.7,0.2-3.5,0.1-5,0.9c-1.2,0.5-2.4,1-3.6,1.6c-2.2,1-4.7,1.4-6.8,2.3c-1,0.4-2,1-3,1.2
	c-1.2,0.3-2.4,0.2-3.6,0.1c-1.3-0.1-2.7,0.4-4,0.2c-0.5-0.1-1-0.2-1.4-0.2c-1,0-1.1,0,0.1,0.6"/>
<path class="st1" d="M51.4,64.3c-1.1,0.1-2.7,0.4-3.7,0.8c-0.9,0.4-2,0.5-2.9,1.1c-0.9,0.5-1.4,0.9-2.5,1.2c-1,0.2-1.9,1-2.8,1.3
	c-0.7,0.3-1.5,0.2-2.3,0.5c-0.5,0.2-1.3,0.4-1.9,0.3c-0.7-0.1-1.6,0.2-2.3,0.3c-0.3,0-2.1,0-1.4,0.1"/>
<path class="st1" d="M46.6,61.4c-0.7-0.2-1.6-0.6-2.4-0.5c-0.6,0.1-1.2,0.2-1.8,0.3c-0.6,0.1-1.2,0.5-1.8,0.7
	c-0.7,0.3-1.3,0.3-2.1,0.4c-1.4,0.2-2.8,0.6-4.2,1c-1.3,0.3-2.5,1.2-3.8,1.6c-2.4,0.8-4.7,1.9-7.1,2.8c-1.1,0.4-2.5,0.1-3.6-0.1
	c-0.6-0.1-1.2,0-1.8-0.2c-0.7-0.2-1.3-0.1-0.2-0.1"/>
<path class="st1" d="M37.9,53.3c-1.7-0.5-4-0.5-5.7-0.3c-0.5,0.1-0.9,0.4-1.4,0.6c-0.4,0.1-0.9,0.1-1.3,0.2
	c-0.7,0.1-1.7-0.1-2.3-0.2c-0.9-0.1-1.9,0.7-2.8,0.6c-0.8-0.1-1.8,0-2.7,0.1c-0.8,0.1-1.6,0.2-2.5,0.2c-0.4,0-2.3-0.2-1.3-0.5"/>
<path class="st1" d="M30.6,47.2c-0.8-0.4-1.3-0.6-2.2-0.5c-0.5,0.1-1,0-1.5,0c-0.4,0-1.1,0.1-1.5,0.3c-0.3,0.2-0.9,0-1.2,0.1
	c-0.9,0.3-1.7,0.4-2.6,0.3c-0.4,0-2,0.1-1.6-0.3"/>
<path class="st1" d="M25.7,42.2c-1.5-0.3-3.6,0.1-4.9,0.8c-0.4,0.2-2.8,0.4-2.8,0.1"/>
<path class="st1" d="M19.7,36c-0.7,0-1.5,0-2.1,0.2c-0.4,0.1-1.4,0.2-0.3,0.1"/>
<path class="st1" d="M20.8,35.5c-0.2-0.2-1.7-2.7-1.4-2.7"/>
<path class="st1" d="M25.4,41.4c-0.2-0.5-0.9-1.3-0.9-1.9c0-0.3-0.2-0.8-0.4-1c-0.5-0.5-0.2-1.4-0.3-2c-0.2-0.7,0.2-1.6,0.3-2.3
	c0.1-0.5-0.2-1.6,0.4-0.9"/>
<path class="st1" d="M29.3,45.7c0.4-2.5-0.3-5-0.6-7.5c-0.1-0.7,0.1-1.4,0-2.1c0-0.6-0.3-2.2,0.5-1.2"/>
<path class="st1" d="M34.5,49.8c0-2.9-0.6-5.6-1.5-8.3c-0.4-1.3-0.8-2.6-1.3-3.8c-0.2-0.5-0.5-1-0.7-1.4c-0.2-0.4-0.5-0.8,0-0.4"/>
<path class="st1" d="M44.3,59.5c-1.5-1.8-2.5-3.8-2.8-6.1c-0.1-1.1,0-2.1,0-3.2c0-1.3-0.2-2.7-0.2-4c-0.1-2.7-0.3-5.3-0.7-8
	c-0.2-1.4-0.8-2.4-1.3-3.8c-0.2-0.6-0.8-1.8,0-0.7"/>
<path class="st1" d="M51.2,64.2c-0.3-2.6,0-5.3,0.5-7.9c0.4-2.1,0.4-4.1,1.1-6.2c0.4-1.1,0.4-10.8,0.4-10.8"/>
<path class="st1" d="M55.2,66.4c0-4.4,0.2-8.9,0.9-13.2c0.1-1,0.4-1.9,0.7-2.8c0.2-1.1,0-2.2,0.1-3.3c0.1-1.2,0.3-4.8,0-3.6"/>
<path class="st1" d="M58.1,68c0.7-1.3,1.4-3.2,1.7-4.6c0.3-1.4,0.7-2.8,1-4.2c0.3-1.5-0.2-3,0-4.5c0.1-0.6,0.1-1.1,0.1-1.7
	c0-1,0-0.9,0.4-0.2"/>
<path class="st1" d="M63.2,71.5c0.4-2,0.7-4,1.7-5.8c0.6-1.3,0.8-2.5,1.1-3.9c0.4-1.4,0.6-2.8,0.8-4.2c0.1-1,0.3-3-0.3-3.9"/>
<path class="st1" d="M68.6,74.7c-1-1.9-0.6-5.1-0.4-7.2c0.1-1,0.5-1.8,0.8-2.8c0.3-1,0.5-2,0.9-3c0.5-1.2,1-2.4,1.5-3.6
	c0.4-1,0.2-2,0.3-3c0.1-1,0.5-2.7,0-3.6"/>
<path class="st1" d="M65.8,75.3c-0.7-0.2-1.5-0.3-2.2-0.3c-0.3,0-0.5-0.1-0.8-0.2c-0.1,0-0.3-0.1-0.3-0.1"/>
<path class="st1" d="M64,76.4c-0.5-0.2-1.1-0.3-1.7-0.3c-0.5,0-0.9,0-1.4,0c-0.3,0-0.6,0-0.9-0.1c-0.1,0-0.2,0-0.2,0
	c-0.1,0,0.3,0,0.4,0"/>
<path class="st1" d="M62.5,77.6c-1.3-0.4-2.6-0.5-3.9-0.3c-0.5,0.1-0.9,0.3-1.4,0.4c-0.1,0-0.8,0.1-0.6,0.2"/>
<path class="st1" d="M61,79c-1.3-0.4-2.6-0.1-3.9,0c-0.5,0-0.9,0.1-1.3,0.2c-0.2,0-1,0.2-0.4,0"/>
<path class="st1" d="M58.8,81.4c-0.8-0.1-1.5,0-2.4,0.1c-0.5,0.1-1,0-1.6,0c-0.5,0-0.9,0.1-1.4,0c-0.2,0-0.8-0.1-0.8,0.1"/>
<path class="st1" d="M62.2,72.1c-0.8,0.1-1.6,0.1-2.5,0.2c-0.1,0-0.9,0-0.5,0"/>
<path class="st1" d="M60.3,73.5c-0.6,0.1-1.2,0.3-1.8,0.4c-0.4,0.1-0.9,0-1.4,0.1c-0.3,0-0.5,0-0.8-0.1c-0.2-0.1-0.5-0.1-0.1,0"/>
<path class="st1" d="M57.2,75.2c-0.5,0-1.1,0-1.6,0c-0.4,0-0.9-0.1-1.3-0.1c-0.3,0-0.6-0.1-0.8-0.1c-0.2,0-0.3-0.1-0.1,0.1"/>
<path class="st1" d="M54.4,76.6c-0.5-0.1-1-0.1-1.5-0.2c-0.4,0-0.8-0.1-1.3-0.1c-0.2,0-0.4-0.1-0.6-0.2c-0.1,0-0.3-0.1-0.1,0"/>
<path class="st1" d="M51,77.9c-0.7-0.1-1.4,0.3-2.1,0.1c-0.4-0.1-0.8-0.3-1.1-0.3"/>
<path class="st1" d="M47.6,79.3c-0.5,0-0.9-0.1-1.4-0.1c-0.1,0-0.7-0.3-0.4-0.1"/>
<path class="st1" d="M51.3,78.1c-0.3,0.3-0.6,0.5-0.9,0.8c-0.3,0.3-0.5,0.6-0.8,0.9c-0.1,0.1-0.2,0.2-0.4,0.3c-0.2,0.1-0.3,0.1,0,0"
	/>
<path class="st1" d="M53.6,77.5c-0.5,0.8-1.1,1.5-1.7,2.2c-0.1,0.1-0.6,0.8-0.4,0.8"/>
<path class="st1" d="M61,80.1c-0.7,1.1-1.1,2.5-1.7,3.7c-0.1,0.3-0.5,2-1,1.8"/>
<path class="st1" d="M59.5,70.3c-0.6,0-1.2,0-1.8,0c-0.5,0-0.9-0.1-1.3-0.2c-0.5,0-0.9-0.1-1.4-0.2c-0.2,0-0.8-0.3-0.7-0.2"/>
<path class="st1" d="M57.1,71.3c-1.2-0.1-2.3,0-3.5-0.3c-0.4-0.1-0.8-0.2-1.2-0.4c-0.1,0-0.5-0.2-0.2-0.1"/>
<path class="st1" d="M55.3,72.4c-1.5-0.1-3.1-0.3-4.6-0.9"/>
<path class="st1" d="M53.1,73.7c-0.7-0.1-1.4-0.3-2-0.4c-0.6,0-1.2-0.1-1.8-0.3c-0.5-0.2-1-0.4-1.4-0.7"/>
<path class="st1" d="M50.3,74.8c-1,0.2-2.1,0-3.1-0.2c-0.3,0-0.5-0.1-0.8-0.2c0,0-0.3-0.1-0.3-0.1"/>
<path class="st1" d="M48,76.4c-0.4-0.1-0.8,0-1.3,0c-0.5,0-1.1,0-1.6,0c-0.5,0-1.1-0.2-1.5-0.5"/>
<path class="st1" d="M45,78.4c-0.3,0-0.6,0.1-0.9,0.1c-0.4,0-0.8,0-1.3-0.1c-0.3-0.1-0.7-0.2-1-0.3"/>
<path class="st1" d="M54.8,67.6C54,67,53,67,52.2,66.5c-0.3-0.2-1.1-0.8-1.4-0.6"/>
<path class="st1" d="M53,68.3c-0.6-0.1-1.2-0.4-1.8-0.5c-0.6-0.2-1.2-0.3-1.9-0.5c-0.4-0.1-0.8-0.3-1.2-0.4
	c-0.2-0.1-0.7-0.4-0.4-0.1"/>
<path class="st1" d="M50.9,69.1c-0.5-0.4-1.1-0.5-1.7-0.7c-0.6-0.2-1.2-0.4-1.8-0.5c-0.7-0.2-1.2-0.5-1.7-0.9"/>
<path class="st1" d="M49.4,69.9c-0.4,0.2-0.9,0.2-1.3,0.2c-0.5,0.1-1,0.1-1.6,0.1c-0.8,0-1.6,0.1-2.4,0c-0.7,0-1.4-0.1-2-0.3
	c-0.3-0.1-0.6-0.1-0.8-0.3"/>
<path class="st1" d="M44.1,71.5c-1.7-0.2-3.3-0.3-4.8-1c-0.4-0.2-0.9-0.4-1.3-0.6c-0.1,0-0.7-0.3-0.3-0.1"/>
<path class="st1" d="M41.9,72.4c-0.4,0.1-0.8,0.2-1.2,0.2c-0.4,0-0.8,0.1-1.1,0.2c-0.6,0.1-1.2-0.1-1.7-0.2c-0.4-0.1-0.8,0-1.2-0.2
	c-0.4-0.1-0.7-0.3-1.1-0.4c-0.3-0.1-0.7-0.3-1.1-0.4c-0.1,0-0.2-0.1-0.1,0"/>
<path class="st1" d="M38.1,74c-0.7-0.2-1.4-0.3-2.1-0.5c-0.6-0.1-1.2-0.1-1.8-0.2c-0.9-0.2-3.4-1.1-2.5-0.8"/>
<path class="st1" d="M43.8,71.9c-0.7,0.2-1.1,0.9-1.5,1.4c-0.4,0.4-0.8,0.9-1.1,1.4c-0.1,0.2-0.7,1.9-1.1,1.8"/>
<path class="st1" d="M39.5,74c-0.4-0.2-0.6,0.2-0.9,0.4c-0.5,0.3-0.9,0.6-1.3,1c-0.3,0.3-0.5,0.7-0.9,1c-0.1,0.1-0.3,0.3-0.4,0.3"/>
<path class="st1" d="M35.7,74.4c-0.4,0.4-0.9,0.9-1.2,1.3c-0.1,0.1-0.5,0.7-0.4,0.6"/>
<path class="st1" d="M46.5,71.3c-0.8,1-1.5,2.1-2.3,3.1c-0.4,0.5-0.7,1-1,1.5c-0.1,0.1-0.4,0.8-0.5,0.6"/>
<path class="st1" d="M48.7,64.4c-1.3-1-3-0.9-4.5-1.2c-0.5-0.1-1-0.1-1.5-0.2c-0.1,0-0.6-0.1-0.3,0"/>
<path class="st1" d="M46.1,65.1c-1.4-1-3.2-0.9-4.8-1.3c-0.6-0.1-1.1-0.3-1.6-0.3c-0.1,0-0.6-0.1-0.5,0"/>
<path class="st1" d="M43.2,66.5c-0.7-0.2-1.4-0.2-2.1-0.3c-0.8-0.1-1.7-0.1-2.5-0.2c-0.6-0.1-1.1-0.3-1.6-0.6
	c-0.1-0.1-0.9-0.3-0.6-0.3"/>
<path class="st1" d="M40.3,67.5c-1.2-0.2-2.6-0.2-3.7-0.7c-0.5-0.2-1.9-0.9-1.5-0.6"/>
<path class="st1" d="M38.2,68.6c-1.3,0-2.6-0.3-3.9-0.4c-0.4-0.1-0.8-0.2-1.1-0.3"/>
<path class="st1" d="M34.3,69.6c-0.9,0.2-2,0-2.9-0.4c-0.3-0.1-0.5-0.3-0.8-0.4c-0.1,0-0.3-0.1-0.2,0"/>
<path class="st1" d="M43.8,60.6c-1.1-0.9-2.5-1.2-3.7-1.9c-0.6-0.3-1.2-0.7-1.8-0.9c-0.2-0.1-0.4-0.2-0.7-0.3c-0.3-0.2-0.1,0,0.1,0"
	/>
<path class="st1" d="M41.9,60.9c-0.9-0.4-1.9-0.6-2.9-1c-0.9-0.4-1.8-0.7-2.6-1.2c-0.7-0.4-1.4-0.8-2.1-1.2
	c-0.3-0.2-0.6-0.3-0.9-0.5c-0.1-0.1-0.5-0.3-0.2-0.2"/>
<path class="st1" d="M39.9,61.3c-1.3-0.5-2.6-0.9-3.9-1.5c-0.8-0.4-1.5-0.8-2.3-1.2c-0.5-0.2-1-0.5-1.6-0.8
	c-0.3-0.1-0.5-0.3-0.8-0.3c-0.2-0.1-0.4-0.1-0.1,0"/>
<path class="st1" d="M38.2,62.2c-1.1-0.5-2.3-0.6-3.4-1c-1.1-0.4-2.2-1-3.4-1.2c-0.7-0.2-1.5-0.2-2.2-0.4c-0.3-0.1-0.6-0.2-0.9-0.4
	c-0.3-0.1-0.1-0.1,0.1-0.1"/>
<path class="st1" d="M35.1,62.8c-1-0.2-2-0.4-3-0.8c-0.8-0.3-1.6-0.6-2.4-0.8c-0.5-0.2-1-0.3-1.5-0.4c-0.2-0.1-1.1-0.4-0.4-0.2"/>
<path class="st1" d="M32.7,63.8c-0.4-0.3-0.9-0.5-1.4-0.6c-0.8-0.3-1.7-0.4-2.5-0.6c-0.6-0.2-1.2-0.3-1.9-0.5
	c-0.1,0-0.5-0.1-0.5-0.2"/>
<path class="st1" d="M30.4,64.5c-1.8-0.4-3.8-0.3-5.6-0.9c-0.4-0.1-0.8-0.2-1.2-0.4C23.4,63,23,62.9,23.5,63"/>
<path class="st1" d="M27.5,65.5c-1.3-0.2-2.6-0.4-3.8-1.1c-0.3-0.2-0.7-0.4-1-0.5c-0.2-0.1-0.5-0.2-0.2-0.1"/>
<path class="st1" d="M25.4,66.6c-1.4-0.4-3-0.1-4.4-0.5c-0.5-0.1-0.8-0.3-1.2-0.6c-0.1-0.1-0.2-0.1-0.3-0.1
	c-0.1-0.1,0.3,0.1,0.4,0.1"/>
<path class="st1" d="M34.8,52.2c-0.8-0.6-1.8-1.1-2.7-1.7c-0.3-0.2-0.5-0.5-0.8-0.6c-0.1,0-0.4-0.1-0.3-0.2"/>
<path class="st1" d="M33.6,52.9c-0.6-0.4-1.3-0.7-2-1c-0.6-0.3-1.1-0.7-1.7-1.1c-0.4-0.3-0.8-0.6-1.2-0.9c-0.1-0.1-0.7-0.3-0.5-0.4"
	/>
<path class="st1" d="M31.3,52.9c-1.2-0.7-2.5-1.2-3.7-1.9c-0.4-0.2-0.8-0.4-1.2-0.6c-0.1,0-0.4-0.1-0.2-0.1"/>
<path class="st1" d="M29.6,53.8c-1.1-0.8-2.5-1.4-3.6-2.1c-0.4-0.2-0.9-0.4-1.3-0.7c-0.1-0.1-0.3-0.2-0.1,0"/>
<path class="st1" d="M26.4,53.8c-1-0.3-2-0.8-2.9-1.4c-0.3-0.2-0.6-0.4-0.9-0.5c-0.2-0.1,0,0,0,0.1"/>
<path class="st1" d="M23,54.1c-0.7-0.5-1.6-0.7-2.3-1.1c-0.3-0.1-0.5-0.3-0.8-0.4c-0.2-0.1,0.2,0,0.2,0"/>
<path class="st1" d="M28.9,54.2c-0.9,0.4-1.3,1.3-1.9,2c-0.1,0.2-0.5,0.6-0.7,0.4"/>
<path class="st1" d="M25.3,54.1c-0.3,0.6-0.6,1.1-1,1.7c-0.1,0.1-0.2,0.4-0.3,0.4"/>
<path class="st1" d="M21.1,54.8c-0.2,0.3-0.9,1.2-0.6,0.9"/>
<path class="st1" d="M27.5,46c-0.9-0.1-1.8-0.3-2.6-0.6c-0.1,0-0.9-0.4-0.8-0.4"/>
<path class="st1" d="M23.9,46.7c-0.5-0.1-1-0.1-1.4-0.3c-0.1,0-0.7-0.3-0.7-0.2"/>
<path class="st1" d="M23.5,41.6c-0.7-0.2-1.4-0.3-2.1-0.7c-0.2-0.1-0.9-0.5-0.7-0.3"/>
<path class="st1" d="M21.9,42.2c-0.7-0.2-1.5-0.3-2.2-0.7c-0.2-0.1-0.4-0.3-0.6-0.2"/>
<path class="st1" d="M19.9,42.9c-0.5-0.1-1-0.2-1.5-0.4c-0.1,0-0.4-0.2-0.4-0.2"/>
<path class="st1" d="M23.7,37.7c-0.4-0.5-0.8-1-1.3-1.5c-0.1-0.1-0.5-0.5-0.2-0.5"/>
<path class="st1" d="M23.1,35.4c-0.2-0.4-0.4-0.8-0.6-1.2c0-0.1-0.4-0.7-0.2-0.7"/>
<path class="st1" d="M23.8,33.8c-0.1-0.2-0.3-0.5-0.4-0.7c0,0-0.3-0.2-0.1-0.1"/>
<path class="st1" d="M29.3,44.1c-0.9-0.7-1.6-1.5-2.3-2.3c-0.1-0.1-0.7-0.7-0.6-0.7"/>
<path class="st1" d="M28.8,42.1c-0.3-0.7-0.9-1.3-1.3-1.8c-0.1-0.2-0.4-0.5-0.4-0.7"/>
<path class="st1" d="M28.7,39.3c-0.5-0.4-1.8-2-1.3-1.6"/>
<path class="st1" d="M34.2,48.5c-0.7-1.2-1.8-2.2-2.8-3.1c-0.1-0.1-0.7-0.6-0.7-0.8"/>
<path class="st1" d="M34,45.7c-0.4-0.3-0.9-0.5-1.4-0.8c-0.4-0.3-0.9-0.6-1.2-1c-0.3-0.3-0.5-0.6-0.8-0.9c0,0-0.3-0.2-0.1-0.2"/>
<path class="st1" d="M33.3,43.1c-0.7-0.4-1.4-0.7-2-1.1c-0.1-0.1-0.9-0.6-0.6-0.7"/>
<path class="st1" d="M32.3,41.1c-0.6-0.5-1.3-1.1-1.8-1.7"/>
<path class="st1" d="M34.1,42.7c0.2-0.7,0.5-1.3,0.7-1.9c0.1-0.4,0.3-1,0.5-1.3"/>
<path class="st1" d="M32.9,39.4c0.1-0.6,0.2-1.2,0.2-1.9c0-0.2,0-0.8,0.2-0.9"/>
<path class="st1" d="M41.2,53.5c-0.5-0.8-1.4-1.4-2.1-1.9c-0.8-0.5-1.8-0.7-2.6-1.2c-0.3-0.2-0.6-0.4-0.9-0.7
	c-0.2-0.1-0.6-0.4-0.1-0.2"/>
<path class="st1" d="M40.9,50c-1-1.1-2.4-1.7-3.6-2.7c-0.2-0.2-0.4-0.4-0.7-0.6c-0.2-0.1-0.3-0.2-0.1-0.3"/>
<path class="st1" d="M40.8,47.4c-1-0.7-2-1.2-2.9-1.9c-0.2-0.2-0.4-0.3-0.6-0.5c-0.1,0-0.3-0.2-0.1-0.1"/>
<path class="st1" d="M40.4,45.3c-0.8-0.7-1.6-1.2-2.4-1.8c-0.1-0.1-0.9-0.7-0.6-0.8"/>
<path class="st1" d="M40.2,42.7c-0.7-0.7-1.5-1.3-2.3-1.9c-0.1-0.1-0.7-0.4-0.4-0.4"/>
<path class="st1" d="M40,39.9c-0.4-0.5-1.9-1.7-1.4-1.3"/>
<path class="st1" d="M41.1,40.6c-0.1-1,0.2-2.2,0.4-3.2c0.1-0.2,0-0.4,0-0.6c0-0.2,0.1-0.1,0.2,0"/>
<path class="st1" d="M41.4,43.1c0.4-0.9,0.7-1.8,1.1-2.7c0.2-0.3,0.3-0.6,0.4-1c0.1-0.3,0.2-0.5,0.4-0.7"/>
<path class="st1" d="M41.2,46.1c0.3-0.4,0.6-0.9,0.9-1.4c0.4-0.6,0.9-1.2,1.2-1.9c0.2-0.4,0.4-0.8,0.6-1.2c0.1-0.2,0.2-0.2,0,0"/>
<path class="st1" d="M41.4,48.3c1.1-1.1,2-2.3,2.9-3.5c0.2-0.2,0.4-0.5,0.7-0.7c0.2-0.1,0.3-0.2,0.1,0.1"/>
<path class="st1" d="M41.4,50.8c1.1-1.3,2.2-2.7,3.2-4.1c0.2-0.3,0.4-0.7,0.7-0.9c0.1-0.1,0.4-0.3,0.3-0.5"/>
<path class="st1" d="M51,62.2c-1.1-1.2-2.4-2.3-3.8-3.1C47.1,59,45.8,58,45.8,58"/>
<path class="st1" d="M51.1,60.5c-1.4-1.4-3.1-2.3-4.5-3.8c-0.4-0.4-0.7-0.9-1-1.3c-0.1-0.1-0.5-0.6-0.1-0.3"/>
<path class="st1" d="M50.9,57.5c-0.4-0.7-0.9-1.4-1.4-2c-0.6-0.9-1.1-1.9-1.5-2.9c-0.2-0.4-0.4-0.9-0.6-1.3
	c-0.2-0.3-0.1-0.4,0.1-0.2"/>
<path class="st1" d="M51.4,54.1c-1.1-1.4-2.9-2.3-4.3-3.4c-0.5-0.4-0.9-0.8-1.4-1.1c-0.2-0.2-0.3-0.2,0,0"/>
<path class="st1" d="M52.1,49.8C51,48.9,50,47.9,49,46.9c-0.4-0.3-0.7-0.6-1.1-0.9c-0.2-0.1,0.4,0.2,0.5,0.2"/>
<path class="st1" d="M53,46.6c-0.7-0.7-1.3-1.2-2.1-1.8c-0.2-0.2-0.4-0.3-0.6-0.6c-0.1-0.2,0.2,0,0.3,0.1"/>
<path class="st1" d="M52.7,43.6c-0.4-0.4-0.8-0.9-1.3-1.2c-0.1-0.1-0.6-0.5-0.4-0.3"/>
<path class="st1" d="M51.3,59.5c0.1-0.3,0.2-0.6,0.4-0.9c0.3-0.6,0.6-1.1,1-1.6c0.3-0.5,0.7-0.9,0.9-1.5c0.1-0.2,0.4-0.6,0.3-0.7"/>
<path class="st1" d="M51.6,55.8c0-0.3,0.2-0.6,0.3-0.9c0.3-0.8,0.5-1.6,0.8-2.4c0.2-0.6,0.4-1.2,0.8-1.6c0.1-0.1,0.3-0.3,0.2-0.3"/>
<path class="st1" d="M52.9,49.6c0.4-0.8,0.9-1.5,1.2-2.3c0.1-0.4,0.2-0.8,0.3-1.1"/>
<path class="st1" d="M53.3,44.6c0.4-0.6,0.7-1.2,0.8-1.9c0.1-0.2,0.2-1.2,0.5-1.2"/>
<path class="st1" d="M55.3,64.1c-0.1-0.7-0.7-1.2-1.1-1.7c-0.4-0.5-0.9-1.1-1.4-1.6c-0.3-0.3-0.6-0.5-0.8-0.8
	c-0.2-0.3-0.1-0.1,0.1,0"/>
<path class="st1" d="M55.7,61.4c-0.4-0.9-1.1-1.7-1.6-2.6c-0.2-0.4-0.4-0.7-0.7-1.1c-0.1-0.1-0.3-0.4-0.2-0.4"/>
<path class="st1" d="M55.7,58.6c-0.5-0.8-0.8-1.7-1.2-2.6c-0.2-0.4-0.5-0.9-0.7-1.3c-0.1-0.2-0.2-0.3,0-0.2"/>
<path class="st1" d="M56,55.5c-0.2-0.9-0.8-1.8-1.3-2.6c-0.2-0.4-0.5-0.8-0.8-1.1c-0.1-0.1-0.2-0.1-0.1-0.2"/>
<path class="st1" d="M55.9,51.1c-0.3-0.7-0.7-1.2-1.1-1.8c-0.1-0.1-0.4-0.4-0.3-0.6"/>
<path class="st1" d="M56.8,48.4c-0.3-0.7-0.7-1.2-1.1-1.8c-0.2-0.2-0.6-0.8-0.1-0.4"/>
<path class="st1" d="M56,61.2c0.3-1,0.6-1.9,1.1-2.8c0.2-0.5,0.4-0.9,0.5-1.5c0-0.2,0.1-0.8,0.2-0.7"/>
<path class="st1" d="M56,56.2c0.2-0.4,0.4-0.8,0.6-1.2c0.3-0.6,0.4-1.3,0.6-1.9c0.2-0.5,0.3-1.1,0.6-1.6c0.1-0.1,0.2-0.3,0-0.3"/>
<path class="st1" d="M57.3,47.9c0.1-0.3,0.3-0.6,0.4-0.9c0.1-0.3,0-0.5,0.1-0.8"/>
<path class="st1" d="M61.1,58.4c-0.6-0.8-1.1-1.6-1.6-2.4"/>
<path class="st1" d="M60.3,61.2c-0.4-0.9-0.7-1.8-1.1-2.7c-0.1-0.2-0.3-0.6-0.2-0.5"/>
<path class="st1" d="M60,62.7c-0.5-0.7-0.9-1.4-1.4-2.1c-0.1-0.2-0.2-0.4-0.3-0.6c-0.1-0.1,0-0.1,0.1,0"/>
<path class="st1" d="M59,65.4c-0.4-0.7-0.8-1.5-1.1-2.2c0-0.1-0.4-0.8-0.2-0.6"/>
<path class="st1" d="M63,69.4c-0.5-1.1-1-2.2-1.4-3.3c-0.1-0.2-0.2-0.4-0.2-0.6"/>
<path class="st1" d="M63.7,66.2c-0.3-0.9-0.8-1.6-1.4-2.3c-0.1-0.1-0.6-0.7-0.4-0.7"/>
<path class="st1" d="M64.2,64.2c-0.4-0.8-0.6-1.7-0.9-2.5c-0.1-0.3-0.2-0.7-0.4-0.9c0,0-0.1-0.1-0.1-0.1"/>
<path class="st1" d="M65.3,61.7c-0.2-1-0.6-1.7-1.2-2.5c-0.1-0.2-0.4-0.4-0.4-0.6"/>
<path class="st1" d="M65.9,58.8c-0.2-0.8-0.6-1.6-1.1-2.3c0-0.1-0.4-0.4-0.2-0.3"/>
<path class="st1" d="M66.6,55.6c-0.4-0.6-1.7-2.3-1.4-1.6"/>
<path class="st1" d="M67.8,72.4c-0.7-1-1.2-2.1-2.1-3c-0.3-0.3-0.6-0.6-0.8-0.9c-0.1-0.1-0.3-0.3-0.1-0.1"/>
<path class="st1" d="M68,70.5c-0.4-0.9-0.8-1.8-1.4-2.5c-0.3-0.5-0.7-0.9-1.1-1.3c-0.1-0.1-0.5-0.6-0.3-0.3"/>
<path class="st1" d="M68.1,68c-0.4-0.9-0.9-1.7-1.5-2.5c-0.3-0.4-1.2-1.2-0.9-1"/>
<path class="st1" d="M68.5,65.3c-0.1-1-0.7-1.7-1.1-2.6c-0.1-0.2-0.6-1.1-0.5-1.3"/>
<path class="st1" d="M69,63.1c0-0.8-0.6-1.4-0.9-2.1c0-0.1-0.4-0.9-0.3-1"/>
<path class="st1" d="M70,60.3c-0.2-0.6-0.5-1.1-0.7-1.7c-0.1-0.2-0.5-0.9-0.4-1"/>
<path class="st1" d="M70.8,58c-0.1-0.6-0.4-1.1-0.7-1.6c-0.1-0.2-0.2-0.4-0.3-0.6c-0.1-0.1,0-0.1,0.1-0.1"/>
<path class="st1" d="M71.5,54.6c-0.3-0.4-0.7-0.9-1-1.3c0,0-0.3-0.4-0.2-0.3"/>
<path class="st1" d="M71.3,59.2c0.3-0.6,0.5-1.1,0.8-1.7c0.1-0.2,0.2-0.8,0.4-0.9"/>
<path class="st1" d="M70.7,60.8c0.2-0.3,0.4-0.7,0.7-1c0.2-0.2,0.5-0.3,0.7-0.4c0.1-0.1,0.9-0.7,0.6-0.7"/>
<path class="st1" d="M69.1,63.6c0.5-0.4,1.1-0.6,1.6-0.9c0.6-0.5,1-1.2,1.3-2"/>
<path class="st1" d="M69,65.7c0.5-0.5,1.1-0.9,1.6-1.4c0.1-0.1,0.8-1,0.9-1"/>
<path class="st1" d="M68.3,68.9c0.6-0.4,1.1-0.8,1.5-1.3c0.3-0.3,0.7-1,1.2-1.2"/>
<path class="st1" d="M66.8,58.7c0.3-0.4,0.6-0.7,0.8-1.2c0.3-0.6,0.4-1.1,0.7-1.7"/>
<path class="st1" d="M61.2,59.3c0.6-0.6,0.8-1.2,1.1-2c0.1-0.4,0.3-1.1,0.7-1.3"/>
<path class="st1" d="M61.4,55c0.3-0.7,0.6-1.3,1-1.9c0.1-0.1,0.3-0.2,0.2-0.4"/>
<path class="st0" d="M57.9,36.3c0.1,0.4,0.2,0.9-0.2,1.2c0.4,0.6,0.6,0.3,1.2,0.3c0.6,0,1.3-0.1,1.8-0.3c0.6-0.2,1.2-0.4,1.7-0.8
	c0.2-0.2,0.6-0.4,0.6-0.8c0-0.2,0.2-0.6,0.3-0.8c0.2-0.5-0.1-1.1-0.2-1.6c-0.1-0.5,0-1.3,0.2-1.8c0.1-0.3,0.2-0.8,0.3-1.1
	c0.2-0.3,0.3-0.7,0.4-1c0.1-0.3,0.1-0.7,0.1-1.1c0-0.3,0-0.8-0.1-1.1c-0.1-0.3-0.1-1-0.4-0.4c-0.2,0.3-0.5-0.4-0.6-0.5
	c-0.4-0.4-0.4-1-0.8-1.5c-0.4-0.5-0.6-1-1-1.5c-0.4-0.5,0-1.3,0.4-1.7c0.1-0.1,0.3-0.5,0.3-0.6c0.1-0.2,0.2-0.3,0.2-0.5
	c0-0.2-0.5-0.1-0.7-0.1c-0.7,0-1.5,0.2-2.3,0.3c-0.3,0-0.5,0.1-0.8,0.1c-0.3,0-0.4-0.3-0.6-0.5c-0.4-0.3,0-1.3,0.3-1.6
	c0.1-0.2,0.2-0.4,0.4-0.6c0.1-0.1,0.2-0.7-0.1-0.5c-0.2,0.2-0.8,0.4-1.1,0.5c-0.3,0.2-0.4,0.4-0.8,0.3c-0.2-0.1-0.3-0.4-0.4-0.6
	c-0.3-0.6-0.8,1-0.8,1.1c-0.1,0.3-0.2,0.6-0.3,0.9c-0.1,0.2-0.2,0.6-0.1,0.9l0,0c0.1,0.4,0.3,1.5-0.3,1.5c-0.3,0-0.5,0-0.8-0.1
	c-0.3-0.1-0.5-0.6-0.9-0.6c-0.6,0.1-0.1,1.1,0.1,1.4c0.2,0.4,1,0.9,0.9,1.4c0,0.2-0.1,0.6-0.3,0.8c-0.2,0.3-0.2,0.6-0.2,1
	c0,0.5,0.1,1.2,0.3,1.7c0.1,0.3,0.1,0.7,0.3,1c0.1,0.3,0.3,0.7,0.3,1.1c0,0.6,0.1,1.1-0.2,1.6c-0.3,0.6,0.8,0.6,1.1,0.9
	c0.5,0.4,1.1,0.7,1.5,1.2c0.2,0.2,0.3,0.6,0.5,0.8c0.2,0.3,0.5,0.5,0.6,0.9C57.8,35.8,57.8,36,57.9,36.3z"/>
<path class="st2" d="M57.7,37.5c0.4-0.3,0.3-0.8,0.2-1.2c-0.1-0.3-0.1-0.5-0.2-0.8c-0.2-0.3-0.4-0.6-0.6-0.9
	c-0.2-0.3-0.3-0.6-0.5-0.8c-0.4-0.5-1-0.8-1.5-1.2c-0.3-0.3-1.5-0.3-1.1-0.9c0.3-0.5,0.2-1.1,0.2-1.6c0-0.3-0.1-0.8-0.3-1.1
	c-0.1-0.3-0.1-0.7-0.3-1c-0.2-0.5-0.3-1.2-0.3-1.7c0-0.4,0-0.7,0.2-1c0.1-0.2,0.2-0.6,0.3-0.8c0-0.5-0.7-1-0.9-1.4
	c-0.2-0.3-0.7-1.3-0.1-1.4c0.3-0.1,0.6,0.5,0.9,0.6c0.3,0.1,0.5,0.1,0.8,0.1c0.6,0,0.4-1.1,0.3-1.5c-0.1-0.2,0-0.7,0.1-0.9
	c0.2-0.3,0.2-0.6,0.3-0.9c0.1-0.1,0.6-1.8,0.8-1.1c0.1,0.2,0.2,0.6,0.4,0.6c0.4,0.1,0.5-0.1,0.8-0.3c0.3-0.1,0.9-0.3,1.1-0.5
	c0.3-0.2,0.2,0.3,0.1,0.5c-0.1,0.2-0.2,0.4-0.4,0.6c-0.2,0.3-0.7,1.3-0.3,1.6c0.2,0.2,0.2,0.5,0.6,0.5c0.3,0,0.6-0.1,0.8-0.1
	c0.7,0,1.5-0.3,2.3-0.3c0.2,0,0.7-0.1,0.7,0.1c0,0.2-0.1,0.3-0.2,0.5c-0.1,0.2-0.2,0.5-0.3,0.6c-0.4,0.4-0.8,1.2-0.4,1.7
	c0.4,0.4,0.7,1,1,1.5c0.3,0.4,0.4,1,0.8,1.5c0.1,0.1,0.4,0.8,0.6,0.5c0.3-0.6,0.3,0.1,0.4,0.4c0.1,0.3,0.1,0.8,0.1,1.1
	c0,0.4,0,0.7-0.1,1.1c-0.1,0.3-0.2,0.7-0.4,1c-0.2,0.3-0.2,0.7-0.3,1.1c-0.2,0.5-0.3,1.3-0.2,1.8c0.1,0.5,0.4,1.1,0.2,1.6
	c-0.1,0.2-0.3,0.6-0.3,0.8c0,0.3-0.4,0.6-0.6,0.8c-0.5,0.5-1.1,0.6-1.7,0.8c-0.5,0.2-1.3,0.3-1.8,0.3C58.3,37.8,58.1,38.1,57.7,37.5
	"/>
<path class="st3" d="M55.2,31.7c-0.6,0.1-1-1.4-1.3-1.8c-0.2-0.4-0.2-0.9-0.4-1.3c-0.4-0.8-0.4-1.5-0.3-2.4c0.2-1.9,2.9-2.9,2.5-5
	c0-0.2-0.1-0.4-0.1-0.6c0,0,0.2,0.3,0.2,0.4c0.2,0.3,0.7,0.7,1,0.9c0.4,0.2,1,0.3,1.5,0.4c0.5,0.1,1,0.4,1.5,0.5
	c1,0.4,2,1.6,2.4,2.6c0.2,0.5,0.4,1,0.6,1.6c0.1,0.2,0.1,0.4,0.1,0.6c0.1,0.4,0,0.1-0.1-0.1"/>
<path class="st3" d="M62.9,34c-0.1-0.7,0.5-2.9,0.7-3.6c0.1-0.4,0.5-0.9,0.5-1.3c0-0.7,0.2-1.2,0.1-1.9c-0.1-0.3-0.2-0.6-0.4-0.8
	c-0.2-0.2-0.1,0.2-0.2,0.4c-0.1,0.6-0.3,1.5-0.8,1.9c-0.6,0.5-1.1,1.2-1.4,1.9c-0.2,0.6-0.4,1.2-0.2,1.9c0,0.2,0.1,0.5,0.1,0.7
	c0.1,0.4,0-0.3,0-0.4"/>
<path class="st3" d="M63.1,33.8c-0.5-0.3-0.7-0.4-1.2-0.4c-0.3,0-0.6-0.1-0.8-0.2c-0.4-0.2-0.6-0.5-1-0.7c-0.3-0.2-0.5-0.5-0.4,0
	c0.1,0.9-0.3,1.6-0.7,2.4c-0.2,0.4,0.1,1.1,0.3,1.5c0.2,0.4,1,0.5,1.3,0.7c0.5,0.3,1.5-0.3,1.8-0.7c0.3-0.4,1-0.7,0.9-1.3
	c0-0.2-0.1-0.5-0.1-0.7c0-0.2,0-0.6-0.2-0.4"/>
<path class="st3" d="M63,34.5c-0.8,0.1-1.5,0.4-2.2,0.8c-0.2,0.1-0.4,0.1-0.6,0.2c-0.2,0.1-0.4,0.3-0.5,0.4
	c-0.1,0.1-0.3,0.2-0.3,0.2"/>
<path class="st3" d="M60.4,37.3c-0.5-0.1-1-0.3-1.5-0.2c-0.3,0-0.5-0.1-0.8-0.1c-0.3,0-1.5,0-0.9,0.4c0.3,0.2,0.8,0.3,1.2,0.3
	c0.4,0.1,0.7,0.1,1.1,0.1c0.2,0,0.7,0,0.9-0.1c0.1-0.1,0.6-0.4,0.5-0.4"/>
<path class="st3" d="M59,34.4c-0.2-0.3-0.4-0.9-0.7-1.1c-0.3-0.2-0.6-0.4-0.9-0.5c-0.5-0.3-1-0.6-1.6-0.8c-0.7-0.2-1.5-0.4-2.2-0.7
	c-0.3-0.1-0.5-0.1-0.8-0.3c-0.4-0.3-0.2,0,0,0.2c0.6,0.7,1.6,1.1,2.4,1.7c0.7,0.5,1,1.3,1.5,2c0.4,0.5,0.8,1.4,1.4,1.6
	c0.3,0.1,0.6,0.3,0.5-0.2"/>
<path class="st3" d="M61.2,23.8c-0.3-0.8,0.2-1.6,0.7-2.2c0.1-0.1,0.6-1.2,0.2-0.9c-0.4,0.2-0.9,0.3-1.3,0.4c-0.4,0-0.8-0.1-1.2,0
	c-0.2,0-0.5,0.1-0.7,0.1c-0.2,0-0.5,0.1-0.1,0"/>
<path class="st3" d="M60.5,22.8c-0.5-0.2-0.7-0.8-1.2-1c-0.3-0.1-0.6-0.2-0.9-0.4c-0.6-0.4-0.9-1.1-0.8-1.8c0.1-0.7,0.9-1.2,1.1-1.9
	c0.1-0.3-0.6,0.3-0.8,0.3c-0.4,0.2-0.8,0.4-1.2,0.6c-0.5,0.3-0.8-0.5-1-0.8c-0.2-0.3-0.4,0.3-0.4,0.4c0,0.4-0.2,0.7-0.3,1.1
	c-0.2,0.8-0.2,1.5,0.1,2.2c0.1,0.3,0.2,0.7,0.1,1c0,0.1-0.1,0.7-0.1,0.4"/>
<path class="st3" d="M55,21.8c-0.2,0.9-0.9,0.4-1.6,0.2c-0.3-0.1-1.1-0.2-1,0.3c0.1,0.6,0.5,1.3,1,1.7c0.2,0.2,0.5,0.9,0.5,0.7"/>
<path class="st4" d="M63,41.3c0,0.4,0.2,0.8,0.4,1.2c0-0.1,0.6,0.1,0.7,0.3c0.2,0.3,0.4,0.2,0.4,0.7c0,0.9,0.1,1.9,0.3,2.9
	c0.1,0.3,0,0.6,0.1,0.8c0.1,0.2,0.3,0.3,0.4,0.4c0.3,0.3,0.7,0.5,1,0.7c0.3,0.2,0.6,0.4,1,0.4c0.3,0.1,0.7,0.5,1,0.7
	c0.5,0.3,0.6,0.1,1.1-0.1c0.3-0.1,0.8-0.5,0.9-0.8c0.3-0.5,1.3-1.5,2-1.2c0.2,0.1,0.2,0.3,0.4,0.4c0.2,0.2,0.1,0.2,0.5,0.1
	c0.4-0.1,0.8-0.7,1-1c0.1-0.2,0.7-1.2,0.1-1.2c-0.2,0-0.8,0.1-0.4-0.2c0.2-0.2,0.4-0.3,0.6-0.5c0.1-0.1,0.3-0.1,0.4-0.2
	c0.1-0.1,0.2-0.2,0.4-0.3c0.2-0.1,0.3-0.3,0.5-0.5c0.5-0.4,1-0.8,1.4-1.3c0.3-0.5,0.7-0.9,1-1.4c0.3-0.4,0.3-0.9,0.5-1.4
	c0.2-0.5,0.4-0.9,0.9-1.2c0.3-0.2,0.5-0.3,0.8-0.5c0.2-0.1,0.6-0.3,0.8-0.5c0.1-0.1,0.7-0.6,0.6-0.7c0,0-0.4-0.1-0.4-0.1
	c-0.5-0.1,0.7-0.8,0.7-1c0.1-0.2-0.5,0-0.6,0.1c-0.2,0.1-0.7,0-0.9,0c-0.2-0.1-1.2-0.1-1-0.5c0.4-0.8,0.7-1.4,1.4-1.9
	c0.4-0.2,0.7-0.5,0.7-1c0-0.3-0.2-0.8-0.1-1c0.2-0.3,0.6-0.4,0.6-0.8c0-0.3,0.2-0.7-0.1-0.9c-0.5-0.3-1-0.1-1.6-0.1
	c-0.3,0-1.1-0.1-0.9-0.6c0.2-0.4,0.6-0.6,0.6-1.1c0-0.4-0.1-0.6-0.4-0.8c-0.2-0.1-0.9-0.5-1-0.7c0-0.2-0.1-0.4-0.2-0.6
	c-0.1-0.1-0.1-0.2-0.1-0.4c0,0,0-0.3,0-0.3c-0.2,0-0.3,1.1-0.3,1.3c0,0.5-0.4,1.1-0.7,1.4c-0.2,0.2-0.2,0.5-0.4,0.6
	c-0.2,0.2-0.3,0.4-0.4,0.6c-0.1,0.3-0.3,0.7-0.4,1.1c0,0.3-0.2,0.8-0.5,1c-0.3,0.2-0.8,0.2-1,0.4c-0.2,0.2-1.1,0.6-1.4,0.6
	c-0.4,0-0.5-0.5-0.7-0.8c-0.1-0.2-0.1-0.4-0.1-0.6c0-0.2-0.2-0.3-0.3-0.4c-0.1-0.3-0.5-0.4-0.7-0.7c-0.2-0.3-0.5-0.7-0.8-0.9
	c-0.3-0.3-0.4-0.6-0.6-1c-0.1-0.2-0.5-1.1-0.8-0.6c-0.2,0.3-0.3,0.7-0.3,1.1c0,0.5,0.1,1.1-0.1,1.5c-0.2,0.4-0.5,0.9-0.6,1.4
	c-0.4,1-1.1,2-1.7,2.9c-0.3,0.4-0.4,1.1-0.6,1.6c-0.2,0.6-0.3,1.1-0.5,1.6c-0.2,0.5-0.1,1.1-0.3,1.6c-0.1,0.4-0.1,0.8-0.1,1.2
	c0,0.5-0.2,0.4-0.6,0.4c-0.3,0-0.8,0.1-1,0.2C63.3,40.9,63,40.8,63,41.3z"/>
<path class="st3" d="M65.7,41.9c0.4-1.3,0.7-2.6,1.3-3.8c0.5-1.1,1.6-2.4,2.8-2.5c0.4-0.1,0.8-0.2,1.2-0.2c0.4,0,0.7,0.1,1.1,0.2
	c0.6,0.2,1.2,0.4,1.8,0.6c0.6,0.2,1.4,0,2.1-0.1c0.7-0.1,1.2-0.2,1.9-0.4c0.2,0,0.4-0.2,0.6-0.3c0,0-0.3,0.7-0.3,0.7
	c-0.2,0.5-0.6,1.1-0.6,1.7c0,1.1,0.6,2,0.2,3.1c-0.2,0.8-0.7,1.4-1.1,2c-0.3,0.5-0.9,1.3-1.4,1.6c-0.7,0.4-1.6,1.1-2.4,1.1
	c-0.3,0-0.5,0.1-0.7,0.2c-0.3,0.1-0.5,0.2-0.5-0.2"/>
<path class="st3" d="M77.9,40.1c0.5-0.7,1.2-1.4,1.8-2c0.1-0.1,0.3-0.3,0.4-0.4c0.2-0.1,0.5-0.1,0.7-0.2c0.3-0.2,0.8-0.4,1.2-0.4
	c0.2-0.1-0.5-0.1-0.5-0.1c-0.2,0-0.5,0-0.8-0.1c-0.4-0.1-0.5-0.4-0.9-0.6c-0.3-0.2-0.5-0.3-0.8-0.3c-0.2-0.1-0.8,0.2-0.9,0.1"/>
<path class="st3" d="M80.2,36.5c0.3-0.4,0.8-0.6,1.2-0.8"/>
<path class="st3" d="M81.4,35.7c-0.7-0.2-1.5,0.2-2.3,0.2"/>
<path class="st3" d="M78.9,35.7c0.3-0.6,0.7-1.1,1.2-1.6c0.4-0.4,0.9-0.6,1.1-1.2"/>
<path class="st3" d="M81.3,32.4c-0.2-0.3-0.5-0.4-0.4-0.8c0-0.2,0.1-0.4,0.3-0.5c0.1-0.1,0-0.2-0.1-0.1c-0.2,0-0.4,0.1-0.7,0.2
	c-0.3,0-0.6-0.2-0.9-0.3c-0.5-0.2-0.6-0.9-0.8-1.4c-0.2-0.7-0.6-0.8-1.1-0.2c-0.5,0.5-0.7,1.4-0.9,2c-0.2,0.6-0.1,1.4,0.2,2
	c0.3,0.5,0.6,1,1.2,1.2c0.4,0.1,1,0.5,1.2,0"/>
<path class="st3" d="M81.2,31.5c0.3,0,0.5,0.1,0.8,0.2c0.1,0,0.4,0.2,0.3,0c-0.3-0.4-0.6-0.8-0.6-1.4c0-0.4-0.5-0.7-0.9-0.7
	c-0.5,0-1-0.2-1.4,0"/>
<path class="st3" d="M79.5,29.5c-0.6-0.9,1.2-1.2,0.1-2c-0.2-0.1-0.5-0.2-0.6-0.4c-0.2-0.2-0.3-0.4-0.5-0.7
	c-0.1-0.2-0.3-0.4-0.3-0.7c0-0.1,0-0.7-0.1-0.7c-0.1,0-0.1,0.6-0.1,0.6c-0.1,0.4-0.2,0.7-0.3,1.1c-0.2,0.5-0.3,1-0.7,1.3
	c-0.3,0.2-0.5,0.6-0.7,0.9c-0.2,0.4-0.6,1.6-0.4,1.2"/>
<path class="st3" d="M76.9,29.8c-0.3,0.6-1,1-1.6,1.2c-0.4,0.2-0.7,0.2-1.1,0.4c-0.4,0.2-0.6,0.5-0.9,0.8c-0.5,0.4-0.6,1.2-0.8,1.7
	c-0.1,0.2-0.5,1.2-0.3,1.3"/>
<path class="st3" d="M72.9,35.5c1-0.4,1.9-0.5,2.9-0.5c0.2,0,1.5,0.3,1.3,0.5"/>
<path class="st3" d="M73.1,32.4c-0.4,0-0.9-0.4-1.3-0.3c-0.3,0.1-0.7,0.2-0.9,0.5c-0.3,0.2-0.3,0.7-0.6,0.9
	c-0.3,0.2-0.6,0.5-0.9,0.7c-0.7,0.3-1,0.9-1.4,1.5c-0.2,0.3-0.5,0.7-0.6,1.1c-0.1,0.2-0.1,0.4-0.2,0.6c-0.1,0.1-0.2,0.2,0,0.1"/>
<path class="st3" d="M72.7,32.2c0-0.5,0-0.9-0.1-1.4c-0.1-0.5-0.7-0.6-1.1-0.7c-0.8-0.3-1.7-0.9-1.8-1.8c-0.1-0.6-0.1-1.3-0.8-1.7
	C68.6,26.4,69,28,69,28.2c0.1,0.6-0.1,1.3-0.4,1.8c-0.2,0.5-0.6,1-0.9,1.5c-0.3,0.6-0.6,1.2-0.9,1.8c-0.5,1-1.2,2-1.5,3.1
	c-0.3,1-0.2,2.1-0.3,3.2c0,0.3,0,0.7,0,1.1c0.1,0.5,0.1,0.9,0.4,0.1"/>
<path class="st3" d="M71.3,30.1c-0.1-0.5-0.4-0.7-0.7-1.2c-0.2-0.3-0.2-0.6-0.4-0.8c-0.1-0.1-0.4-1.1-0.5-0.7"/>
<path class="st3" d="M67.9,44.8c0.1-0.8-0.6-1.3-1-1.8c-0.3-0.4-0.8-0.7-1.3-0.6c-0.6,0.1-1,0.3-1.4,0.5c-0.4,0.2-0.8-0.2-0.9-0.6
	c-0.1-0.6-0.3-1.1-0.7-1.5c-0.2-0.2-0.8-0.7-0.9-0.3c-0.1,0.6,0.5,1.3,0.9,1.7c0.2,0.2,0.3,0.5,0.6,0.6c0.2,0.1,0.5,0.2,0.8,0.2"/>
<path class="st3" d="M65.4,42.5c-0.2-0.4-0.2-0.9-0.6-1.2c-0.2-0.2-0.3-0.5-0.5-0.4c-0.3,0-0.5,0-0.8,0.1c-0.2,0.1-0.4,0.4-0.6,0.5"
	/>
<path class="st3" d="M65,47.6c0.4-0.7,0.7-1.5,1.4-1.8c0.7-0.4,1.7-0.4,2.4-0.9c0.6-0.4,1.2-0.9,1.6-1.6c0-0.1,0.3-0.8,0.1-0.3
	c-0.1,0.3-0.2,0.7-0.2,1c0.1,0.6-0.2,1.3,0,1.9c0.2,0.4,0,1.1-0.1,1.5c-0.2,0.5-0.3,1-0.6,1.4c-0.1,0.1-0.8,0.7-0.8,0.5"/>
<path class="st3" d="M70.3,45.9c0.6,0,0.9,0.1,1.4,0.5c0.3,0.2,0.4,0.4,0.6,0.7c0.2,0.5,0.3,0.6,0.9,0.5c0.2,0,0.6-0.5,0.7-0.7
	c0.2-0.3,0.3-0.5,0.4-0.9c0.1-0.5-1,0.2-1.1,0.3c-0.4,0.3-0.7,0.5-1.1,0.8"/>
<path class="st3" d="M72.6,47.8c-0.4-0.3-1.1-0.9-1.5-0.6c-0.3,0.3-0.8,0.2-1,0.6"/>
<path class="st3" d="M64.9,47.7c0.6,0.3,1.1,0.6,1.7,0.9c0.4,0.2,0.8,0.3,1.2,0.5c0.5,0.3,1,0.2,1.6,0"/>
<path class="st3" d="M64.4,47.4c0-0.5-0.2-0.9-0.2-1.4c0-0.4,0.1-0.8,0.1-1.2c0-0.3,0.2-1.1,0-1.3"/>
</svg>
