<?xml version="1.0" encoding="utf-8"?>
<!-- Generator: Adobe Illustrator 26.0.2, SVG Export Plug-In . SVG Version: 6.00 Build 0)  -->
<svg version="1.1" id="Layer_1" xmlns="http://www.w3.org/2000/svg" xmlns:xlink="http://www.w3.org/1999/xlink" x="0px" y="0px"
	 viewBox="0 0 108 108" style="enable-background:new 0 0 108 108;" xml:space="preserve">
<style type="text/css">
	.st0{fill:#696157;}
	.st1{fill:#696157;stroke:#696157;stroke-width:0.5;stroke-linecap:round;}
	.st2{fill:none;stroke:#FFFFFF;stroke-linecap:round;}
</style>
<circle class="st0" cx="53.7" cy="53.7" r="53.7"/>
<path class="st1" d="M56.5,89.2c-0.6,0.5-2.2,1.2-3,1.4c-0.5,0.3-3.6,2.2-4.2,1.5c-0.3-0.4-2.2-1-2.8-1.2c-0.9-0.4-1.2-1.5-1.7-2.2
	c-0.7-0.9-1.4-1.7-2.2-2.5c-0.9-0.9-1.2-2.1-1.9-3.1c-1.3-1.7-3.2-3-4.7-4.5c-1.4-1.4-4.4-3.1-6.4-3.3c-1-0.1-2.2-0.6-3.1-1l-0.1,0
	c-0.7-0.3-1.9-0.5-2.3-1.3c-0.9-2-2.7-3.5-2.9-5.8c-0.2-2.2-1.8-3.9-2.5-5.8c-1.7-4.5,0.7-9.4,1-13.8c0-0.7,0.5-1.3,0.5-2
	c0-0.9,0.2-2,0.5-2.9c0.4-1.4,0.7-2.7,1.6-3.8c0.8-0.9,1.1-2.1,1.9-3c0.7-0.8,1.8-1.8,2.5-2.8c1.4-2.1,4.3-2.6,6.1-4.4
	c1.1-1.1,2.7-0.7,4.1-1.4c1.2-0.6,2.1-1.5,3.3-2.1c1.1-0.6,2.2-0.8,3.4-1l0,0c1.1-0.2,2.4-0.8,3.5-0.9c2.4-0.1,4.8,0.1,7.2,0.2
	c0.2,0,1,0.2,1.1,0.3c0.5,0.4,2.6,0.3,3.2,0.3c1.5,0.1,2.6,0.7,4,0.9c2.6,0.4,5,1.4,7.5,2.1c2.6,0.8,5.1,1.8,7.2,3.5
	c1,0.8,1.9,1.5,2.8,2.4c0.7,0.7,2,0.7,2.5,1.7c0.7,1.6,2.7,2.8,4,4c1.3,1.2,3.5,1.9,4.1,3.9c0.6,2.1,0.5,4.2,0.5,6.4
	c0,0.9,0.3,2.4-0.1,3.3c-0.4,0.9-0.2,2-0.6,2.8c-0.3,0.8-0.6,2.3-0.6,3.2c-0.1,1.2-0.6,2.2-0.9,3.3c-0.4,2-1.9,4.6-3.3,6
	c-1.7,1.7-3,3.8-4.7,5.5c-1.6,1.6-3.8,3.7-5.9,4.6c-1.5,0.7-2.4,2.2-3.8,3.1c-1.2,0.6-2.1,1.7-3.3,2.3c-2.2,1.2-4.2,3.1-6.2,4.7
	c-0.9,0.7-1.7,0.6-2.9,0.6C58,88.2,57,88.8,56.5,89.2z"/>
<path class="st2" d="M43.6,85.7c-0.6-1.2-0.6-0.9-1.2-2c-0.4-0.8-1.6-1.2-2.3-1.8c-1.3-1.2-2.8-2.7-4.3-3.7
	c-1.8-1.1-3.6-2.5-5.7-3.2c-1.1-0.4-1.9-0.9-3-1.3c-0.4-0.1-2.1-1.5-1-1.1"/>
<path class="st2" d="M26.2,72.7c-1.6-0.9-1.8-2.1-2.7-3.5c-0.3-0.4-1.4-2.1-1.3-2.7c0-1-0.6-2-1.2-2.7c-0.9-1-1.1-2.8-1.3-4.1
	c-1-6,0.9-12.1,2.8-17.8c0.9-2.8,3.1-5.8,5.3-7.8c2.4-2.2,5.4-3.7,8.1-5.7c3-2.3,6.9-4.2,10.6-4.6c1.3-0.1,2.9,0,4.2-0.2
	c1.1-0.1,3.1-0.3,4.1,0"/>
<path class="st2" d="M54.3,23.5c1.6,0.5,3.3,0.6,4.9,1.1c1.4,0.5,2.8,0.8,4.2,1.1c3.3,0.6,6.3,2.1,9.5,3.2c1.8,0.6,3.9,2.1,5.4,3.2
	c2.2,1.7,5.3,2.2,7.1,4.4c0.4,0.5,1.1,0.8,1.5,1.3c0.5,0.7,1.2,1.2,1.8,1.8c0.8,0.9,1.1,2,1.6,3.1c0.8,1.7,0.9,5,0.4,6.8
	c-0.6,1.9-0.2,4.2-0.7,6.1c-0.6,2.1-1.4,4.2-2.1,6.4c-0.7,2-1.9,4.9-3.5,6.3c-0.9,0.9-1.4,2-2.5,2.9c-0.9,0.7-2,1.5-2.9,2.4
	c-2.5,2.2-5.6,3.8-8,6c-1,0.9-2.2,1.8-3.4,2.4c-0.9,0.5-1.5,1.6-2.5,1.9c-0.8,0.3-1.9,0.9-2.4,1.5c-0.9,1-2.3,1.5-3.5,2.1
	c-2.2,1-4.7,1.5-6.9,2.5c-1.4,0.6-3.8,0.2-5.2-0.4c-0.7-0.3-0.9-1.4-1.3-1.9c-0.5-0.7-1.5-1-2-1.8"/>
<path class="st2" d="M51.5,87.9c1.3-1.5,2.7-3.1,3.3-5c0.4-1.2,0.9-2.4,1.3-3.6c0.4-1.2,0.7-2.4,1.1-3.6c0.9-2.9,1.2-5.9,1.9-8.9
	c0.3-1.1,0.4-2.3,0.6-3.4c0.1-0.3,0-0.7,0.1-1c0.1-0.3,0-1.1,0.2-0.4"/>
<path class="st2" d="M50.6,87.5c0.4-1.2,1.4-2.1,1.8-3.4c0.5-1.3,1.1-2.6,1.5-3.9c0.9-2.7,2.1-5.5,2.4-8.3c0.3-2.6,0.9-5.2,1.3-7.9
	c0.1-0.8,0.2-1.7,0.2-2.5c0-0.4,0-0.8,0-1.1c-0.1-0.8,0,0.1,0,0.4"/>
<path class="st2" d="M49.3,87.1c1.3-2.6,2.4-5.2,3.3-8c0.4-1.2,0.7-2.3,0.7-3.6c0-1.3,0.7-2.6,0.8-3.8c0.2-1.3,0.6-2.6,0.8-3.9
	c0.1-0.6,0.3-1.2,0.4-1.9c0-0.5,0-1.2,0.1-1.7c0.2-1,0.2-2.1,0.2-3.2c0-0.6-0.1-1.1-0.1-1.7c0-0.2-0.1-0.4-0.1-0.6
	c0-0.3,0.2,0.5,0.3,0.8"/>
<path class="st2" d="M48.5,85.6c0.8-1.6,0.9-3.2,1.4-4.9c0.4-1.4,0.6-2.9,0.9-4.4c0.2-1.4,0.5-2.7,0.7-4.1c0.3-1.6,0.3-3.2,0.6-4.8
	c0.2-1.2,0-2.4,0.1-3.6c0.1-1,0-2,0-3c0-0.6,0-1.3-0.1-1.9c0-0.3,0-0.7,0-1.1c0-0.7,0,0.5,0,0.7"/>
<path class="st2" d="M47.1,85.4c1.1-3.4,1.1-7.1,1.8-10.6c0.2-1.2,0.3-2.5,0.4-3.7c0.1-1.2,0.3-2.3,0.3-3.5c0-1.1,0.1-2.2,0.1-3.3
	c0-0.5,0-1.1-0.1-1.6c-0.1-0.4-0.3-0.9-0.3-1.3c0-0.8-0.3-1.6-0.5-2.4c-0.1-0.3-0.1-0.7-0.2-1c-0.2-0.8,0.1-0.1,0.2,0.4"/>
<path class="st2" d="M45.7,84.3c0.9-1.7,1-3.7,1.3-5.6c0.3-1.6,0.4-3.3,0.7-4.9c0.2-1.2,0-2.3,0-3.5c0-1.2,0-2.3-0.2-3.5
	c-0.2-1.8-0.4-3.6-0.7-5.4c-0.1-0.7-0.4-1.4-0.5-2.1c0-0.3-0.2-0.6-0.2-0.9c-0.1-0.4,0.2,0.5,0.2,0.6"/>
<path class="st2" d="M44.9,82.7c0.6-1.2,0.6-2.5,0.6-3.8c-0.1-1.5,0-3.1,0-4.6c0-1.4,0.1-2.7,0-4.1c-0.1-1-0.1-2-0.1-3
	c0-1.7-0.1-3.4-0.3-5.1c-0.1-0.5-0.1-1.2-0.3-1.7c-0.2-0.4-0.3-0.5-0.1,0.1"/>
<path class="st2" d="M43.8,83.3c0.5-1.4,0.3-2.7,0.2-4.2c-0.1-1.2,0-2.4-0.2-3.7c-0.1-1-0.4-2-0.5-3c-0.1-1-0.1-2.1-0.3-3.1
	c-0.1-1.1-0.1-2.1-0.2-3.2c-0.1-0.9-0.3-1.7-0.4-2.6c-0.1-0.7-0.3-1.3-0.3-2c0-0.3-0.1-0.5-0.2-0.8c-0.1-0.5,0.3,1,0.4,1.1"/>
<path class="st2" d="M42.8,81.9c0.3,0.8,0.2,0,0.2-0.4c-0.1-0.8-0.2-1.6-0.4-2.5c-0.4-1.4-0.4-3-0.4-4.5c-0.1-2.2-0.4-4.4-0.5-6.6
	c0-0.9-0.2-1.8-0.4-2.7c-0.2-0.7-0.5-1.4-0.6-2.1c-0.1-0.4-0.3-1-0.5-1.4c-0.2-0.4-0.2-1,0.1-0.2"/>
<path class="st2" d="M41.7,80.8c0.3-1.2-0.4-2.6-0.7-3.8c-0.3-1.1-0.6-2.2-0.7-3.4c-0.2-1-0.4-2.1-0.7-3.1c-0.3-0.7-0.3-1.6-0.6-2.2
	c-0.4-0.9-0.5-1.9-1.1-2.7c-0.2-0.3-0.4-0.7-0.5-1c-0.3-0.7,0.2,0.4,0.3,0.6"/>
<path class="st2" d="M39.5,78.7c0.6-1.9-0.6-4-1.1-5.8c-0.3-1.3-0.3-3-1.1-4.1c-0.6-0.7-0.9-1.7-1.4-2.4c-0.3-0.4-1-1.5-0.3-0.4"/>
<path class="st2" d="M38.2,78.2c-1-1.4-1.5-2.8-2.1-4.4c-0.4-1-1-2-1.3-3.1c-0.2-0.7-0.7-1.3-0.9-2c-0.1-0.5-0.1-0.8,0,0"/>
<path class="st2" d="M36,76.1c-0.3-0.3-3.5-4.6-3.1-4.8"/>
<path class="st2" d="M53.5,88.1c0.6-1.3,1.5-2.4,2.2-3.6c0.8-1.4,1.7-2.7,2.3-4.2c1.2-2.6,2.1-5.5,2.9-8.3c0.4-1.2,0.6-2.5,0.9-3.7
	c0.2-0.8,0.5-1.6,0.5-2.5c0.1-0.6,0.4-1.3,0.3-1.9c0-0.1,0.1-0.3,0.1-0.4c0-0.1,0,0.6,0,0.7"/>
<path class="st2" d="M55.9,86.6c0,0.2-0.2,0.8,0,0.3c0.3-0.5,0.6-1.1,0.9-1.6c0.7-1.2,1.4-2.2,2-3.5c1.3-2.6,2.9-5.2,3.8-8
	c0.7-2.1,1.5-4.2,2.2-6.3c0.2-0.5,0.5-1.1,0.5-1.6c0-0.2,0-0.3,0.1-0.4c0.1-0.2,0,0.3,0,0.5"/>
<path class="st2" d="M57.4,86.6c1.3-2.3,2.9-4.4,4.2-6.6c1.1-2,2.3-3.9,3.5-5.8c1-1.7,1.8-3.5,2.4-5.4c0.2-0.5,0.3-1,0.5-1.5
	c0.2-0.5,0.2-0.6,0.1,0"/>
<path class="st2" d="M60,85.6c2.4-2.8,4.9-5.4,6.5-8.8c0.8-1.8,1.6-3.7,2.5-5.5c0.4-0.7,1.1-3,0.8-2.3"/>
<path class="st2" d="M63.4,83.2c1.4-1.4,2.3-2.8,3.3-4.5c0.8-1.4,1.8-2.6,2.6-4c0.7-1.2,1.5-2.3,1.9-3.6c0.2-0.4,0.8-1.9,0.3-0.6"/>
<path class="st2" d="M67.4,80.7c1.3-2,2.6-3.9,4-5.8c0.8-1,2-4.7,1.6-3.5"/>
<path class="st2" d="M75.5,67.4c0.5-0.9,0.8-2,1.3-2.9c0.5-1,1.3-1.9,1.6-3c0.6-1.7,1.5-3.3,2.2-4.9c0.6-1.2,1.5-2.4,1.9-3.7
	c0.2-0.5,0.5-0.9,0.8-1.4c0.3-0.5,0.1-0.3,0,0.1"/>
<path class="st2" d="M73.9,66c0.9-2.8,1.7-5.6,3.1-8.2c1.1-2,2-4.1,3.2-6.1c0.7-1.1,1.3-2.2,1.9-3.3c0.2-0.4,0.4-0.9,0.6-1.3
	c0.2-0.3,0.1-0.3,0,0"/>
<path class="st2" d="M71.7,64.6c1.9-4.6,3.1-9.4,5.1-13.9c0.6-1.4,1.2-2.9,1.8-4.4c0.2-0.5,0.5-0.9,0.7-1.4c0.2-0.5,0.2-0.5,0.2,0.1
	"/>
<path class="st2" d="M70.7,62.2c0.6-3,1.8-5.9,2.5-8.8c0.3-1.2,0.7-2.4,1.1-3.6c0.3-0.9,0.4-1.9,0.7-2.8c0.4-1.2,0.6-2.5,1-3.7
	c0.1-0.4,0.3-0.8,0.4-1.2c0.2-0.5,0.1-0.2-0.1,0.2"/>
<path class="st2" d="M68.8,61c0.7-1.6,1.3-3.3,1.6-5c0.2-1.2,0.5-2.4,0.8-3.7c0.5-2,1.1-4,1.5-6c0.3-1.5,0.6-2.9,0.9-4.4
	c0.1-0.3,0.3-0.7,0.3-1c-0.1-0.4-0.1,0.4-0.1,0.5"/>
<path class="st2" d="M65.4,59.2c0.9-2.8,1.5-5.5,2.1-8.4c0.4-2.2,1-4.4,1.2-6.6c0.1-1.5,0.7-3,0.9-4.5c0.1-0.3,0.5-2.2,0.4-0.9"/>
<path class="st2" d="M63.5,57.3c0.9-2.7,1.1-5.5,1.6-8.2c0.4-2.1,0.8-4.2,0.9-6.4c0.1-1.3,0.3-2.6,0.5-3.9c0.1-0.4,0.4-2.1,0.1-0.8"
	/>
<path class="st2" d="M61.4,56.5c0.3-2,0.4-4,0.6-5.9c0.2-1.5,0.4-2.9,0.5-4.4c0.1-1.8,0.2-3.7,0.2-5.5c0-1,0.3-2.1,0.2-3.1
	c0-0.4,0.1-0.8,0-1.2c0-0.2-0.1,0.5-0.1,0.6"/>
<path class="st2" d="M57.9,55.4c0.7-1.1,0.5-2.3,0.5-3.6c-0.1-2.1-0.1-4.2-0.3-6.3c-0.1-1.7,0-3.4,0-5.1c0-0.6-0.3-5.6,0-5.6"/>
<path class="st2" d="M56,54.5c-0.4-3-0.1-6-0.4-9.1c-0.2-2-0.5-4-0.8-6c-0.2-1.3-0.1-2.7-0.4-3.9c-0.1-0.6-0.3-2.1-0.1-0.6"/>
<path class="st2" d="M53.2,55c-0.5-3.4-0.6-6.9-1.2-10.3c-0.3-1.7-0.6-3.5-0.6-5.2c0-1.2-0.3-2.3-0.3-3.5c0-0.6-0.3-2.4-0.1-0.7"/>
<path class="st2" d="M50.1,53.3c-0.3-3-1.1-6-1.6-9c-0.2-1.7-0.5-3.4-0.8-5c-0.1-0.5-0.1-1-0.1-1.5c-0.1-0.4-0.2-0.9-0.2-1.3
	c0-0.3,0.1-0.5,0-0.8c0-0.4,0,0.4,0,0.5"/>
<path class="st2" d="M47.7,53.8c-0.4-2.4-1.2-4.7-1.6-7.2c-0.3-1.8-0.8-3.4-1.3-5.2c-0.2-0.8-0.4-1.7-0.7-2.4
	c-0.2-0.4-0.7-1.7-0.5-1.3"/>
<path class="st2" d="M45.1,54.6c-0.2-1.6-0.5-3.1-1-4.6c-0.5-1.3-1.1-2.6-1.5-4c-0.4-1.1-0.7-2.2-1.3-3.2c-0.4-0.6-0.7-1.2-1-1.8
	c-0.4-0.8-0.5-1.6-0.9-2.3c-0.2-0.3-0.4-0.7-0.6-1c-0.3-0.4,0.3,1,0.4,1.4"/>
<path class="st2" d="M43.3,54.7c-0.7-1.4-1.2-2.8-2-4.1c-0.7-1.2-1.5-2.2-2.1-3.4c-0.7-1.4-1.4-2.7-2.1-4.1
	c-0.5-0.9-0.8-1.9-1.2-2.8c-0.2-0.4-0.3-0.7-0.5-1.1c-0.2-0.4,0.4,1,0.5,1.1"/>
<path class="st2" d="M40,56.2c-0.3-2.7-2-5-3.4-7.2c-0.7-1.1-1.3-2.6-1.7-3.8c-0.4-1-0.9-1.8-1.4-2.8c-0.2-0.3-0.3-0.5-0.3-0.9
	c0-0.3,0,0.6,0,0.8"/>
<path class="st2" d="M37.7,57.4c-0.6-1.7-1.5-3.2-2.3-4.8c-0.5-1-0.8-2-1.2-3c-0.6-1.3-1.2-2.6-2-3.8c-0.5-0.7-1.4-1.3-1.7-2.1
	c-0.3-0.9-0.1-0.4,0,0.3"/>
<path class="st2" d="M36,58.5c-2-3.1-4.6-5.8-6.6-8.9c-0.5-0.8-1.1-1.5-1.5-2.3c-0.1-0.1-0.4-0.8-0.3-0.8"/>
<path class="st2" d="M34,60.3c-1.6-3.5-3.9-6.4-6.4-9.3c-0.3-0.3-0.6-0.9-0.7-1.3c-0.1-0.4-0.7-1.2-0.3-0.2"/>
<path class="st2" d="M32.9,62.5c-1.2-1.9-2.4-3.5-4-5.1c-0.9-0.9-1.8-1.7-2.6-2.7c-0.5-0.6-1.2-1.1-1.6-1.7
	c-0.3-0.5-0.9-1.3-0.1-0.3"/>
<path class="st2" d="M31.6,64.9c-1.6-2.5-3.7-4.9-6.2-6.6c-0.6-0.4-1.3-0.9-1.7-1.5c-0.3-0.3-0.7-1.1-0.4-0.2"/>
<path class="st2" d="M30.3,66.8c-1.4-2.2-3.7-3.4-5.7-4.9c-0.6-0.5-1.4-0.7-2-1.1c-0.3-0.1-0.4-0.4,0-0.3"/>
<path class="st2" d="M30.1,69.4c-1.7-1.8-4.1-3.4-6.3-4.5c-0.6-0.3-2-0.9-0.8-1.2"/>
<path class="st2" d="M78,66.9c2.1-2.7,3.8-5.5,5.7-8.3c0.4-0.5,0.8-1,1.2-1.6c0.1-0.1,0.3-0.8,0.1-0.2"/>
<path class="st2" d="M75.8,71.5c1.9-1.7,3.4-3.5,4.8-5.6c0.8-1.1,1.7-2.2,2.6-3.3c0.4-0.4,0.7-0.9,1.1-1.3c0.2-0.2,0.9-1.2,0.5-0.5"
	/>
<path class="st2" d="M85.9,54.9c1.1-1.7,2.2-3.5,3.1-5.2c0.2-0.4,0.4-0.9,0.6-1.3c0.1-0.2,0.3-1.1,0.5-0.8"/>
<path class="st2" d="M86.2,49.2c1.1-2,1.8-4.2,2.6-6.3"/>
<path class="st2" d="M84.4,45c0.5-1.8,1.2-3.5,1.7-5.3c0.1-0.2,0.4-0.9,0.1-0.7"/>
<path class="st2" d="M80.9,43.5c0.7-2.2,3-8.9,2.3-6.6"/>
<path class="st2" d="M78.7,40.1c0.6-1.7,1.8-5,1.8-5"/>
<path class="st2" d="M75.6,39.6c0.2-2,0.7-4,1.1-5.9c0.1-0.5,0.3-1.1,0.3-1.6"/>
<path class="st2" d="M71.1,37c0.5-1.9,1-3.7,1.3-5.6c0.1-0.3,0-0.7,0.1-0.1"/>
<path class="st2" d="M68,34.1c0-1.4,0-2.7,0.4-4c0.1-0.2,0.1-1.2,0.2-0.5"/>
<path class="st2" d="M62.9,33.5c0.2-1.6,0.8-6.5,0.3-4.9"/>
<path class="st2" d="M58.6,32.1c-0.1-1.6-0.3-3.1-0.4-4.7c0-0.5,0.2-1.8,0.1-1.4"/>
<path class="st2" d="M55,30.7c-0.1-1.5-0.3-3.1-0.5-4.6c-0.1-0.5-0.1-0.2-0.1,0"/>
<path class="st2" d="M50.8,30.9c-0.4-1.3-0.7-2.7-0.9-4c-0.1-0.6,0-0.8,0-0.1"/>
<path class="st2" d="M47.1,30.3c-0.8-1.1-1.4-2.4-1.8-3.7c-0.2-0.6-0.3-0.6-0.4,0"/>
<path class="st2" d="M43.5,31.7c-0.8-1.2-2-5.4-1.7-4"/>
<path class="st2" d="M39.6,33.3c-0.8-0.8-1-1.9-1.4-2.9c-0.2-0.4-0.3-0.8-0.5-0.3"/>
<path class="st2" d="M35.9,35.6c-0.7-0.9-1.4-1.9-2-2.9c-0.1-0.2-0.7-1.2-0.1-0.6"/>
<path class="st2" d="M33.8,36.7c-0.6-0.5-1.2-1-1.8-1.5c-0.2-0.2-1-0.6-0.7-0.5"/>
<path class="st2" d="M30,40.5c-0.9-1-1.8-2.1-2.5-3.2c-0.2-0.3-0.1-0.2-0.1,0.1"/>
<path class="st2" d="M26.8,43.1c-0.8-0.7-1.5-1.4-2.3-2.2c-0.1-0.1-0.7-0.5-0.5-0.6"/>
<path class="st2" d="M24.9,47c-0.3-0.2-2.2-2.2-2.6-1.8"/>
<path class="st2" d="M23.2,50.7c-0.8-0.5-1.3-1.1-2-1.7c-0.2-0.2-0.3-0.2-0.4,0"/>
<path class="st2" d="M22.1,55c-0.6-0.4-1.2-0.7-1.8-1.2"/>
<path class="st2" d="M21.9,58.4c-0.5-0.2-1-0.4-1.4-0.7"/>
</svg>
